<svg xmlns="http://www.w3.org/2000/svg" version="1.1" xmlns:xlink="http://www.w3.org/1999/xlink" xmlns:svgjs="http://svgjs.dev/svgjs" viewBox="0 0 800 800" opacity="0.32" width="800" height="800"><g stroke-width="4.5" stroke="red" fill="none"><line x1="61.53846153846154" y1="0" x2="0" y2="61.53846153846154"></line><line x1="123.07692307692308" y1="0" x2="61.53846153846154" y2="61.53846153846154"></line><line x1="184.6153846153846" y1="0" x2="123.07692307692308" y2="61.53846153846154"></line><line x1="246.15384615384616" y1="0" x2="184.6153846153846" y2="61.53846153846154"></line><line x1="307.6923076923077" y1="0" x2="246.15384615384616" y2="61.53846153846154"></line><line x1="369.2307692307692" y1="0" x2="307.6923076923077" y2="61.53846153846154"></line><line x1="430.7692307692308" y1="0" x2="369.2307692307692" y2="61.53846153846154"></line><line x1="492.3076923076923" y1="0" x2="430.7692307692308" y2="61.53846153846154"></line><line x1="553.8461538461538" y1="0" x2="492.3076923076923" y2="61.53846153846154"></line><line x1="615.3846153846154" y1="0" x2="553.8461538461538" y2="61.53846153846154"></line><line x1="676.9230769230769" y1="0" x2="615.3846153846154" y2="61.53846153846154"></line><line x1="738.4615384615385" y1="0" x2="676.9230769230769" y2="61.53846153846154"></line><line x1="800" y1="0" x2="738.4615384615385" y2="61.53846153846154"></line><line x1="861.5384615384615" y1="0" x2="800" y2="61.53846153846154"></line><line x1="61.53846153846154" y1="100" x2="0" y2="161.53846153846155"></line><line x1="123.07692307692308" y1="100" x2="61.53846153846154" y2="161.53846153846155"></line><line x1="184.6153846153846" y1="100" x2="123.07692307692308" y2="161.53846153846155"></line><line x1="246.15384615384616" y1="100" x2="184.6153846153846" y2="161.53846153846155"></line><line x1="307.6923076923077" y1="100" x2="246.15384615384616" y2="161.53846153846155"></line><line x1="369.2307692307692" y1="100" x2="307.6923076923077" y2="161.53846153846155"></line><line x1="430.7692307692308" y1="100" x2="369.2307692307692" y2="161.53846153846155"></line><line x1="492.3076923076923" y1="100" x2="430.7692307692308" y2="161.53846153846155"></line><line x1="553.8461538461538" y1="100" x2="492.3076923076923" y2="161.53846153846155"></line><line x1="615.3846153846154" y1="100" x2="553.8461538461538" y2="161.53846153846155"></line><line x1="676.9230769230769" y1="100" x2="615.3846153846154" y2="161.53846153846155"></line><line x1="738.4615384615385" y1="100" x2="676.9230769230769" y2="161.53846153846155"></line><line x1="800" y1="100" x2="738.4615384615385" y2="161.53846153846155"></line><line x1="861.5384615384615" y1="100" x2="800" y2="161.53846153846155"></line><line x1="61.53846153846154" y1="200" x2="0" y2="261.53846153846155"></line><line x1="123.07692307692308" y1="200" x2="61.53846153846154" y2="261.53846153846155"></line><line x1="184.6153846153846" y1="200" x2="123.07692307692308" y2="261.53846153846155"></line><line x1="246.15384615384616" y1="200" x2="184.6153846153846" y2="261.53846153846155"></line><line x1="307.6923076923077" y1="200" x2="246.15384615384616" y2="261.53846153846155"></line><line x1="369.2307692307692" y1="200" x2="307.6923076923077" y2="261.53846153846155"></line><line x1="430.7692307692308" y1="200" x2="369.2307692307692" y2="261.53846153846155"></line><line x1="492.3076923076923" y1="200" x2="430.7692307692308" y2="261.53846153846155"></line><line x1="553.8461538461538" y1="200" x2="492.3076923076923" y2="261.53846153846155"></line><line x1="615.3846153846154" y1="200" x2="553.8461538461538" y2="261.53846153846155"></line><line x1="676.9230769230769" y1="200" x2="615.3846153846154" y2="261.53846153846155"></line><line x1="738.4615384615385" y1="200" x2="676.9230769230769" y2="261.53846153846155"></line><line x1="800" y1="200" x2="738.4615384615385" y2="261.53846153846155"></line><line x1="861.5384615384615" y1="200" x2="800" y2="261.53846153846155"></line><line x1="61.53846153846154" y1="300" x2="0" y2="361.53846153846155"></line><line x1="123.07692307692308" y1="300" x2="61.53846153846154" y2="361.53846153846155"></line><line x1="184.6153846153846" y1="300" x2="123.07692307692308" y2="361.53846153846155"></line><line x1="246.15384615384616" y1="300" x2="184.6153846153846" y2="361.53846153846155"></line><line x1="307.6923076923077" y1="300" x2="246.15384615384616" y2="361.53846153846155"></line><line x1="369.2307692307692" y1="300" x2="307.6923076923077" y2="361.53846153846155"></line><line x1="430.7692307692308" y1="300" x2="369.2307692307692" y2="361.53846153846155"></line><line x1="492.3076923076923" y1="300" x2="430.7692307692308" y2="361.53846153846155"></line><line x1="553.8461538461538" y1="300" x2="492.3076923076923" y2="361.53846153846155"></line><line x1="615.3846153846154" y1="300" x2="553.8461538461538" y2="361.53846153846155"></line><line x1="676.9230769230769" y1="300" x2="615.3846153846154" y2="361.53846153846155"></line><line x1="738.4615384615385" y1="300" x2="676.9230769230769" y2="361.53846153846155"></line><line x1="800" y1="300" x2="738.4615384615385" y2="361.53846153846155"></line><line x1="861.5384615384615" y1="300" x2="800" y2="361.53846153846155"></line><line x1="61.53846153846154" y1="400" x2="0" y2="461.53846153846155"></line><line x1="123.07692307692308" y1="400" x2="61.53846153846154" y2="461.53846153846155"></line><line x1="184.6153846153846" y1="400" x2="123.07692307692308" y2="461.53846153846155"></line><line x1="246.15384615384616" y1="400" x2="184.6153846153846" y2="461.53846153846155"></line><line x1="307.6923076923077" y1="400" x2="246.15384615384616" y2="461.53846153846155"></line><line x1="369.2307692307692" y1="400" x2="307.6923076923077" y2="461.53846153846155"></line><line x1="430.7692307692308" y1="400" x2="369.2307692307692" y2="461.53846153846155"></line><line x1="492.3076923076923" y1="400" x2="430.7692307692308" y2="461.53846153846155"></line><line x1="553.8461538461538" y1="400" x2="492.3076923076923" y2="461.53846153846155"></line><line x1="615.3846153846154" y1="400" x2="553.8461538461538" y2="461.53846153846155"></line><line x1="676.9230769230769" y1="400" x2="615.3846153846154" y2="461.53846153846155"></line><line x1="738.4615384615385" y1="400" x2="676.9230769230769" y2="461.53846153846155"></line><line x1="800" y1="400" x2="738.4615384615385" y2="461.53846153846155"></line><line x1="861.5384615384615" y1="400" x2="800" y2="461.53846153846155"></line><line x1="61.53846153846154" y1="500" x2="0" y2="561.5384615384615"></line><line x1="123.07692307692308" y1="500" x2="61.53846153846154" y2="561.5384615384615"></line><line x1="184.6153846153846" y1="500" x2="123.07692307692308" y2="561.5384615384615"></line><line x1="246.15384615384616" y1="500" x2="184.6153846153846" y2="561.5384615384615"></line><line x1="307.6923076923077" y1="500" x2="246.15384615384616" y2="561.5384615384615"></line><line x1="369.2307692307692" y1="500" x2="307.6923076923077" y2="561.5384615384615"></line><line x1="430.7692307692308" y1="500" x2="369.2307692307692" y2="561.5384615384615"></line><line x1="492.3076923076923" y1="500" x2="430.7692307692308" y2="561.5384615384615"></line><line x1="553.8461538461538" y1="500" x2="492.3076923076923" y2="561.5384615384615"></line><line x1="615.3846153846154" y1="500" x2="553.8461538461538" y2="561.5384615384615"></line><line x1="676.9230769230769" y1="500" x2="615.3846153846154" y2="561.5384615384615"></line><line x1="738.4615384615385" y1="500" x2="676.9230769230769" y2="561.5384615384615"></line><line x1="800" y1="500" x2="738.4615384615385" y2="561.5384615384615"></line><line x1="861.5384615384615" y1="500" x2="800" y2="561.5384615384615"></line><line x1="61.53846153846154" y1="600" x2="0" y2="661.5384615384615"></line><line x1="123.07692307692308" y1="600" x2="61.53846153846154" y2="661.5384615384615"></line><line x1="184.6153846153846" y1="600" x2="123.07692307692308" y2="661.5384615384615"></line><line x1="246.15384615384616" y1="600" x2="184.6153846153846" y2="661.5384615384615"></line><line x1="307.6923076923077" y1="600" x2="246.15384615384616" y2="661.5384615384615"></line><line x1="369.2307692307692" y1="600" x2="307.6923076923077" y2="661.5384615384615"></line><line x1="430.7692307692308" y1="600" x2="369.2307692307692" y2="661.5384615384615"></line><line x1="492.3076923076923" y1="600" x2="430.7692307692308" y2="661.5384615384615"></line><line x1="553.8461538461538" y1="600" x2="492.3076923076923" y2="661.5384615384615"></line><line x1="615.3846153846154" y1="600" x2="553.8461538461538" y2="661.5384615384615"></line><line x1="676.9230769230769" y1="600" x2="615.3846153846154" y2="661.5384615384615"></line><line x1="738.4615384615385" y1="600" x2="676.9230769230769" y2="661.5384615384615"></line><line x1="800" y1="600" x2="738.4615384615385" y2="661.5384615384615"></line><line x1="861.5384615384615" y1="600" x2="800" y2="661.5384615384615"></line><line x1="61.53846153846154" y1="700" x2="0" y2="761.5384615384615"></line><line x1="123.07692307692308" y1="700" x2="61.53846153846154" y2="761.5384615384615"></line><line x1="184.6153846153846" y1="700" x2="123.07692307692308" y2="761.5384615384615"></line><line x1="246.15384615384616" y1="700" x2="184.6153846153846" y2="761.5384615384615"></line><line x1="307.6923076923077" y1="700" x2="246.15384615384616" y2="761.5384615384615"></line><line x1="369.2307692307692" y1="700" x2="307.6923076923077" y2="761.5384615384615"></line><line x1="430.7692307692308" y1="700" x2="369.2307692307692" y2="761.5384615384615"></line><line x1="492.3076923076923" y1="700" x2="430.7692307692308" y2="761.5384615384615"></line><line x1="553.8461538461538" y1="700" x2="492.3076923076923" y2="761.5384615384615"></line><line x1="615.3846153846154" y1="700" x2="553.8461538461538" y2="761.5384615384615"></line><line x1="676.9230769230769" y1="700" x2="615.3846153846154" y2="761.5384615384615"></line><line x1="738.4615384615385" y1="700" x2="676.9230769230769" y2="761.5384615384615"></line><line x1="800" y1="700" x2="738.4615384615385" y2="761.5384615384615"></line><line x1="861.5384615384615" y1="700" x2="800" y2="761.5384615384615"></line><line x1="61.53846153846154" y1="800" x2="0" y2="861.5384615384615"></line><line x1="123.07692307692308" y1="800" x2="61.53846153846154" y2="861.5384615384615"></line><line x1="184.6153846153846" y1="800" x2="123.07692307692308" y2="861.5384615384615"></line><line x1="246.15384615384616" y1="800" x2="184.6153846153846" y2="861.5384615384615"></line><line x1="307.6923076923077" y1="800" x2="246.15384615384616" y2="861.5384615384615"></line><line x1="369.2307692307692" y1="800" x2="307.6923076923077" y2="861.5384615384615"></line><line x1="430.7692307692308" y1="800" x2="369.2307692307692" y2="861.5384615384615"></line><line x1="492.3076923076923" y1="800" x2="430.7692307692308" y2="861.5384615384615"></line><line x1="553.8461538461538" y1="800" x2="492.3076923076923" y2="861.5384615384615"></line><line x1="615.3846153846154" y1="800" x2="553.8461538461538" y2="861.5384615384615"></line><line x1="676.9230769230769" y1="800" x2="615.3846153846154" y2="861.5384615384615"></line><line x1="738.4615384615385" y1="800" x2="676.9230769230769" y2="861.5384615384615"></line><line x1="800" y1="800" x2="738.4615384615385" y2="861.5384615384615"></line><line x1="861.5384615384615" y1="800" x2="800" y2="861.5384615384615"></line></g></svg>