<svg xmlns="http://www.w3.org/2000/svg" xmlns:xlink="http://www.w3.org/1999/xlink" viewBox="0 0 512 512" width="512" height="512" preserveAspectRatio="xMidYMid meet" style="width: 100%; height: 100%; transform: translate3d(0px, 0px, 0px); content-visibility: visible;"><defs><clipPath id="__lottie_element_1571"><rect width="512" height="512" x="0" y="0"></rect></clipPath><clipPath id="__lottie_element_1579"><path d="M0,0 L512,0 L512,512 L0,512z"></path></clipPath><clipPath id="__lottie_element_1720"><path d="M0,0 L512,0 L512,512 L0,512z"></path></clipPath></defs><g clip-path="url(#__lottie_element_1571)"><g transform="matrix(1,0,0,1,0,0)" opacity="1" style="display: block;"><g opacity="1" transform="matrix(1,0,0,1,164.89500427246094,376.33099365234375)"><path fill="rgb(108,43,193)" fill-opacity="1" d=" M3.490000009536743,-33.59400177001953 C3.490000009536743,-33.59400177001953 3.490000009536743,1.4850000143051147 3.490000009536743,1.4850000143051147 C3.490000009536743,2.861999988555908 2.872999906539917,4.144000053405762 1.7960000038146973,5.002999782562256 C1.7960000038146973,5.002999782562256 -5.539000034332275,10.854000091552734 -5.539000034332275,10.854000091552734 C-8.050000190734863,12.857999801635742 -9.489999771118164,15.85099983215332 -9.489999771118164,19.06100082397461 C-9.489999771118164,19.06100082397461 -9.489999771118164,33.59400177001953 -9.489999771118164,33.59400177001953 C-8.571000099182129,33.19200134277344 -7.558000087738037,32.96099853515625 -6.489999771118164,32.96099853515625 C-5.421999931335449,32.96099853515625 -4.408999919891357,33.19200134277344 -3.490000009536743,33.59400177001953 C-3.490000009536743,33.59400177001953 -3.490000009536743,19.06100082397461 -3.490000009536743,19.06100082397461 C-3.490000009536743,17.684999465942383 -2.871999979019165,16.402000427246094 -1.7960000038146973,15.543000221252441 C-1.7960000038146973,15.543000221252441 5.5370001792907715,9.692999839782715 5.5370001792907715,9.692999839782715 C8.050000190734863,7.690000057220459 9.489999771118164,4.697999954223633 9.489999771118164,1.4850000143051147 C9.489999771118164,1.4850000143051147 9.489999771118164,-33.59400177001953 9.489999771118164,-33.59400177001953 C9.489999771118164,-33.59400177001953 3.490000009536743,-33.59400177001953 3.490000009536743,-33.59400177001953z"></path></g><g opacity="1" transform="matrix(1,0,0,1,137.72999572753906,382.4620056152344)"><path fill="rgb(108,43,193)" fill-opacity="1" d=" M6.488999843597412,-39.724998474121094 C6.488999843597412,-39.724998474121094 6.488999843597412,-6.315999984741211 6.488999843597412,-6.315999984741211 C6.488999843597412,-4.853000164031982 5.7729997634887695,-3.4790000915527344 4.578000068664551,-2.63700008392334 C4.578000068664551,-2.63700008392334 -8.029000282287598,6.236999988555908 -8.029000282287598,6.236999988555908 C-10.821000099182129,8.20199966430664 -12.48900032043457,11.411999702453613 -12.48900032043457,14.824999809265137 C-12.48900032043457,14.824999809265137 -12.48900032043457,39.72600173950195 -12.48900032043457,39.72600173950195 C-11.569999694824219,39.32400131225586 -10.557000160217285,39.09299850463867 -9.48900032043457,39.09299850463867 C-8.420999526977539,39.09299850463867 -7.4079999923706055,39.32400131225586 -6.488999843597412,39.72600173950195 C-6.488999843597412,39.72600173950195 -6.488999843597412,14.822999954223633 -6.488999843597412,14.822999954223633 C-6.488999843597412,13.359999656677246 -5.7729997634887695,11.986000061035156 -4.578000068664551,11.144000053405762 C-4.578000068664551,11.144000053405762 8.029000282287598,2.2699999809265137 8.029000282287598,2.2699999809265137 C10.821000099182129,0.3050000071525574 12.48900032043457,-2.9049999713897705 12.48900032043457,-6.317999839782715 C12.48900032043457,-6.317999839782715 12.48900032043457,-39.72600173950195 12.48900032043457,-39.72600173950195 C12.48900032043457,-39.72600173950195 6.488999843597412,-39.72600173950195 6.488999843597412,-39.72600173950195 C6.488999843597412,-39.72600173950195 6.488999843597412,-39.724998474121094 6.488999843597412,-39.724998474121094z"></path></g><g opacity="1" transform="matrix(1,0,0,1,224.72900390625,376.33099365234375)"><path fill="rgb(108,43,193)" fill-opacity="1" d=" M3.490000009536743,19.06100082397461 C3.490000009536743,19.06100082397461 3.490000009536743,33.59400177001953 3.490000009536743,33.59400177001953 C4.408999919891357,33.19200134277344 5.421999931335449,32.96099853515625 6.489999771118164,32.96099853515625 C7.558000087738037,32.96099853515625 8.571000099182129,33.19200134277344 9.489999771118164,33.59400177001953 C9.489999771118164,33.59400177001953 9.489999771118164,19.06100082397461 9.489999771118164,19.06100082397461 C9.489999771118164,15.847999572753906 8.050000190734863,12.857000350952148 5.5370001792907715,10.852999687194824 C5.5370001792907715,10.852999687194824 -1.7960000038146973,5.002999782562256 -1.7960000038146973,5.002999782562256 C-2.872999906539917,4.144999980926514 -3.490000009536743,2.861999988555908 -3.490000009536743,1.4850000143051147 C-3.490000009536743,1.4850000143051147 -3.490000009536743,-33.59400177001953 -3.490000009536743,-33.59400177001953 C-3.490000009536743,-33.59400177001953 -9.489999771118164,-33.59400177001953 -9.489999771118164,-33.59400177001953 C-9.489999771118164,-33.59400177001953 -9.489999771118164,1.4850000143051147 -9.489999771118164,1.4850000143051147 C-9.489999771118164,4.697999954223633 -8.050000190734863,7.689000129699707 -5.5370001792907715,9.692999839782715 C-5.5370001792907715,9.692999839782715 1.7960000038146973,15.543000221252441 1.7960000038146973,15.543000221252441 C2.871999979019165,16.400999069213867 3.490000009536743,17.68400001525879 3.490000009536743,19.06100082397461z"></path></g><g opacity="1" transform="matrix(1,0,0,1,251.89599609375,382.46099853515625)"><path fill="rgb(108,43,193)" fill-opacity="1" d=" M6.488999843597412,14.824000358581543 C6.488999843597412,14.824000358581543 6.488999843597412,39.724998474121094 6.488999843597412,39.724998474121094 C7.408999919891357,39.323001861572266 8.420999526977539,39.09199905395508 9.48900032043457,39.09199905395508 C10.557000160217285,39.09199905395508 11.569000244140625,39.323001861572266 12.48900032043457,39.724998474121094 C12.48900032043457,39.724998474121094 12.48900032043457,14.824000358581543 12.48900032043457,14.824000358581543 C12.48900032043457,11.413000106811523 10.824000358581543,8.201000213623047 8.032999992370605,6.236000061035156 C8.032999992370605,6.236000061035156 -4.578999996185303,-2.638000011444092 -4.578999996185303,-2.638000011444092 C-5.77400016784668,-3.4800000190734863 -6.488999843597412,-4.854000091552734 -6.488999843597412,-6.316999912261963 C-6.488999843597412,-6.316999912261963 -6.488999843597412,-39.724998474121094 -6.488999843597412,-39.724998474121094 C-6.488999843597412,-39.724998474121094 -12.48900032043457,-39.724998474121094 -12.48900032043457,-39.724998474121094 C-12.48900032043457,-39.724998474121094 -12.48900032043457,-6.316999912261963 -12.48900032043457,-6.316999912261963 C-12.48900032043457,-2.9049999713897705 -10.822999954223633,0.3050000071525574 -8.031000137329102,2.2699999809265137 C-8.031000137329102,2.2699999809265137 4.578999996185303,11.142999649047852 4.578999996185303,11.142999649047852 C5.7729997634887695,11.986000061035156 6.488999843597412,13.361000061035156 6.488999843597412,14.824000358581543z"></path></g><g opacity="1" transform="matrix(1,0,0,1,194.72799682617188,369.3210144042969)"><path fill="rgb(108,43,193)" fill-opacity="1" d=" M0,25.948999404907227 C1.0679999589920044,25.948999404907227 2.0810000896453857,26.18000030517578 3,26.582000732421875 C3,26.582000732421875 3,-26.583999633789062 3,-26.583999633789062 C3,-26.583999633789062 -3,-26.583999633789062 -3,-26.583999633789062 C-3,-26.583999633789062 -3,26.583999633789062 -3,26.583999633789062 C-2.0810000896453857,26.180999755859375 -1.0700000524520874,25.948999404907227 0,25.948999404907227z"></path></g></g><g transform="matrix(1,0,0,1,0,0)" opacity="1" style="display: block;"><g opacity="1" transform="matrix(1,0,0,1,0,0)"><g opacity="1" transform="matrix(1,0,0,1,194.72799682617188,402.77099609375)"><path fill="rgb(255,201,29)" fill-opacity="1" d=" M0,-7.5 C4.139249801635742,-7.5 7.5,-4.139249801635742 7.5,0 C7.5,4.139249801635742 4.139249801635742,7.5 0,7.5 C-4.139249801635742,7.5 -7.5,4.139249801635742 -7.5,0 C-7.5,-4.139249801635742 -4.139249801635742,-7.5 0,-7.5z"></path></g><g opacity="1" transform="matrix(1,0,0,1,195.19700622558594,403.239013671875)"><path fill="rgb(255,169,26)" fill-opacity="1" d=" M-7.031000137329102,3.0940001010894775 C-5.9670000076293945,3.6730000972747803 -4.767000198364258,4.031000137329102 -3.4690001010894775,4.031000137329102 C0.6729999780654907,4.031000137329102 4.031000137329102,0.6729999780654907 4.031000137329102,-3.4690001010894775 C4.031000137329102,-4.764999866485596 3.6730000972747803,-5.966000080108643 3.0940001010894775,-7.031000137329102 C5.428999900817871,-5.760000228881836 7.031000137329102,-3.315000057220459 7.031000137329102,-0.4690000116825104 C7.031000137329102,3.6730000972747803 3.6730000972747803,7.031000137329102 -0.4690000116825104,7.031000137329102 C-3.315000057220459,7.031000137329102 -5.760000228881836,5.427999973297119 -7.031000137329102,3.0940001010894775z"></path></g></g><g opacity="1" transform="matrix(1,0,0,1,0,0)"><g opacity="1" transform="matrix(1,0,0,1,158.40699768066406,416.7929992675781)"><path fill="rgb(255,201,29)" fill-opacity="1" d=" M0,-7.5 C4.139249801635742,-7.5 7.5,-4.139249801635742 7.5,0 C7.5,4.139249801635742 4.139249801635742,7.5 0,7.5 C-4.139249801635742,7.5 -7.5,4.139249801635742 -7.5,0 C-7.5,-4.139249801635742 -4.139249801635742,-7.5 0,-7.5z"></path></g><g opacity="1" transform="matrix(1,0,0,1,158.87600708007812,417.260009765625)"><path fill="rgb(255,169,26)" fill-opacity="1" d=" M-7.031000137329102,3.0940001010894775 C-5.9670000076293945,3.6730000972747803 -4.767000198364258,4.031000137329102 -3.4690001010894775,4.031000137329102 C0.6729999780654907,4.031000137329102 4.031000137329102,0.6729999780654907 4.031000137329102,-3.4690001010894775 C4.031000137329102,-4.764999866485596 3.6730000972747803,-5.966000080108643 3.0940001010894775,-7.031000137329102 C5.428999900817871,-5.760000228881836 7.031000137329102,-3.315000057220459 7.031000137329102,-0.4690000116825104 C7.031000137329102,3.6730000972747803 3.6730000972747803,7.031000137329102 -0.4690000116825104,7.031000137329102 C-3.315000057220459,7.0329999923706055 -5.758999824523926,5.429999828338623 -7.031000137329102,3.0940001010894775z"></path></g></g><g opacity="1" transform="matrix(1,0,0,1,0,0)"><g opacity="1" transform="matrix(1,0,0,1,128.23899841308594,429.0530090332031)"><path fill="rgb(255,201,29)" fill-opacity="1" d=" M0,-7.5 C4.139249801635742,-7.5 7.5,-4.139249801635742 7.5,0 C7.5,4.139249801635742 4.139249801635742,7.5 0,7.5 C-4.139249801635742,7.5 -7.5,4.139249801635742 -7.5,0 C-7.5,-4.139249801635742 -4.139249801635742,-7.5 0,-7.5z"></path></g><g opacity="1" transform="matrix(1,0,0,1,128.70899963378906,429.5220031738281)"><path fill="rgb(255,169,26)" fill-opacity="1" d=" M-7.031000137329102,3.0940001010894775 C-5.9670000076293945,3.6730000972747803 -4.767000198364258,4.031000137329102 -3.4690001010894775,4.031000137329102 C0.6729999780654907,4.031000137329102 4.031000137329102,0.6729999780654907 4.031000137329102,-3.4690001010894775 C4.031000137329102,-4.764999866485596 3.6730000972747803,-5.966000080108643 3.0940001010894775,-7.031000137329102 C5.428999900817871,-5.760000228881836 7.031000137329102,-3.315000057220459 7.031000137329102,-0.4690000116825104 C7.031000137329102,3.6730000972747803 3.6730000972747803,7.031000137329102 -0.4690000116825104,7.031000137329102 C-3.315999984741211,7.031000137329102 -5.760000228881836,5.428999900817871 -7.031000137329102,3.0940001010894775z"></path></g></g><g opacity="1" transform="matrix(1,0,0,1,0,0)"><g opacity="1" transform="matrix(1,0,0,1,231.2169952392578,416.7929992675781)"><path fill="rgb(255,201,29)" fill-opacity="1" d=" M0,-7.5 C4.139249801635742,-7.5 7.5,-4.139249801635742 7.5,0 C7.5,4.139249801635742 4.139249801635742,7.5 0,7.5 C-4.139249801635742,7.5 -7.5,4.139249801635742 -7.5,0 C-7.5,-4.139249801635742 -4.139249801635742,-7.5 0,-7.5z"></path></g><g opacity="1" transform="matrix(1,0,0,1,231.68699645996094,417.260009765625)"><path fill="rgb(255,169,26)" fill-opacity="1" d=" M-7.031000137329102,3.0940001010894775 C-5.9670000076293945,3.6730000972747803 -4.767000198364258,4.031000137329102 -3.4690001010894775,4.031000137329102 C0.6729999780654907,4.031000137329102 4.031000137329102,0.6729999780654907 4.031000137329102,-3.4690001010894775 C4.031000137329102,-4.764999866485596 3.6730000972747803,-5.966000080108643 3.0940001010894775,-7.031000137329102 C5.428999900817871,-5.760000228881836 7.031000137329102,-3.315000057220459 7.031000137329102,-0.4690000116825104 C7.031000137329102,3.6730000972747803 3.6730000972747803,7.031000137329102 -0.4690000116825104,7.031000137329102 C-3.315999984741211,7.0329999923706055 -5.760000228881836,5.429999828338623 -7.031000137329102,3.0940001010894775z"></path></g></g><g opacity="1" transform="matrix(1,0,0,1,0,0)"><g opacity="1" transform="matrix(1,0,0,1,261.385009765625,429.0530090332031)"><path fill="rgb(255,201,29)" fill-opacity="1" d=" M0,-7.5 C4.139249801635742,-7.5 7.5,-4.139249801635742 7.5,0 C7.5,4.139249801635742 4.139249801635742,7.5 0,7.5 C-4.139249801635742,7.5 -7.5,4.139249801635742 -7.5,0 C-7.5,-4.139249801635742 -4.139249801635742,-7.5 0,-7.5z"></path></g><g opacity="1" transform="matrix(1,0,0,1,261.85400390625,429.5220031738281)"><path fill="rgb(255,169,26)" fill-opacity="1" d=" M-7.031000137329102,3.0940001010894775 C-5.9670000076293945,3.6730000972747803 -4.767000198364258,4.031000137329102 -3.4690001010894775,4.031000137329102 C0.6729999780654907,4.031000137329102 4.031000137329102,0.6729999780654907 4.031000137329102,-3.4690001010894775 C4.031000137329102,-4.764999866485596 3.6730000972747803,-5.966000080108643 3.0940001010894775,-7.031000137329102 C5.429999828338623,-5.760000228881836 7.031000137329102,-3.315000057220459 7.031000137329102,-0.4690000116825104 C7.031000137329102,3.6730000972747803 3.6730000972747803,7.031000137329102 -0.4690000116825104,7.031000137329102 C-3.315000057220459,7.031000137329102 -5.758999824523926,5.428999900817871 -7.031000137329102,3.0940001010894775z"></path></g></g></g><g clip-path="url(#__lottie_element_1579)" transform="matrix(1,0,0,1,0,0)" opacity="1" style="display: block;"><g transform="matrix(1,0,0,1,0.022003173828125,-67.27099609375)" opacity="1" style="display: none;"><g opacity="1" transform="matrix(1,0,0,1,194.72799682617188,402.77099609375)"><path fill="rgb(255,201,29)" fill-opacity="1" d=" M0,-7.5 C4.139249801635742,-7.5 7.5,-4.139249801635742 7.5,0 C7.5,4.139249801635742 4.139249801635742,7.5 0,7.5 C-4.139249801635742,7.5 -7.5,4.139249801635742 -7.5,0 C-7.5,-4.139249801635742 -4.139249801635742,-7.5 0,-7.5z"></path></g><g opacity="1" transform="matrix(1,0,0,1,195.19700622558594,403.239013671875)"><path fill="rgb(255,169,26)" fill-opacity="1" d=" M-7.031000137329102,3.0940001010894775 C-5.9670000076293945,3.6730000972747803 -4.767000198364258,4.031000137329102 -3.4690001010894775,4.031000137329102 C0.6729999780654907,4.031000137329102 4.031000137329102,0.6729999780654907 4.031000137329102,-3.4690001010894775 C4.031000137329102,-4.764999866485596 3.6730000972747803,-5.966000080108643 3.0940001010894775,-7.031000137329102 C5.428999900817871,-5.760000228881836 7.031000137329102,-3.315000057220459 7.031000137329102,-0.4690000116825104 C7.031000137329102,3.6730000972747803 3.6730000972747803,7.031000137329102 -0.4690000116825104,7.031000137329102 C-3.315000057220459,7.031000137329102 -5.760000228881836,5.427999973297119 -7.031000137329102,3.0940001010894775z"></path></g></g><g transform="matrix(1,0,0,1,12.843002319335938,-81.73550415039062)" opacity="1" style="display: none;"><g opacity="1" transform="matrix(1,0,0,1,158.40699768066406,416.7929992675781)"><path fill="rgb(255,201,29)" fill-opacity="1" d=" M0,-7.5 C4.139249801635742,-7.5 7.5,-4.139249801635742 7.5,0 C7.5,4.139249801635742 4.139249801635742,7.5 0,7.5 C-4.139249801635742,7.5 -7.5,4.139249801635742 -7.5,0 C-7.5,-4.139249801635742 -4.139249801635742,-7.5 0,-7.5z"></path></g><g opacity="1" transform="matrix(1,0,0,1,158.87600708007812,417.260009765625)"><path fill="rgb(255,169,26)" fill-opacity="1" d=" M-7.031000137329102,3.0940001010894775 C-5.9670000076293945,3.6730000972747803 -4.767000198364258,4.031000137329102 -3.4690001010894775,4.031000137329102 C0.6729999780654907,4.031000137329102 4.031000137329102,0.6729999780654907 4.031000137329102,-3.4690001010894775 C4.031000137329102,-4.764999866485596 3.6730000972747803,-5.966000080108643 3.0940001010894775,-7.031000137329102 C5.428999900817871,-5.760000228881836 7.031000137329102,-3.315000057220459 7.031000137329102,-0.4690000116825104 C7.031000137329102,3.6730000972747803 3.6730000972747803,7.031000137329102 -0.4690000116825104,7.031000137329102 C-3.315000057220459,7.0329999923706055 -5.758999824523926,5.429999828338623 -7.031000137329102,3.0940001010894775z"></path></g></g><g transform="matrix(1,0,0,1,19.259994506835938,-92.301025390625)" opacity="1" style="display: none;"><g opacity="1" transform="matrix(1,0,0,1,128.23899841308594,429.0530090332031)"><path fill="rgb(255,201,29)" fill-opacity="1" d=" M0,-7.5 C4.139249801635742,-7.5 7.5,-4.139249801635742 7.5,0 C7.5,4.139249801635742 4.139249801635742,7.5 0,7.5 C-4.139249801635742,7.5 -7.5,4.139249801635742 -7.5,0 C-7.5,-4.139249801635742 -4.139249801635742,-7.5 0,-7.5z"></path></g><g opacity="1" transform="matrix(1,0,0,1,128.70899963378906,429.5220031738281)"><path fill="rgb(255,169,26)" fill-opacity="1" d=" M-7.031000137329102,3.0940001010894775 C-5.9670000076293945,3.6730000972747803 -4.767000198364258,4.031000137329102 -3.4690001010894775,4.031000137329102 C0.6729999780654907,4.031000137329102 4.031000137329102,0.6729999780654907 4.031000137329102,-3.4690001010894775 C4.031000137329102,-4.764999866485596 3.6730000972747803,-5.966000080108643 3.0940001010894775,-7.031000137329102 C5.428999900817871,-5.760000228881836 7.031000137329102,-3.315000057220459 7.031000137329102,-0.4690000116825104 C7.031000137329102,3.6730000972747803 3.6730000972747803,7.031000137329102 -0.4690000116825104,7.031000137329102 C-3.315999984741211,7.031000137329102 -5.760000228881836,5.428999900817871 -7.031000137329102,3.0940001010894775z"></path></g></g><g transform="matrix(1,0,0,1,-13.029998779296875,-81.54299926757812)" opacity="1" style="display: none;"><g opacity="1" transform="matrix(1,0,0,1,231.2169952392578,416.7929992675781)"><path fill="rgb(255,201,29)" fill-opacity="1" d=" M0,-7.5 C4.139249801635742,-7.5 7.5,-4.139249801635742 7.5,0 C7.5,4.139249801635742 4.139249801635742,7.5 0,7.5 C-4.139249801635742,7.5 -7.5,4.139249801635742 -7.5,0 C-7.5,-4.139249801635742 -4.139249801635742,-7.5 0,-7.5z"></path></g><g opacity="1" transform="matrix(1,0,0,1,231.68699645996094,417.260009765625)"><path fill="rgb(255,169,26)" fill-opacity="1" d=" M-7.031000137329102,3.0940001010894775 C-5.9670000076293945,3.6730000972747803 -4.767000198364258,4.031000137329102 -3.4690001010894775,4.031000137329102 C0.6729999780654907,4.031000137329102 4.031000137329102,0.6729999780654907 4.031000137329102,-3.4690001010894775 C4.031000137329102,-4.764999866485596 3.6730000972747803,-5.966000080108643 3.0940001010894775,-7.031000137329102 C5.428999900817871,-5.760000228881836 7.031000137329102,-3.315000057220459 7.031000137329102,-0.4690000116825104 C7.031000137329102,3.6730000972747803 3.6730000972747803,7.031000137329102 -0.4690000116825104,7.031000137329102 C-3.315999984741211,7.0329999923706055 -5.760000228881836,5.429999828338623 -7.031000137329102,3.0940001010894775z"></path></g></g><g transform="matrix(1,0,0,1,-18.885009765625,-93.80300903320312)" opacity="1" style="display: none;"><g opacity="1" transform="matrix(1,0,0,1,261.385009765625,429.0530090332031)"><path fill="rgb(255,201,29)" fill-opacity="1" d=" M0,-7.5 C4.139249801635742,-7.5 7.5,-4.139249801635742 7.5,0 C7.5,4.139249801635742 4.139249801635742,7.5 0,7.5 C-4.139249801635742,7.5 -7.5,4.139249801635742 -7.5,0 C-7.5,-4.139249801635742 -4.139249801635742,-7.5 0,-7.5z"></path></g><g opacity="1" transform="matrix(1,0,0,1,261.85400390625,429.5220031738281)"><path fill="rgb(255,169,26)" fill-opacity="1" d=" M-7.031000137329102,3.0940001010894775 C-5.9670000076293945,3.6730000972747803 -4.767000198364258,4.031000137329102 -3.4690001010894775,4.031000137329102 C0.6729999780654907,4.031000137329102 4.031000137329102,0.6729999780654907 4.031000137329102,-3.4690001010894775 C4.031000137329102,-4.764999866485596 3.6730000972747803,-5.966000080108643 3.0940001010894775,-7.031000137329102 C5.429999828338623,-5.760000228881836 7.031000137329102,-3.315000057220459 7.031000137329102,-0.4690000116825104 C7.031000137329102,3.6730000972747803 3.6730000972747803,7.031000137329102 -0.4690000116825104,7.031000137329102 C-3.315000057220459,7.031000137329102 -5.758999824523926,5.428999900817871 -7.031000137329102,3.0940001010894775z"></path></g></g></g><g clip-path="url(#__lottie_element_1720)" transform="matrix(1,0,0,1,0,0)" opacity="1" style="display: none;"><g transform="matrix(1,0,0,1,12.843002319335938,-82.04299926757812)" opacity="1" style="display: block;"><g opacity="1" transform="matrix(1,0,0,1,158.40699768066406,416.7929992675781)"><path fill="rgb(255,201,29)" fill-opacity="1" d=" M0,-7.5 C4.139249801635742,-7.5 7.5,-4.139249801635742 7.5,0 C7.5,4.139249801635742 4.139249801635742,7.5 0,7.5 C-4.139249801635742,7.5 -7.5,4.139249801635742 -7.5,0 C-7.5,-4.139249801635742 -4.139249801635742,-7.5 0,-7.5z"></path></g><g opacity="1" transform="matrix(1,0,0,1,158.87600708007812,417.260009765625)"><path fill="rgb(255,169,26)" fill-opacity="1" d=" M-7.031000137329102,3.0940001010894775 C-5.9670000076293945,3.6730000972747803 -4.767000198364258,4.031000137329102 -3.4690001010894775,4.031000137329102 C0.6729999780654907,4.031000137329102 4.031000137329102,0.6729999780654907 4.031000137329102,-3.4690001010894775 C4.031000137329102,-4.764999866485596 3.6730000972747803,-5.966000080108643 3.0940001010894775,-7.031000137329102 C5.428999900817871,-5.760000228881836 7.031000137329102,-3.315000057220459 7.031000137329102,-0.4690000116825104 C7.031000137329102,3.6730000972747803 3.6730000972747803,7.031000137329102 -0.4690000116825104,7.031000137329102 C-3.315000057220459,7.0329999923706055 -5.758999824523926,5.429999828338623 -7.031000137329102,3.0940001010894775z"></path></g></g><g transform="matrix(1,0,0,1,19.259994506835938,-72.00079345703125)" opacity="1" style="display: block;"><g opacity="1" transform="matrix(1,0,0,1,128.23899841308594,429.0530090332031)"><path fill="rgb(255,201,29)" fill-opacity="1" d=" M0,-7.5 C4.139249801635742,-7.5 7.5,-4.139249801635742 7.5,0 C7.5,4.139249801635742 4.139249801635742,7.5 0,7.5 C-4.139249801635742,7.5 -7.5,4.139249801635742 -7.5,0 C-7.5,-4.139249801635742 -4.139249801635742,-7.5 0,-7.5z"></path></g><g opacity="1" transform="matrix(1,0,0,1,128.70899963378906,429.5220031738281)"><path fill="rgb(255,169,26)" fill-opacity="1" d=" M-7.031000137329102,3.0940001010894775 C-5.9670000076293945,3.6730000972747803 -4.767000198364258,4.031000137329102 -3.4690001010894775,4.031000137329102 C0.6729999780654907,4.031000137329102 4.031000137329102,0.6729999780654907 4.031000137329102,-3.4690001010894775 C4.031000137329102,-4.764999866485596 3.6730000972747803,-5.966000080108643 3.0940001010894775,-7.031000137329102 C5.428999900817871,-5.760000228881836 7.031000137329102,-3.315000057220459 7.031000137329102,-0.4690000116825104 C7.031000137329102,3.6730000972747803 3.6730000972747803,7.031000137329102 -0.4690000116825104,7.031000137329102 C-3.315999984741211,7.031000137329102 -5.760000228881836,5.428999900817871 -7.031000137329102,3.0940001010894775z"></path></g></g><g transform="matrix(1,0,0,1,-13.029998779296875,-37.9127197265625)" opacity="1" style="display: block;"><g opacity="1" transform="matrix(1,0,0,1,231.2169952392578,416.7929992675781)"><path fill="rgb(255,201,29)" fill-opacity="1" d=" M0,-7.5 C4.139249801635742,-7.5 7.5,-4.139249801635742 7.5,0 C7.5,4.139249801635742 4.139249801635742,7.5 0,7.5 C-4.139249801635742,7.5 -7.5,4.139249801635742 -7.5,0 C-7.5,-4.139249801635742 -4.139249801635742,-7.5 0,-7.5z"></path></g><g opacity="1" transform="matrix(1,0,0,1,231.68699645996094,417.260009765625)"><path fill="rgb(255,169,26)" fill-opacity="1" d=" M-7.031000137329102,3.0940001010894775 C-5.9670000076293945,3.6730000972747803 -4.767000198364258,4.031000137329102 -3.4690001010894775,4.031000137329102 C0.6729999780654907,4.031000137329102 4.031000137329102,0.6729999780654907 4.031000137329102,-3.4690001010894775 C4.031000137329102,-4.764999866485596 3.6730000972747803,-5.966000080108643 3.0940001010894775,-7.031000137329102 C5.428999900817871,-5.760000228881836 7.031000137329102,-3.315000057220459 7.031000137329102,-0.4690000116825104 C7.031000137329102,3.6730000972747803 3.6730000972747803,7.031000137329102 -0.4690000116825104,7.031000137329102 C-3.315999984741211,7.0329999923706055 -5.760000228881836,5.429999828338623 -7.031000137329102,3.0940001010894775z"></path></g></g><g transform="matrix(1,0,0,1,0.364990234375,-25.931182861328125)" opacity="1" style="display: block;"><g opacity="1" transform="matrix(1,0,0,1,261.385009765625,429.0530090332031)"><path fill="rgb(255,201,29)" fill-opacity="1" d=" M0,-7.5 C4.139249801635742,-7.5 7.5,-4.139249801635742 7.5,0 C7.5,4.139249801635742 4.139249801635742,7.5 0,7.5 C-4.139249801635742,7.5 -7.5,4.139249801635742 -7.5,0 C-7.5,-4.139249801635742 -4.139249801635742,-7.5 0,-7.5z"></path></g><g opacity="1" transform="matrix(1,0,0,1,261.85400390625,429.5220031738281)"><path fill="rgb(255,169,26)" fill-opacity="1" d=" M-7.031000137329102,3.0940001010894775 C-5.9670000076293945,3.6730000972747803 -4.767000198364258,4.031000137329102 -3.4690001010894775,4.031000137329102 C0.6729999780654907,4.031000137329102 4.031000137329102,0.6729999780654907 4.031000137329102,-3.4690001010894775 C4.031000137329102,-4.764999866485596 3.6730000972747803,-5.966000080108643 3.0940001010894775,-7.031000137329102 C5.429999828338623,-5.760000228881836 7.031000137329102,-3.315000057220459 7.031000137329102,-0.4690000116825104 C7.031000137329102,3.6730000972747803 3.6730000972747803,7.031000137329102 -0.4690000116825104,7.031000137329102 C-3.315000057220459,7.031000137329102 -5.758999824523926,5.428999900817871 -7.031000137329102,3.0940001010894775z"></path></g></g></g><g transform="matrix(1,0,0,1,0,0)" opacity="1" style="display: block;"><g opacity="1" transform="matrix(1,0,0,1,194.81199645996094,209.0919952392578)"><path fill="rgb(241,242,242)" fill-opacity="1" d=" M42.92900085449219,-133.64500427246094 C42.92900085449219,-133.64500427246094 -84.36000061035156,-133.64500427246094 -84.36000061035156,-133.64500427246094 C-92.6449966430664,-133.64500427246094 -99.36000061035156,-126.93000030517578 -99.36000061035156,-118.6449966430664 C-99.36000061035156,-118.6449966430664 -99.36000061035156,118.6449966430664 -99.36000061035156,118.6449966430664 C-99.36000061035156,126.93000030517578 -92.6449966430664,133.64500427246094 -84.36000061035156,133.64500427246094 C-84.36000061035156,133.64500427246094 84.36000061035156,133.64500427246094 84.36000061035156,133.64500427246094 C92.6449966430664,133.64500427246094 99.36000061035156,126.93000030517578 99.36000061035156,118.6449966430664 C99.36000061035156,118.6449966430664 99.36000061035156,-77.23400115966797 99.36000061035156,-77.23400115966797 C99.36000061035156,-77.23400115966797 42.92900085449219,-133.64500427246094 42.92900085449219,-133.64500427246094z"></path></g><g opacity="1" transform="matrix(1,0,0,1,104.4520034790039,151.07899475097656)"><path fill="rgb(255,255,255)" fill-opacity="1" d=" M0,56.362998962402344 C-1.656000018119812,56.362998962402344 -3,55.01900100708008 -3,53.362998962402344 C-3,53.362998962402344 -3,-41.137001037597656 -3,-41.137001037597656 C-3,-42.792999267578125 -1.656000018119812,-44.137001037597656 0,-44.137001037597656 C1.656000018119812,-44.137001037597656 3,-42.792999267578125 3,-41.137001037597656 C3,-41.137001037597656 3,53.362998962402344 3,53.362998962402344 C3,55.020999908447266 1.656000018119812,56.362998962402344 0,56.362998962402344z M0,-50.137001037597656 C-1.656000018119812,-50.137001037597656 -3,-51.48099899291992 -3,-53.137001037597656 C-3,-53.137001037597656 -3,-53.362998962402344 -3,-53.362998962402344 C-3,-55.01900100708008 -1.656000018119812,-56.362998962402344 0,-56.362998962402344 C1.656000018119812,-56.362998962402344 3,-55.01900100708008 3,-53.362998962402344 C3,-53.362998962402344 3,-53.137001037597656 3,-53.137001037597656 C3,-51.479000091552734 1.656000018119812,-50.137001037597656 0,-50.137001037597656z"></path></g><g opacity="1" transform="matrix(1,0,0,1,194.81199645996094,237.29800415039062)"><path fill="rgb(230,231,232)" fill-opacity="1" d=" M99.36000061035156,-105.43900299072266 C99.36000061035156,-105.43900299072266 84.36000061035156,-105.43699645996094 84.36000061035156,-105.43699645996094 C84.36000061035156,-105.43699645996094 84.36000061035156,75.43900299072266 84.36000061035156,75.43900299072266 C84.36000061035156,83.7239990234375 77.6449966430664,90.43900299072266 69.36000061035156,90.43900299072266 C69.36000061035156,90.43900299072266 -99.36000061035156,90.43900299072266 -99.36000061035156,90.43900299072266 C-99.36000061035156,98.7239990234375 -92.6449966430664,105.43900299072266 -84.36000061035156,105.43900299072266 C-84.36000061035156,105.43900299072266 84.36000061035156,105.43900299072266 84.36000061035156,105.43900299072266 C92.6449966430664,105.43900299072266 99.36000061035156,98.7239990234375 99.36000061035156,90.43900299072266 C99.36000061035156,90.43900299072266 99.36000061035156,-105.43900299072266 99.36000061035156,-105.43900299072266 C99.36000061035156,-105.43900299072266 99.36000061035156,-105.43900299072266 99.36000061035156,-105.43900299072266z"></path></g><g opacity="1" transform="matrix(1,0,0,1,195.47900390625,237.29800415039062)"><path fill="rgb(209,211,212)" fill-opacity="1" d=" M98.69300079345703,-105.43900299072266 C98.69300079345703,-105.43900299072266 91.19300079345703,-105.43800354003906 91.19300079345703,-105.43800354003906 C91.19300079345703,-105.43800354003906 91.19300079345703,82.93900299072266 91.19300079345703,82.93900299072266 C91.19300079345703,91.2239990234375 84.47799682617188,97.93900299072266 76.19300079345703,97.93900299072266 C76.19300079345703,97.93900299072266 -92.5270004272461,97.93900299072266 -92.5270004272461,97.93900299072266 C-94.72599792480469,97.93900299072266 -96.80999755859375,97.45600128173828 -98.69300079345703,96.6050033569336 C-96.33899688720703,101.81099700927734 -91.11199951171875,105.43900299072266 -85.0270004272461,105.43900299072266 C-85.0270004272461,105.43900299072266 83.69300079345703,105.43900299072266 83.69300079345703,105.43900299072266 C91.97799682617188,105.43900299072266 98.69300079345703,98.7239990234375 98.69300079345703,90.43900299072266 C98.69300079345703,90.43900299072266 98.69300079345703,-105.43900299072266 98.69300079345703,-105.43900299072266 C98.69300079345703,-105.43900299072266 98.69300079345703,-105.43900299072266 98.69300079345703,-105.43900299072266z"></path></g><g opacity="1" transform="matrix(1,0,0,1,265.95599365234375,103.65599822998047)"><path fill="rgb(209,211,212)" fill-opacity="1" d=" M-28.215999603271484,13.210000038146973 C-28.215999603271484,13.210000038146973 -28.215999603271484,-28.209999084472656 -28.215999603271484,-28.209999084472656 C-28.215999603271484,-28.209999084472656 28.215999603271484,28.20199966430664 28.215999603271484,28.20199966430664 C28.215999603271484,28.20199966430664 -13.213000297546387,28.209999084472656 -13.213000297546387,28.209999084472656 C-21.499000549316406,28.211000442504883 -28.215999603271484,21.4950008392334 -28.215999603271484,13.210000038146973z"></path></g><g opacity="1" transform="matrix(1,0,0,1,153.3719940185547,204.44200134277344)"><path fill="rgb(108,43,193)" fill-opacity="1" d=" M2.8989999294281006,-36.641998291015625 C2.5460000038146973,-37.95199966430664 1.3580000400543213,-38.86199951171875 0.0010000000474974513,-38.86199951171875 C-1.3559999465942383,-38.86199951171875 -2.5420000553131104,-37.95199966430664 -2.8959999084472656,-36.641998291015625 C-2.8959999084472656,-36.641998291015625 -22.20800018310547,35.082000732421875 -22.20800018310547,35.082000732421875 C-22.63800048828125,36.680999755859375 -21.690000534057617,38.327999114990234 -20.09000015258789,38.757999420166016 C-18.486000061035156,39.189998626708984 -16.843000411987305,38.24100112915039 -16.413000106811523,36.641998291015625 C-16.413000106811523,36.641998291015625 -9.583999633789062,11.274999618530273 -9.583999633789062,11.274999618530273 C-9.583999633789062,11.274999618530273 9.583000183105469,11.274999618530273 9.583000183105469,11.274999618530273 C9.583000183105469,11.274999618530273 16.410999298095703,36.641998291015625 16.410999298095703,36.641998291015625 C16.770999908447266,37.98099899291992 17.982999801635742,38.86199951171875 19.308000564575195,38.86199951171875 C19.56599998474121,38.86199951171875 19.82900047302246,38.827999114990234 20.09000015258789,38.757999420166016 C21.69099998474121,38.32699966430664 22.63800048828125,36.68199920654297 22.20800018310547,35.082000732421875 C22.20800018310547,35.082000732421875 2.8989999294281006,-36.641998291015625 2.8989999294281006,-36.641998291015625z M-7.9670000076293945,5.2769999504089355 C-7.9670000076293945,5.2769999504089355 0.003000000026077032,-24.320999145507812 0.003000000026077032,-24.320999145507812 C0.003000000026077032,-24.320999145507812 7.9710001945495605,5.2769999504089355 7.9710001945495605,5.2769999504089355 C7.9710001945495605,5.2769999504089355 -7.9670000076293945,5.2769999504089355 -7.9670000076293945,5.2769999504089355z"></path></g><g opacity="1" transform="matrix(1,0,0,1,247.28700256347656,204.44200134277344)"><path fill="rgb(108,43,193)" fill-opacity="1" d=" M8.274999618530273,32.86199951171875 C8.274999618530273,32.86199951171875 2.997999906539917,32.86199951171875 2.997999906539917,32.86199951171875 C2.997999906539917,32.86199951171875 2.997999906539917,-32.86199951171875 2.997999906539917,-32.86199951171875 C2.997999906539917,-32.86199951171875 8.274999618530273,-32.86199951171875 8.274999618530273,-32.86199951171875 C9.930999755859375,-32.86199951171875 11.274999618530273,-34.20600128173828 11.274999618530273,-35.86199951171875 C11.274999618530273,-37.518001556396484 9.930999755859375,-38.86199951171875 8.274999618530273,-38.86199951171875 C8.274999618530273,-38.86199951171875 -8.274999618530273,-38.86199951171875 -8.274999618530273,-38.86199951171875 C-9.930999755859375,-38.86199951171875 -11.274999618530273,-37.518001556396484 -11.274999618530273,-35.86199951171875 C-11.274999618530273,-34.20600128173828 -9.930999755859375,-32.86199951171875 -8.274999618530273,-32.86199951171875 C-8.274999618530273,-32.86199951171875 -3,-32.86199951171875 -3,-32.86199951171875 C-3,-32.86199951171875 -3,32.86199951171875 -3,32.86199951171875 C-3,32.86199951171875 -8.274999618530273,32.86199951171875 -8.274999618530273,32.86199951171875 C-9.930999755859375,32.86199951171875 -11.274999618530273,34.20600128173828 -11.274999618530273,35.86199951171875 C-11.274999618530273,37.518001556396484 -9.930999755859375,38.86199951171875 -8.274999618530273,38.86199951171875 C-8.274999618530273,38.86199951171875 8.274999618530273,38.86199951171875 8.274999618530273,38.86199951171875 C9.930999755859375,38.86199951171875 11.274999618530273,37.518001556396484 11.274999618530273,35.86199951171875 C11.274999618530273,34.20600128173828 9.932999610900879,32.86199951171875 8.274999618530273,32.86199951171875z"></path></g><g opacity="1" transform="matrix(1,0,0,1,208.54400634765625,204.44200134277344)"><path fill="rgb(108,43,193)" fill-opacity="1" d=" M5.517000198364258,-38.86199951171875 C5.517000198364258,-38.86199951171875 -19.31100082397461,-38.86199951171875 -19.31100082397461,-38.86199951171875 C-20.966999053955078,-38.86199951171875 -22.31100082397461,-37.518001556396484 -22.31100082397461,-35.86199951171875 C-22.31100082397461,-35.86199951171875 -22.31100082397461,35.86199951171875 -22.31100082397461,35.86199951171875 C-22.31100082397461,37.518001556396484 -20.966999053955078,38.86199951171875 -19.31100082397461,38.86199951171875 C-17.655000686645508,38.86199951171875 -16.31100082397461,37.518001556396484 -16.31100082397461,35.86199951171875 C-16.31100082397461,35.86199951171875 -16.31100082397461,-5.275000095367432 -16.31100082397461,-5.275000095367432 C-16.31100082397461,-5.275000095367432 5.517000198364258,-5.275000095367432 5.517000198364258,-5.275000095367432 C14.777999877929688,-5.275000095367432 22.31100082397461,-12.809000015258789 22.31100082397461,-22.06800079345703 C22.31100082397461,-31.32699966430664 14.777999877929688,-38.86199951171875 5.517000198364258,-38.86199951171875z M5.517000198364258,-11.274999618530273 C5.517000198364258,-11.274999618530273 -16.31100082397461,-11.274999618530273 -16.31100082397461,-11.274999618530273 C-16.31100082397461,-11.274999618530273 -16.31100082397461,-32.86199951171875 -16.31100082397461,-32.86199951171875 C-16.31100082397461,-32.86199951171875 5.517000198364258,-32.86199951171875 5.517000198364258,-32.86199951171875 C11.468999862670898,-32.86199951171875 16.31100082397461,-28.020999908447266 16.31100082397461,-22.06999969482422 C16.31100082397461,-16.118999481201172 11.468999862670898,-11.274999618530273 5.517000198364258,-11.274999618530273z"></path></g></g><g transform="matrix(-0.9859820604324341,-0.16685134172439575,0.16685134172439575,-0.9859820604324341,620.0266723632812,643.5232543945312)" opacity="1" style="display: block;"><g opacity="1" transform="matrix(1,0,0,1,337.0459899902344,295.71600341796875)"><path fill="rgb(137,58,221)" fill-opacity="1" d=" M79.50199890136719,8.340999603271484 C79.50199890136719,8.340999603271484 79.50199890136719,-8.340999603271484 79.50199890136719,-8.340999603271484 C79.50199890136719,-10.906000137329102 77.4219970703125,-12.986000061035156 74.85700225830078,-12.986000061035156 C74.85700225830078,-12.986000061035156 63.63100051879883,-12.986000061035156 63.63100051879883,-12.986000061035156 C61.948001861572266,-21.274999618530273 58.68000030517578,-28.986000061035156 54.16600036621094,-35.79999923706055 C54.16600036621094,-35.79999923706055 62.11399841308594,-43.74800109863281 62.11399841308594,-43.74800109863281 C63.928001403808594,-45.5620002746582 63.928001403808594,-48.50299835205078 62.11399841308594,-50.31800079345703 C62.11399841308594,-50.31800079345703 50.31800079345703,-62.11399841308594 50.31800079345703,-62.11399841308594 C48.50400161743164,-63.928001403808594 45.5629997253418,-63.928001403808594 43.74800109863281,-62.11399841308594 C43.74800109863281,-62.11399841308594 35.79999923706055,-54.16600036621094 35.79999923706055,-54.16600036621094 C28.985000610351562,-58.68000030517578 21.274999618530273,-61.948001861572266 12.986000061035156,-63.63100051879883 C12.986000061035156,-63.63100051879883 12.986000061035156,-74.85700225830078 12.986000061035156,-74.85700225830078 C12.986000061035156,-77.4219970703125 10.906000137329102,-79.50199890136719 8.340999603271484,-79.50199890136719 C8.340999603271484,-79.50199890136719 -8.340999603271484,-79.50199890136719 -8.340999603271484,-79.50199890136719 C-10.906000137329102,-79.50199890136719 -12.986000061035156,-77.4219970703125 -12.986000061035156,-74.85700225830078 C-12.986000061035156,-74.85700225830078 -12.986000061035156,-63.63100051879883 -12.986000061035156,-63.63100051879883 C-21.274999618530273,-61.948001861572266 -28.986000061035156,-58.67900085449219 -35.79999923706055,-54.16600036621094 C-35.79999923706055,-54.16600036621094 -43.74800109863281,-62.11399841308594 -43.74800109863281,-62.11399841308594 C-45.5620002746582,-63.928001403808594 -48.50299835205078,-63.928001403808594 -50.31800079345703,-62.11399841308594 C-50.31800079345703,-62.11399841308594 -62.11399841308594,-50.31800079345703 -62.11399841308594,-50.31800079345703 C-63.928001403808594,-48.50400161743164 -63.928001403808594,-45.5629997253418 -62.11399841308594,-43.74800109863281 C-62.11399841308594,-43.74800109863281 -54.16600036621094,-35.79999923706055 -54.16600036621094,-35.79999923706055 C-58.68000030517578,-28.986000061035156 -61.948001861572266,-21.274999618530273 -63.63100051879883,-12.986000061035156 C-63.63100051879883,-12.986000061035156 -74.85700225830078,-12.986000061035156 -74.85700225830078,-12.986000061035156 C-77.4219970703125,-12.986000061035156 -79.50199890136719,-10.906000137329102 -79.50199890136719,-8.340999603271484 C-79.50199890136719,-8.340999603271484 -79.50199890136719,8.340999603271484 -79.50199890136719,8.340999603271484 C-79.50199890136719,10.906000137329102 -77.4219970703125,12.986000061035156 -74.85700225830078,12.986000061035156 C-74.85700225830078,12.986000061035156 -63.63100051879883,12.986000061035156 -63.63100051879883,12.986000061035156 C-61.948001861572266,21.274999618530273 -58.68000030517578,28.985000610351562 -54.16600036621094,35.79999923706055 C-54.16600036621094,35.79999923706055 -62.11399841308594,43.74800109863281 -62.11399841308594,43.74800109863281 C-63.928001403808594,45.5620002746582 -63.928001403808594,48.50299835205078 -62.11399841308594,50.31800079345703 C-62.11399841308594,50.31800079345703 -50.31800079345703,62.11399841308594 -50.31800079345703,62.11399841308594 C-48.50400161743164,63.928001403808594 -45.5629997253418,63.928001403808594 -43.74800109863281,62.11399841308594 C-43.74800109863281,62.11399841308594 -35.79999923706055,54.16600036621094 -35.79999923706055,54.16600036621094 C-28.986000061035156,58.68000030517578 -21.274999618530273,61.948001861572266 -12.986000061035156,63.63100051879883 C-12.986000061035156,63.63100051879883 -12.986000061035156,74.85700225830078 -12.986000061035156,74.85700225830078 C-12.986000061035156,77.4219970703125 -10.906000137329102,79.50199890136719 -8.340999603271484,79.50199890136719 C-8.340999603271484,79.50199890136719 8.340999603271484,79.50199890136719 8.340999603271484,79.50199890136719 C10.906000137329102,79.50199890136719 12.986000061035156,77.4219970703125 12.986000061035156,74.85700225830078 C12.986000061035156,74.85700225830078 12.986000061035156,63.63100051879883 12.986000061035156,63.63100051879883 C21.274999618530273,61.948001861572266 28.985000610351562,58.68000030517578 35.79999923706055,54.16600036621094 C35.79999923706055,54.16600036621094 43.74800109863281,62.11399841308594 43.74800109863281,62.11399841308594 C45.5620002746582,63.928001403808594 48.50299835205078,63.928001403808594 50.31800079345703,62.11399841308594 C50.31800079345703,62.11399841308594 62.11399841308594,50.31800079345703 62.11399841308594,50.31800079345703 C63.928001403808594,48.50400161743164 63.928001403808594,45.5629997253418 62.11399841308594,43.74800109863281 C62.11399841308594,43.74800109863281 54.16600036621094,35.79999923706055 54.16600036621094,35.79999923706055 C58.68000030517578,28.985000610351562 61.948001861572266,21.274999618530273 63.63100051879883,12.986000061035156 C63.63100051879883,12.986000061035156 74.85700225830078,12.986000061035156 74.85700225830078,12.986000061035156 C77.4219970703125,12.986000061035156 79.50199890136719,10.906000137329102 79.50199890136719,8.340999603271484z M0,-38.00849914550781 C20.976890563964844,-38.00849914550781 38.00849914550781,-20.976890563964844 38.00849914550781,0 C38.00849914550781,20.976890563964844 20.976890563964844,38.00849914550781 0,38.00849914550781 C-20.976890563964844,38.00849914550781 -38.00849914550781,20.976890563964844 -38.00849914550781,0 C-38.00849914550781,-20.976890563964844 -20.976890563964844,-38.00849914550781 0,-38.00849914550781z"></path></g><g opacity="1" transform="matrix(1,0,0,1,337.0480041503906,295.7170104980469)"><path fill="rgb(255,201,29)" fill-opacity="1" d=" M0,-38.00849914550781 C20.976890563964844,-38.00849914550781 38.00849914550781,-20.976890563964844 38.00849914550781,0 C38.00849914550781,20.976890563964844 20.976890563964844,38.00849914550781 0,38.00849914550781 C-20.976890563964844,38.00849914550781 -38.00849914550781,20.976890563964844 -38.00849914550781,0 C-38.00849914550781,-20.976890563964844 -20.976890563964844,-38.00849914550781 0,-38.00849914550781z"></path></g><g opacity="1" transform="matrix(1,0,0,1,340.8699951171875,299.53900146484375)"><path fill="rgb(255,169,26)" fill-opacity="1" d=" M19.040000915527344,-34.185001373291016 C23.839000701904297,-27.82200050354004 26.684999465942383,-19.906999588012695 26.684999465942383,-11.324000358581543 C26.684999465942383,9.666999816894531 9.668999671936035,26.684999465942383 -11.324000358581543,26.684999465942383 C-19.906999588012695,26.684999465942383 -27.823999404907227,23.839000701904297 -34.185001373291016,19.040000915527344 C-27.246999740600586,28.238000869750977 -16.23200035095215,34.185001373291016 -3.8239998817443848,34.185001373291016 C17.16699981689453,34.185001373291016 34.185001373291016,17.16900062561035 34.185001373291016,-3.8239998817443848 C34.185001373291016,-16.23200035095215 28.238000869750977,-27.246999740600586 19.040000915527344,-34.185001373291016z"></path></g></g></g></svg>