<svg xmlns="http://www.w3.org/2000/svg" version="1.1" xmlns:xlink="http://www.w3.org/1999/xlink"
    xmlns:svgjs="http://svgjs.dev/svgjs" viewBox="0 0 800 800">
    <defs>
        <radialGradient id="cccircular-grad" r="50%" cx="50%" cy="50%">
            <stop offset="0%" stop-color="#251b3e" stop-opacity="0.25"></stop>
            <stop offset="50%" stop-color="rgb(79, 66, 105)" stop-opacity="0.5"></stop>
            <stop offset="100%" stop-color="#7c6d97" stop-opacity="1"></stop>
        </radialGradient>
    </defs>
    <g fill="url(#cccircular-grad)">
        <circle r="10604" cx="400" cy="400" opacity="0.13"></circle>
        <circle r="10483.5" cx="400" cy="400" opacity="0.93"></circle>
        <circle r="10363" cx="400" cy="400" opacity="0.91"></circle>
        <circle r="10242.5" cx="400" cy="400" opacity="0.25"></circle>
        <circle r="10122" cx="400" cy="400" opacity="0.32"></circle>
        <circle r="10001.5" cx="400" cy="400" opacity="0.95"></circle>
        <circle r="9881" cx="400" cy="400" opacity="0.31"></circle>
        <circle r="9760.5" cx="400" cy="400" opacity="0.83"></circle>
        <circle r="9640" cx="400" cy="400" opacity="0.33"></circle>
        <circle r="9519.5" cx="400" cy="400" opacity="0.63"></circle>
        <circle r="9399" cx="400" cy="400" opacity="0.94"></circle>
        <circle r="9278.5" cx="400" cy="400" opacity="0.99"></circle>
        <circle r="9158" cx="400" cy="400" opacity="0.43"></circle>
        <circle r="9037.5" cx="400" cy="400" opacity="0.29"></circle>
        <circle r="8917" cx="400" cy="400" opacity="0.28"></circle>
        <circle r="8796.5" cx="400" cy="400" opacity="0.19"></circle>
        <circle r="8676" cx="400" cy="400" opacity="0.07"></circle>
        <circle r="8555.5" cx="400" cy="400" opacity="0.52"></circle>
        <circle r="8435" cx="400" cy="400" opacity="0.33"></circle>
        <circle r="8314.5" cx="400" cy="400" opacity="0.68"></circle>
        <circle r="8194" cx="400" cy="400" opacity="0.24"></circle>
        <circle r="8073.5" cx="400" cy="400" opacity="0.10"></circle>
        <circle r="7953" cx="400" cy="400" opacity="0.24"></circle>
        <circle r="7832.5" cx="400" cy="400" opacity="0.57"></circle>
        <circle r="7712" cx="400" cy="400" opacity="0.70"></circle>
        <circle r="7591.5" cx="400" cy="400" opacity="0.16"></circle>
        <circle r="7471" cx="400" cy="400" opacity="0.92"></circle>
        <circle r="7350.5" cx="400" cy="400" opacity="0.89"></circle>
        <circle r="7230" cx="400" cy="400" opacity="0.62"></circle>
        <circle r="7109.5" cx="400" cy="400" opacity="0.65"></circle>
        <circle r="6989" cx="400" cy="400" opacity="0.47"></circle>
        <circle r="6868.5" cx="400" cy="400" opacity="0.45"></circle>
        <circle r="6748" cx="400" cy="400" opacity="0.74"></circle>
        <circle r="6627.5" cx="400" cy="400" opacity="0.70"></circle>
        <circle r="6507" cx="400" cy="400" opacity="0.27"></circle>
        <circle r="6386.5" cx="400" cy="400" opacity="0.47"></circle>
        <circle r="6266" cx="400" cy="400" opacity="0.50"></circle>
        <circle r="6145.5" cx="400" cy="400" opacity="0.24"></circle>
        <circle r="6025" cx="400" cy="400" opacity="0.42"></circle>
        <circle r="5904.5" cx="400" cy="400" opacity="0.91"></circle>
        <circle r="5784" cx="400" cy="400" opacity="0.53"></circle>
        <circle r="5663.5" cx="400" cy="400" opacity="0.46"></circle>
        <circle r="5543" cx="400" cy="400" opacity="0.89"></circle>
        <circle r="5422.5" cx="400" cy="400" opacity="0.64"></circle>
        <circle r="5302" cx="400" cy="400" opacity="0.90"></circle>
        <circle r="5181.5" cx="400" cy="400" opacity="0.75"></circle>
        <circle r="5061" cx="400" cy="400" opacity="0.45"></circle>
        <circle r="4940.5" cx="400" cy="400" opacity="0.51"></circle>
        <circle r="4820" cx="400" cy="400" opacity="0.58"></circle>
        <circle r="4699.5" cx="400" cy="400" opacity="0.33"></circle>
        <circle r="4579" cx="400" cy="400" opacity="0.63"></circle>
        <circle r="4458.5" cx="400" cy="400" opacity="0.60"></circle>
        <circle r="4338" cx="400" cy="400" opacity="0.17"></circle>
        <circle r="4217.5" cx="400" cy="400" opacity="0.53"></circle>
        <circle r="4097" cx="400" cy="400" opacity="0.66"></circle>
        <circle r="3976.5" cx="400" cy="400" opacity="1.00"></circle>
        <circle r="3856" cx="400" cy="400" opacity="0.67"></circle>
        <circle r="3735.5" cx="400" cy="400" opacity="0.46"></circle>
        <circle r="3615" cx="400" cy="400" opacity="0.85"></circle>
        <circle r="3494.5" cx="400" cy="400" opacity="0.94"></circle>
        <circle r="3374" cx="400" cy="400" opacity="0.68"></circle>
        <circle r="3253.5" cx="400" cy="400" opacity="0.91"></circle>
        <circle r="3133" cx="400" cy="400" opacity="0.29"></circle>
        <circle r="3012.5" cx="400" cy="400" opacity="0.13"></circle>
        <circle r="2892" cx="400" cy="400" opacity="0.50"></circle>
        <circle r="2771.5" cx="400" cy="400" opacity="0.95"></circle>
        <circle r="2651" cx="400" cy="400" opacity="0.34"></circle>
        <circle r="2530.5" cx="400" cy="400" opacity="0.38"></circle>
        <circle r="2410" cx="400" cy="400" opacity="0.39"></circle>
        <circle r="2289.5" cx="400" cy="400" opacity="0.73"></circle>
        <circle r="2169" cx="400" cy="400" opacity="0.21"></circle>
        <circle r="2048.5" cx="400" cy="400" opacity="0.84"></circle>
        <circle r="1928" cx="400" cy="400" opacity="0.55"></circle>
        <circle r="1807.5" cx="400" cy="400" opacity="0.87"></circle>
        <circle r="1687" cx="400" cy="400" opacity="0.27"></circle>
        <circle r="1566.5" cx="400" cy="400" opacity="0.93"></circle>
        <circle r="1446" cx="400" cy="400" opacity="0.59"></circle>
        <circle r="1325.5" cx="400" cy="400" opacity="0.33"></circle>
        <circle r="1205" cx="400" cy="400" opacity="0.42"></circle>
        <circle r="1084.5" cx="400" cy="400" opacity="0.15"></circle>
        <circle r="964" cx="400" cy="400" opacity="0.78"></circle>
        <circle r="843.5" cx="400" cy="400" opacity="0.84"></circle>
        <circle r="723" cx="400" cy="400" opacity="0.90"></circle>
        <circle r="602.5" cx="400" cy="400" opacity="0.86"></circle>
        <circle r="482" cx="400" cy="400" opacity="0.18"></circle>
        <circle r="361.5" cx="400" cy="400" opacity="0.49"></circle>
        <circle r="241" cx="400" cy="400" opacity="0.10"></circle>
    </g>
</svg>