<svg xmlns="http://www.w3.org/2000/svg" version="1.1" xmlns:xlink="http://www.w3.org/1999/xlink" xmlns:svgjs="http://svgjs.dev/svgjs" width="1065.21" height="470.97"><svg xmlns="http://www.w3.org/2000/svg" version="1.1" style="    fill: transparent;" viewBox="0 0.27 1065.21 470.97">
    <g id="SvgjsG1005"></g>
    <g id="SvgjsG1004">
        <path fill="#ffffff" opacity="1.00" d=" M 715.97 4.04 C 723.85 2.06 732.00 1.70 739.98 0.27 C 744.36 0.22 748.69 1.12 753.07 1.24 C 782.30 3.28 811.35 16.03 830.56 38.51 C 837.31 46.19 842.06 55.30 846.80 64.29 C 859.61 88.58 872.90 112.61 885.78 136.86 C 862.92 166.71 840.70 197.06 818.02 227.06 C 816.91 229.05 815.89 226.60 815.29 225.62 C 799.27 195.41 782.92 165.38 766.75 135.25 C 759.10 121.34 751.88 107.19 744.03 93.41 C 726.44 127.13 709.61 161.25 692.20 195.07 C 672.12 234.70 652.02 274.32 631.86 313.91 C 627.51 322.16 623.64 330.66 619.04 338.78 C 618.92 334.54 619.27 330.31 619.51 326.09 C 620.35 281.49 601.71 237.00 569.40 206.25 C 591.99 161.95 614.44 117.58 637.10 73.32 C 642.82 62.45 647.52 50.91 655.25 41.24 C 670.25 22.16 692.44 9.37 715.97 4.04 Z">
        </path>
        <path fill="#ffffff" opacity="1.00" d=" M 294.55 19.58 C 316.88 9.40 341.52 4.66 366.01 4.90 C 459.09 4.94 552.17 4.84 645.25 4.95 C 630.61 32.67 615.57 60.19 600.83 87.87 C 600.07 89.44 598.99 90.95 597.03 90.56 C 522.68 90.58 448.32 90.55 373.97 90.57 C 356.79 90.79 338.19 94.03 325.09 106.02 C 310.34 119.23 309.79 144.63 323.28 158.90 C 336.36 172.90 356.65 176.83 375.06 176.93 C 396.04 176.93 417.03 176.91 438.01 176.94 C 465.76 177.12 493.81 182.57 518.57 195.41 C 546.92 209.61 570.32 233.48 583.73 262.23 C 600.46 297.60 601.69 339.63 588.27 376.27 C 577.83 405.12 557.52 430.36 531.37 446.45 C 517.22 455.17 501.70 461.68 485.54 465.61 C 468.05 469.90 449.98 471.43 432.00 471.22 C 358.00 471.20 284.00 471.25 210.00 471.20 C 210.01 442.76 209.99 414.33 210.01 385.90 C 281.68 385.77 353.35 385.71 425.02 385.58 C 442.80 385.48 460.75 379.99 474.94 369.14 C 483.63 362.61 490.46 353.61 494.35 343.45 C 500.14 327.36 498.51 308.41 488.72 294.19 C 475.59 274.69 452.05 263.91 428.99 262.72 C 405.69 262.42 382.39 262.84 359.09 262.51 C 323.51 261.59 287.93 249.46 260.35 226.74 C 239.33 209.45 223.10 185.68 217.08 158.94 C 210.87 132.22 214.94 103.30 228.23 79.30 C 242.71 52.58 266.98 31.91 294.55 19.58 Z">
        </path>
        <path fill="#ffffff" opacity="1.00" d=" M 0.00 121.11 C 7.37 130.38 16.11 138.76 26.66 144.31 C 50.23 156.57 75.93 164.20 101.91 169.39 C 130.26 175.07 159.22 177.24 188.10 177.29 C 188.41 205.69 188.21 234.10 188.22 262.51 C 145.37 262.41 102.03 257.12 61.64 242.30 C 45.55 236.33 29.94 228.38 17.12 216.82 C 11.11 211.34 5.62 204.98 2.59 197.34 C 0.62 192.54 0.52 187.29 0.00 182.20 L 0.00 121.11 Z">
        </path>
        <path fill="#ffffff" opacity="1.00" d=" M 0.00 225.25 C 8.17 235.68 18.18 245.04 30.38 250.52 C 51.32 260.81 73.77 267.73 96.56 272.57 C 126.65 279.14 157.49 281.38 188.23 281.77 C 188.25 310.18 188.27 338.59 188.23 367.00 C 148.44 366.53 108.33 362.17 70.39 349.68 C 53.39 343.98 36.60 336.74 22.44 325.56 C 14.61 319.39 7.23 312.09 3.11 302.87 C 0.80 297.93 0.52 292.42 0.00 287.09 L 0.00 225.25 Z">
        </path>
        <path fill="#ffffff" opacity="1.00" d=" M 865.26 317.95 C 888.05 287.35 910.82 256.72 933.76 226.23 C 960.88 276.19 987.73 326.31 1014.78 376.31 C 1031.52 407.59 1048.56 438.71 1065.21 470.03 C 1030.81 470.11 996.42 470.05 962.02 470.06 C 957.07 469.95 952.11 470.34 947.19 469.88 C 932.43 443.46 918.45 416.53 903.91 389.96 C 891.10 365.91 877.96 342.04 865.26 317.95 Z">
        </path>
        <path fill="#ffffff" opacity="1.00" d=" M 0.00 329.45 C 6.64 338.31 14.96 345.81 24.35 351.65 C 45.79 363.18 69.14 370.75 92.83 376.04 C 124.08 383.12 156.20 385.76 188.19 385.95 C 188.24 414.34 188.23 442.74 188.19 471.14 C 147.20 471.16 105.83 466.21 66.88 453.06 C 52.05 447.92 37.54 441.43 24.73 432.28 C 15.69 425.71 7.18 417.61 2.91 407.06 C 0.69 401.90 0.63 396.21 0.00 390.71 L 0.00 329.45 Z">
        </path>
    </g>
    <g id="SvgjsG1003">
        <path fill="#ffffff" opacity="1.00" d=" M 81.01 18.62 C 115.84 8.86 152.13 4.96 188.24 4.95 C 188.24 56.03 188.26 107.10 188.22 158.18 C 162.52 158.30 136.80 156.12 111.50 151.54 C 84.89 146.31 58.21 139.01 34.60 125.32 C 22.00 117.42 9.25 107.89 2.97 93.96 C 0.32 88.74 1.09 82.78 1.03 77.14 C 1.04 73.05 2.70 69.19 4.47 65.58 C 9.35 56.18 17.47 48.95 26.00 42.90 C 42.62 31.44 61.71 24.16 81.01 18.62 Z">
        </path>
        <path fill="#ffffff" opacity="1.00" d=" M 893.28 151.94 C 906.79 152.21 920.25 153.76 933.76 154.15 C 934.93 155.23 935.19 156.85 935.66 158.30 C 938.24 167.95 940.82 177.60 943.44 187.25 C 901.67 244.13 859.05 300.38 816.87 356.95 C 802.48 376.49 787.82 395.83 773.14 415.14 C 769.90 419.49 764.09 420.64 758.98 420.54 C 754.43 420.38 749.38 419.29 746.33 415.63 C 734.93 401.34 723.87 386.76 712.23 372.66 C 688.67 404.61 664.93 436.43 641.34 468.36 C 640.23 469.75 639.14 471.65 637.04 471.16 C 612.41 471.13 587.78 471.23 563.15 471.10 C 606.79 411.76 650.93 352.77 694.70 293.53 C 696.85 290.42 699.24 287.07 703.05 285.92 C 708.41 284.20 714.49 284.18 719.75 286.29 C 723.17 287.60 725.30 290.71 727.46 293.49 C 737.79 306.69 748.16 319.87 758.58 333.00 C 803.41 272.59 848.33 212.25 893.28 151.94 Z">
        </path>
    </g>
</svg><style>@media (prefers-color-scheme: light) { :root { filter: contrast(1) brightness(0.1); } }
@media (prefers-color-scheme: dark) { :root { filter: none; } }
</style></svg>