<?xml version="1.0" encoding="UTF-8" ?>
<!DOCTYPE svg PUBLIC "-//W3C//DTD SVG 1.1//EN" "http://www.w3.org/Graphics/SVG/1.1/DTD/svg11.dtd">
<svg width="1066pt" height="632pt" viewBox="0 0 1066 632" version="1.1" xmlns="http://www.w3.org/2000/svg">
<g id="#ffffffff">
<path fill="#ffffff" opacity="1.00" d=" M 998.43 21.60 C 1008.56 19.39 1019.65 20.95 1028.36 26.72 C 1037.32 32.25 1043.80 41.61 1045.90 51.92 C 1048.17 62.17 1045.92 73.30 1040.02 81.97 C 1034.43 90.35 1025.47 96.43 1015.62 98.52 C 1006.67 100.29 997.04 99.24 988.99 94.84 C 979.62 89.94 972.40 81.12 969.49 70.95 C 966.57 60.81 967.83 49.47 973.20 40.35 C 978.55 30.98 987.92 24.02 998.43 21.60 M 985.65 30.99 C 985.74 49.57 985.33 68.18 985.86 86.75 C 989.55 86.72 993.25 86.71 996.96 86.77 C 997.16 79.04 997.01 71.30 997.06 63.57 C 999.84 63.69 1002.76 63.51 1005.42 64.53 C 1009.02 66.54 1011.03 70.33 1013.27 73.63 C 1016.16 77.87 1018.76 82.32 1021.90 86.38 C 1026.32 87.21 1030.91 86.55 1035.40 86.66 C 1033.08 81.83 1029.96 77.46 1027.14 72.93 C 1024.52 68.79 1021.42 64.84 1017.14 62.32 C 1020.32 61.40 1023.66 60.50 1026.22 58.28 C 1032.99 52.44 1032.65 40.71 1026.09 34.84 C 1022.18 31.62 1016.85 31.23 1012.00 31.02 C 1003.22 30.93 994.43 31.03 985.65 30.99 Z" />
<path fill="#ffffff" opacity="1.00" d=" M 997.05 41.02 C 1003.01 41.15 1009.02 40.66 1014.97 41.23 C 1020.65 42.63 1020.60 52.38 1014.93 53.78 C 1009.02 54.71 1003.01 54.34 997.06 54.33 C 997.05 49.89 997.05 45.45 997.05 41.02 Z" />
<path fill="#ffffff" opacity="1.00" d=" M 332.40 516.71 C 337.63 522.33 338.66 530.32 337.77 537.67 C 330.81 537.54 323.80 538.10 316.88 537.45 C 316.59 536.98 316.00 536.05 315.71 535.59 C 321.05 533.90 326.81 531.90 330.20 527.13 C 332.41 524.12 332.15 520.23 332.40 516.71 Z" />
<path fill="#ffffff" opacity="1.00" d=" M 101.35 527.20 C 103.23 522.72 108.83 522.48 112.97 521.86 C 113.02 527.15 113.03 532.46 112.93 537.76 C 108.98 537.69 105.04 537.68 101.09 537.74 C 101.07 534.23 100.64 530.66 101.35 527.20 Z" />
<path fill="#ffffff" opacity="1.00" d=" M 303.47 522.44 C 306.74 521.83 310.83 522.25 312.73 525.36 C 313.56 527.94 312.99 531.00 310.80 532.76 C 307.36 535.71 302.77 538.02 298.14 537.47 C 295.48 537.22 293.75 534.48 294.17 531.95 C 294.80 527.24 298.94 523.43 303.47 522.44 Z" />
<path fill="#ffffff" opacity="1.00" d=" M 137.13 599.12 C 138.94 598.74 141.79 598.58 142.02 601.07 C 145.08 605.54 135.15 607.81 135.11 603.00 C 135.11 601.55 135.69 599.69 137.13 599.12 Z" />
<path fill="#ffffff" opacity="1.00" d=" M 847.46 600.51 C 848.62 599.59 850.17 598.68 851.70 599.28 C 853.95 601.77 854.57 605.79 852.73 608.69 C 848.80 609.33 844.80 608.95 840.86 608.93 C 842.78 605.93 844.64 602.77 847.46 600.51 Z" />
<path fill="#ffffff" opacity="1.00" d=" M 967.10 599.24 C 969.12 598.56 971.82 599.07 972.67 601.27 C 973.22 603.35 973.21 605.62 972.67 607.72 C 971.29 611.02 965.42 610.71 964.75 607.05 C 964.08 604.43 964.17 600.42 967.10 599.24 Z" />
<path fill="#ffffff" opacity="1.00" d=" M 1003.32 599.36 C 1005.48 598.45 1009.59 598.57 1009.05 601.94 C 1009.55 606.40 1004.97 609.09 1001.06 609.26 C 1001.25 605.95 1000.27 601.67 1003.32 599.36 Z" />
<path fill="#ffffff" opacity="1.00" d=" M 300.53 605.65 C 302.46 607.69 305.86 609.62 304.88 612.93 C 303.89 616.51 298.09 616.26 297.06 612.98 C 296.20 609.91 298.86 607.76 300.53 605.65 Z" />
<path fill="#ffffff" opacity="1.00" d=" M 355.30 606.35 C 357.12 605.57 360.34 605.59 360.84 608.03 C 361.05 610.43 361.87 614.19 358.95 615.29 C 357.03 615.63 354.13 615.36 353.89 612.93 C 353.45 610.75 353.37 607.86 355.30 606.35 Z" />
<path fill="#ffffff" opacity="1.00" d=" M 41.14 613.06 C 41.55 610.66 41.96 607.31 45.00 607.01 C 49.12 606.03 52.00 612.03 48.64 614.58 C 46.16 616.82 43.21 614.71 41.14 613.06 Z" />
<path fill="#ffffff" opacity="1.00" d=" M 1001.19 614.16 C 1004.30 614.74 1007.87 615.44 1009.70 618.36 C 1010.17 619.89 1010.44 622.03 1009.12 623.25 C 1007.09 623.98 1004.30 623.98 1002.99 621.99 C 1001.47 619.69 1001.57 616.77 1001.19 614.16 Z" />
</g>
<g id="#828387ff">
<path fill="#828387" opacity="1.00" d=" M 715.97 4.04 C 723.85 2.06 732.00 1.70 739.98 0.27 C 744.36 0.22 748.69 1.12 753.07 1.24 C 782.30 3.28 811.35 16.03 830.56 38.51 C 837.31 46.19 842.06 55.30 846.80 64.29 C 859.61 88.58 872.90 112.61 885.78 136.86 C 862.92 166.71 840.70 197.06 818.02 227.06 C 816.91 229.05 815.89 226.60 815.29 225.62 C 799.27 195.41 782.92 165.38 766.75 135.25 C 759.10 121.34 751.88 107.19 744.03 93.41 C 726.44 127.13 709.61 161.25 692.20 195.07 C 672.12 234.70 652.02 274.32 631.86 313.91 C 627.51 322.16 623.64 330.66 619.04 338.78 C 618.92 334.54 619.27 330.31 619.51 326.09 C 620.35 281.49 601.71 237.00 569.40 206.25 C 591.99 161.95 614.44 117.58 637.10 73.32 C 642.82 62.45 647.52 50.91 655.25 41.24 C 670.25 22.16 692.44 9.37 715.97 4.04 Z" />
<path fill="#828387" opacity="1.00" d=" M 294.55 19.58 C 316.88 9.40 341.52 4.66 366.01 4.90 C 459.09 4.94 552.17 4.84 645.25 4.95 C 630.61 32.67 615.57 60.19 600.83 87.87 C 600.07 89.44 598.99 90.95 597.03 90.56 C 522.68 90.58 448.32 90.55 373.97 90.57 C 356.79 90.79 338.19 94.03 325.09 106.02 C 310.34 119.23 309.79 144.63 323.28 158.90 C 336.36 172.90 356.65 176.83 375.06 176.93 C 396.04 176.93 417.03 176.91 438.01 176.94 C 465.76 177.12 493.81 182.57 518.57 195.41 C 546.92 209.61 570.32 233.48 583.73 262.23 C 600.46 297.60 601.69 339.63 588.27 376.27 C 577.83 405.12 557.52 430.36 531.37 446.45 C 517.22 455.17 501.70 461.68 485.54 465.61 C 468.05 469.90 449.98 471.43 432.00 471.22 C 358.00 471.20 284.00 471.25 210.00 471.20 C 210.01 442.76 209.99 414.33 210.01 385.90 C 281.68 385.77 353.35 385.71 425.02 385.58 C 442.80 385.48 460.75 379.99 474.94 369.14 C 483.63 362.61 490.46 353.61 494.35 343.45 C 500.14 327.36 498.51 308.41 488.72 294.19 C 475.59 274.69 452.05 263.91 428.99 262.72 C 405.69 262.42 382.39 262.84 359.09 262.51 C 323.51 261.59 287.93 249.46 260.35 226.74 C 239.33 209.45 223.10 185.68 217.08 158.94 C 210.87 132.22 214.94 103.30 228.23 79.30 C 242.71 52.58 266.98 31.91 294.55 19.58 Z" />
<path fill="#828387" opacity="1.00" d=" M 998.19 13.28 C 1008.18 11.39 1018.80 12.62 1027.98 17.08 C 1041.35 23.45 1051.42 36.41 1054.07 51.01 C 1056.60 63.48 1053.68 76.94 1046.30 87.30 C 1038.31 98.83 1024.97 106.55 1010.94 107.40 C 996.74 108.62 982.20 102.95 972.58 92.45 C 962.49 81.91 957.99 66.58 960.38 52.22 C 963.30 33.07 979.13 16.75 998.19 13.28 M 998.43 21.60 C 987.92 24.02 978.55 30.98 973.20 40.35 C 967.83 49.47 966.57 60.81 969.49 70.95 C 972.40 81.12 979.62 89.94 988.99 94.84 C 997.04 99.24 1006.67 100.29 1015.62 98.52 C 1025.47 96.43 1034.43 90.35 1040.02 81.97 C 1045.92 73.30 1048.17 62.17 1045.90 51.92 C 1043.80 41.61 1037.32 32.25 1028.36 26.72 C 1019.65 20.95 1008.56 19.39 998.43 21.60 Z" />
<path fill="#828387" opacity="1.00" d=" M 985.65 30.99 C 994.43 31.03 1003.22 30.93 1012.00 31.02 C 1016.85 31.23 1022.18 31.62 1026.09 34.84 C 1032.65 40.71 1032.99 52.44 1026.22 58.28 C 1023.66 60.50 1020.32 61.40 1017.14 62.32 C 1021.42 64.84 1024.52 68.79 1027.14 72.93 C 1029.96 77.46 1033.08 81.83 1035.40 86.66 C 1030.91 86.55 1026.32 87.21 1021.90 86.38 C 1018.76 82.32 1016.16 77.87 1013.27 73.63 C 1011.03 70.33 1009.02 66.54 1005.42 64.53 C 1002.76 63.51 999.84 63.69 997.06 63.57 C 997.01 71.30 997.16 79.04 996.96 86.77 C 993.25 86.71 989.55 86.72 985.86 86.75 C 985.33 68.18 985.74 49.57 985.65 30.99 M 997.05 41.02 C 997.05 45.45 997.05 49.89 997.06 54.33 C 1003.01 54.34 1009.02 54.71 1014.93 53.78 C 1020.60 52.38 1020.65 42.63 1014.97 41.23 C 1009.02 40.66 1003.01 41.15 997.05 41.02 Z" />
<path fill="#828387" opacity="1.00" d=" M 0.00 121.11 C 7.37 130.38 16.11 138.76 26.66 144.31 C 50.23 156.57 75.93 164.20 101.91 169.39 C 130.26 175.07 159.22 177.24 188.10 177.29 C 188.41 205.69 188.21 234.10 188.22 262.51 C 145.37 262.41 102.03 257.12 61.64 242.30 C 45.55 236.33 29.94 228.38 17.12 216.82 C 11.11 211.34 5.62 204.98 2.59 197.34 C 0.62 192.54 0.52 187.29 0.00 182.20 L 0.00 121.11 Z" />
<path fill="#828387" opacity="1.00" d=" M 0.00 225.25 C 8.17 235.68 18.18 245.04 30.38 250.52 C 51.32 260.81 73.77 267.73 96.56 272.57 C 126.65 279.14 157.49 281.38 188.23 281.77 C 188.25 310.18 188.27 338.59 188.23 367.00 C 148.44 366.53 108.33 362.17 70.39 349.68 C 53.39 343.98 36.60 336.74 22.44 325.56 C 14.61 319.39 7.23 312.09 3.11 302.87 C 0.80 297.93 0.52 292.42 0.00 287.09 L 0.00 225.25 Z" />
<path fill="#828387" opacity="1.00" d=" M 865.26 317.95 C 888.05 287.35 910.82 256.72 933.76 226.23 C 960.88 276.19 987.73 326.31 1014.78 376.31 C 1031.52 407.59 1048.56 438.71 1065.21 470.03 C 1030.81 470.11 996.42 470.05 962.02 470.06 C 957.07 469.95 952.11 470.34 947.19 469.88 C 932.43 443.46 918.45 416.53 903.91 389.96 C 891.10 365.91 877.96 342.04 865.26 317.95 Z" />
<path fill="#828387" opacity="1.00" d=" M 0.00 329.45 C 6.64 338.31 14.96 345.81 24.35 351.65 C 45.79 363.18 69.14 370.75 92.83 376.04 C 124.08 383.12 156.20 385.76 188.19 385.95 C 188.24 414.34 188.23 442.74 188.19 471.14 C 147.20 471.16 105.83 466.21 66.88 453.06 C 52.05 447.92 37.54 441.43 24.73 432.28 C 15.69 425.71 7.18 417.61 2.91 407.06 C 0.69 401.90 0.63 396.21 0.00 390.71 L 0.00 329.45 Z" />
<path fill="#828387" opacity="1.00" d=" M 150.25 487.36 C 156.23 485.13 163.26 490.65 162.18 497.02 C 161.68 503.66 153.00 507.44 147.80 503.23 C 141.84 499.39 143.37 489.20 150.25 487.36 Z" />
<path fill="#828387" opacity="1.00" d=" M 173.25 487.32 C 179.62 485.02 186.75 491.45 184.89 498.03 C 183.63 504.77 174.15 507.37 169.55 502.35 C 164.68 497.96 166.93 488.99 173.25 487.32 Z" />
<path fill="#828387" opacity="1.00" d=" M 196.24 487.28 C 202.87 484.96 210.07 492.06 207.54 498.69 C 205.73 505.16 196.36 507.22 192.09 501.98 C 187.56 497.42 190.04 488.84 196.24 487.28 Z" />
<path fill="#828387" opacity="1.00" d=" M 62.41 490.47 C 68.17 487.77 75.80 492.42 75.22 498.96 C 75.50 505.96 66.28 510.37 60.92 505.94 C 55.11 502.42 56.19 492.92 62.41 490.47 Z" />
<path fill="#828387" opacity="1.00" d=" M 452.36 490.42 C 458.13 487.72 465.56 492.57 465.09 498.99 C 465.18 505.82 456.43 510.22 450.96 506.19 C 444.98 502.67 445.94 492.88 452.36 490.42 Z" />
<path fill="#828387" opacity="1.00" d=" M 477.94 494.13 C 483.97 493.46 489.95 492.49 495.98 491.84 C 496.06 507.13 495.92 522.41 496.05 537.70 C 499.63 537.65 503.22 537.83 506.80 537.59 C 507.83 534.18 507.53 530.44 508.98 527.13 C 511.85 519.57 519.40 514.81 527.00 513.08 C 532.66 512.40 538.41 512.43 544.09 512.86 C 548.49 513.25 550.97 517.94 550.58 522.01 C 550.26 528.28 551.35 534.75 549.81 540.90 C 545.12 550.28 533.72 552.94 524.05 552.01 C 524.06 547.24 524.06 542.47 524.05 537.71 C 526.91 537.70 529.78 537.70 532.64 537.69 C 532.71 532.44 532.69 527.19 532.69 521.95 C 529.06 522.32 524.98 522.57 522.18 525.20 C 520.22 527.27 520.04 530.30 519.98 532.99 C 519.97 539.33 520.02 545.66 520.00 552.00 C 512.98 551.96 505.96 552.07 498.95 551.97 C 493.84 551.84 488.48 550.86 484.44 547.52 C 481.14 544.95 477.76 541.46 477.96 536.95 C 477.89 522.68 477.95 508.40 477.94 494.13 Z" />
<path fill="#828387" opacity="1.00" d=" M 562.00 494.13 C 568.01 493.44 574.01 492.61 580.01 491.84 C 580.09 507.13 579.91 522.43 580.10 537.72 C 583.94 537.68 587.78 537.68 591.63 537.64 C 591.70 529.30 591.64 520.96 591.66 512.63 C 597.52 511.73 603.40 510.90 609.32 510.46 C 609.45 519.61 609.42 528.77 609.33 537.92 C 612.21 537.98 615.10 538.00 618.00 538.02 C 617.99 529.55 618.03 521.07 617.97 512.60 C 623.98 511.74 630.00 510.98 636.05 510.39 C 636.08 519.59 636.07 528.79 636.05 538.00 C 638.96 538.00 641.87 537.98 644.79 537.95 C 644.85 529.42 644.40 520.87 645.05 512.37 C 650.94 512.00 656.74 510.59 662.67 510.72 C 662.59 518.46 662.63 526.20 662.66 533.95 C 662.62 536.50 662.67 539.19 661.57 541.57 C 657.79 548.03 650.46 551.86 643.04 551.92 C 624.70 552.13 606.35 551.91 588.01 552.02 C 582.71 552.02 577.14 552.10 572.26 549.76 C 567.13 547.02 561.83 542.35 562.04 536.02 C 561.93 522.06 562.04 508.09 562.00 494.13 Z" />
<path fill="#828387" opacity="1.00" d=" M 780.54 494.12 C 786.43 493.40 792.31 492.63 798.19 491.84 C 798.29 507.11 798.13 522.38 798.28 537.66 C 802.13 537.68 806.00 537.68 809.87 537.71 C 810.12 529.27 809.65 520.82 810.16 512.38 C 816.10 511.83 822.01 511.04 827.92 510.22 C 828.09 519.47 827.96 528.73 828.00 537.99 C 835.56 537.95 843.13 538.12 850.69 537.88 C 850.67 529.60 850.37 521.29 850.78 513.02 C 856.25 511.10 862.48 511.26 868.27 510.47 C 868.37 519.63 868.35 528.78 868.29 537.94 C 871.18 537.98 874.08 538.00 876.99 538.02 C 877.08 529.49 876.83 520.95 877.14 512.42 C 883.12 511.87 889.05 510.94 895.03 510.39 C 895.04 519.60 895.02 528.81 895.03 538.02 C 897.94 538.01 900.85 537.98 903.76 537.91 C 903.74 529.41 903.47 520.90 903.92 512.42 C 909.66 511.99 915.32 510.76 921.09 510.57 C 922.23 518.61 921.23 526.92 921.58 535.07 C 922.00 541.36 918.66 548.04 912.69 550.52 C 906.97 552.22 900.90 551.97 895.01 552.01 C 865.64 551.99 836.29 551.99 806.93 552.01 C 801.30 551.99 795.56 552.17 790.08 550.73 C 784.14 548.60 780.22 542.25 780.50 536.01 C 780.51 522.04 780.46 508.08 780.54 494.12 Z" />
<path fill="#828387" opacity="1.00" d=" M 933.00 494.14 C 939.01 493.48 945.00 492.63 951.00 491.85 C 951.10 507.15 950.88 522.46 951.11 537.77 C 964.04 537.71 976.98 537.66 989.91 537.79 C 988.09 533.59 990.02 528.08 986.29 524.76 C 984.66 523.06 982.35 522.13 980.02 522.15 C 973.58 521.98 967.14 522.19 960.70 522.09 C 960.67 518.95 960.68 515.82 960.72 512.69 C 969.81 512.65 978.89 512.57 987.98 512.70 C 995.47 512.67 1002.84 517.63 1005.33 524.74 C 1006.60 528.55 1004.99 533.64 1008.80 536.30 C 1012.82 538.30 1017.49 537.92 1021.86 538.04 C 1021.55 529.74 1025.00 520.86 1032.62 516.78 C 1040.04 511.65 1049.38 512.50 1057.92 512.76 C 1062.77 512.77 1065.32 517.74 1065.89 521.94 C 1066.15 528.92 1066.35 536.13 1063.85 542.77 C 1062.21 546.21 1059.41 549.32 1055.78 550.67 C 1050.01 552.23 1043.97 551.57 1038.07 551.77 C 1037.97 547.09 1037.98 542.41 1038.01 537.73 C 1040.98 537.72 1043.96 537.73 1046.95 537.76 C 1047.02 532.46 1047.02 527.17 1046.97 521.88 C 1042.67 522.44 1036.45 522.92 1035.26 528.06 C 1034.71 535.94 1035.32 543.86 1034.97 551.76 C 1005.87 551.57 976.76 551.97 947.67 551.56 C 939.41 551.85 932.92 543.97 933.04 536.06 C 932.93 522.09 933.04 508.12 933.00 494.14 Z" />
<path fill="#828387" opacity="1.00" d=" M 313.95 503.21 C 323.04 503.67 332.49 504.79 340.38 509.70 C 348.74 514.66 353.93 523.75 355.47 533.20 C 357.05 539.84 353.35 547.16 347.33 550.23 C 344.43 551.45 341.20 551.54 338.10 551.69 C 315.91 551.86 293.72 551.49 271.55 551.87 C 271.41 558.48 268.05 564.84 262.48 568.45 C 252.33 575.02 239.81 576.20 228.01 576.16 C 228.00 573.69 227.99 571.24 227.99 568.79 C 235.38 568.85 243.39 568.02 249.46 563.40 C 252.98 560.72 253.76 556.11 253.70 551.95 C 253.64 541.75 253.90 531.55 253.55 521.35 C 250.50 523.23 246.91 524.80 245.18 528.14 C 243.42 531.00 243.12 534.40 243.01 537.67 C 245.59 537.74 248.17 537.80 250.76 537.93 C 250.40 542.35 251.41 547.05 250.22 551.30 C 246.92 552.22 243.35 551.55 239.96 551.74 C 235.37 551.77 229.53 551.67 226.98 547.11 C 223.11 540.28 225.94 531.99 229.86 525.86 C 234.35 518.03 243.08 512.98 252.06 512.73 C 256.02 512.59 260.00 512.47 263.95 512.81 C 267.65 513.09 270.95 516.33 271.24 520.05 C 271.82 525.80 271.01 531.60 271.58 537.35 C 275.28 538.18 279.12 537.59 282.88 537.76 C 281.59 530.03 287.02 523.37 292.92 519.17 C 299.02 515.29 306.18 512.97 313.42 512.77 C 313.75 509.59 313.86 506.40 313.95 503.21 M 332.40 516.71 C 332.15 520.23 332.41 524.12 330.20 527.13 C 326.81 531.90 321.05 533.90 315.71 535.59 C 316.00 536.05 316.59 536.98 316.88 537.45 C 323.80 538.10 330.81 537.54 337.77 537.67 C 338.66 530.32 337.63 522.33 332.40 516.71 M 303.47 522.44 C 298.94 523.43 294.80 527.24 294.17 531.95 C 293.75 534.48 295.48 537.22 298.14 537.47 C 302.77 538.02 307.36 535.71 310.80 532.76 C 312.99 531.00 313.56 527.94 312.73 525.36 C 310.83 522.25 306.74 521.83 303.47 522.44 Z" />
<path fill="#828387" opacity="1.00" d=" M 6.01 508.86 C 15.31 508.55 25.22 509.52 33.15 514.81 C 40.74 520.11 45.25 528.88 47.00 537.81 C 50.73 537.77 54.47 537.73 58.20 537.74 C 58.59 529.31 58.30 520.86 58.38 512.42 C 64.31 511.87 70.20 510.90 76.14 510.44 C 76.23 519.52 76.07 528.60 76.24 537.68 C 80.07 537.68 83.90 537.67 87.74 537.70 C 87.39 529.41 91.03 520.73 98.57 516.70 C 106.06 511.62 115.42 512.43 123.99 512.74 C 127.70 512.89 130.88 516.29 130.96 519.98 C 131.24 525.89 130.92 531.81 131.09 537.73 C 134.95 537.67 138.81 537.68 142.67 537.64 C 142.91 529.41 142.38 521.16 142.92 512.95 C 148.38 511.15 154.61 511.29 160.39 510.48 C 160.49 519.62 160.50 528.75 160.37 537.89 C 163.24 537.97 166.12 538.01 169.00 538.03 C 169.08 529.50 168.83 520.96 169.15 512.43 C 175.13 511.86 181.08 510.95 187.07 510.39 C 187.11 519.59 187.10 528.78 187.07 537.98 C 189.98 537.99 192.90 537.99 195.82 537.97 C 195.75 529.51 195.81 521.06 195.78 512.62 C 201.74 511.84 207.69 510.69 213.73 510.70 C 213.57 519.71 213.91 528.74 213.58 537.75 C 213.42 542.12 210.03 545.32 206.81 547.83 C 202.64 551.11 197.16 551.89 192.00 552.00 C 130.00 552.00 68.00 552.01 6.00 551.99 C 6.00 547.23 6.00 542.46 6.00 537.70 C 11.55 537.57 17.12 537.93 22.67 537.47 C 24.54 537.17 26.91 536.68 27.64 534.67 C 28.27 530.41 26.32 525.62 22.40 523.57 C 17.44 520.86 11.63 520.91 6.15 520.41 C 5.97 516.56 5.96 512.71 6.01 508.86 M 101.35 527.20 C 100.64 530.66 101.07 534.23 101.09 537.74 C 105.04 537.68 108.98 537.69 112.93 537.76 C 113.03 532.46 113.02 527.15 112.97 521.86 C 108.83 522.48 103.23 522.72 101.35 527.20 Z" />
<path fill="#828387" opacity="1.00" d=" M 394.99 532.03 C 396.09 521.49 406.13 514.10 416.10 512.82 C 421.04 512.48 426.03 512.46 430.98 512.77 C 435.06 513.01 437.96 517.03 437.94 520.94 C 438.16 526.52 437.89 532.12 438.05 537.72 C 441.49 537.63 444.99 538.04 448.39 537.36 C 448.78 529.14 448.31 520.89 448.60 512.66 C 454.47 512.59 460.34 512.58 466.21 512.66 C 466.25 520.10 466.22 527.54 466.26 534.99 C 466.17 537.34 466.28 539.90 464.94 541.97 C 461.15 548.00 454.19 551.71 447.11 551.86 C 438.16 552.16 429.21 551.98 420.26 551.93 C 420.65 541.90 419.79 531.89 419.93 521.87 C 416.46 522.34 412.61 522.54 409.78 524.86 C 407.36 526.68 407.73 530.16 408.32 532.77 C 409.64 536.10 413.53 536.72 416.52 537.76 C 416.50 542.52 416.51 547.28 416.46 552.04 C 410.09 552.16 402.59 552.15 397.99 547.00 C 394.00 543.12 394.72 537.07 394.99 532.03 Z" />
<path fill="#828387" opacity="1.00" d=" M 752.59 512.70 C 758.45 512.59 764.31 512.63 770.18 512.67 C 770.26 528.10 770.15 543.54 770.24 558.98 C 770.21 562.23 770.31 565.70 768.64 568.61 C 765.36 574.53 758.74 578.47 751.94 578.29 C 741.64 578.44 731.32 578.46 721.01 578.30 C 711.44 578.25 702.14 571.36 700.37 561.76 C 698.05 548.81 701.15 533.99 710.83 524.65 C 716.16 523.96 721.58 524.66 726.95 524.27 C 721.48 530.24 717.07 537.74 716.97 546.05 C 716.50 551.92 717.94 558.29 722.35 562.46 C 723.77 563.12 725.44 562.79 726.99 562.92 C 735.50 562.79 744.03 563.00 752.55 562.78 C 752.55 546.08 752.47 529.39 752.59 512.70 Z" />
<path fill="#828387" opacity="1.00" d=" M 733.17 532.26 C 739.55 529.99 746.70 536.47 744.74 543.03 C 743.36 549.58 734.18 552.32 729.56 547.40 C 724.56 543.03 726.75 533.93 733.17 532.26 Z" />
<path fill="#828387" opacity="1.00" d=" M 807.19 559.33 C 812.60 557.18 819.31 561.09 819.54 567.04 C 820.45 574.06 811.35 579.65 805.65 575.27 C 799.33 571.92 800.43 561.48 807.19 559.33 Z" />
<path fill="#828387" opacity="1.00" d=" M 887.21 581.31 C 889.39 580.41 893.22 581.00 893.22 583.99 C 893.72 587.55 889.15 589.23 886.55 587.46 C 884.69 585.88 884.62 582.17 887.21 581.31 Z" />
<path fill="#828387" opacity="1.00" d=" M 864.00 581.70 C 865.89 581.76 867.78 581.85 869.68 581.97 C 869.66 589.65 869.52 597.33 869.69 605.01 C 869.83 606.47 869.78 609.13 871.95 608.94 C 877.53 609.20 883.46 609.18 888.55 606.55 C 891.58 605.02 894.50 603.28 897.40 601.53 C 896.04 600.59 894.84 599.10 893.06 599.10 C 888.72 598.86 884.37 599.14 880.04 599.06 C 879.87 597.25 879.71 595.44 879.58 593.64 C 885.37 593.66 891.25 593.19 897.00 594.15 C 901.65 595.29 903.56 600.38 903.19 604.75 C 897.62 607.59 892.49 611.34 886.61 613.51 C 880.03 615.04 872.62 616.09 866.45 612.64 C 863.97 610.99 863.98 607.70 863.96 605.06 C 863.99 597.27 863.97 589.48 864.00 581.70 Z" />
<path fill="#828387" opacity="1.00" d=" M 983.00 581.78 C 984.98 581.76 986.98 581.75 988.99 581.75 C 989.32 590.65 988.35 599.66 989.48 608.49 C 991.50 609.26 993.73 608.93 995.86 609.04 C 995.85 605.29 994.96 601.22 996.71 597.73 C 999.35 593.10 1005.86 593.01 1010.28 594.67 C 1015.69 597.39 1015.16 604.73 1012.01 609.01 C 1015.90 608.92 1019.83 609.27 1023.72 608.78 C 1026.23 605.94 1024.54 601.43 1025.00 597.93 C 1026.87 597.98 1028.74 598.03 1030.63 598.09 C 1030.64 601.37 1030.19 604.75 1031.05 607.97 C 1032.34 610.09 1035.26 610.46 1037.41 609.51 C 1039.10 605.98 1038.05 601.84 1038.25 598.07 C 1040.16 598.01 1042.07 597.97 1044.00 597.94 C 1044.63 601.73 1042.13 607.48 1046.40 609.65 C 1048.18 610.42 1051.31 610.14 1051.52 607.71 C 1051.89 604.47 1051.66 601.20 1051.69 597.96 C 1053.47 597.96 1055.27 597.98 1057.07 598.01 C 1056.72 603.13 1058.49 609.39 1054.50 613.49 C 1051.05 616.70 1045.62 615.18 1042.48 612.28 C 1040.50 613.57 1038.55 615.46 1035.99 615.13 C 1033.11 615.47 1031.00 613.23 1028.88 611.71 C 1024.28 615.97 1017.87 615.03 1012.15 614.98 C 1013.46 617.11 1015.05 619.30 1015.02 621.93 C 1015.33 624.92 1013.06 627.90 1010.04 628.21 C 1005.73 628.97 1000.13 628.49 997.79 624.22 C 996.57 621.37 996.50 618.20 995.94 615.19 C 992.35 614.80 988.51 614.50 985.41 612.48 C 983.18 610.75 983.09 607.62 983.00 605.06 C 982.96 597.30 983.03 589.54 983.00 581.78 M 1003.32 599.36 C 1000.27 601.67 1001.25 605.95 1001.06 609.26 C 1004.97 609.09 1009.55 606.40 1009.05 601.94 C 1009.59 598.57 1005.48 598.45 1003.32 599.36 M 1001.19 614.16 C 1001.57 616.77 1001.47 619.69 1002.99 621.99 C 1004.30 623.98 1007.09 623.98 1009.12 623.25 C 1010.44 622.03 1010.17 619.89 1009.70 618.36 C 1007.87 615.44 1004.30 614.74 1001.19 614.16 Z" />
<path fill="#828387" opacity="1.00" d=" M 268.11 590.18 C 270.11 590.10 272.11 590.07 274.11 590.09 C 274.32 592.42 274.46 595.95 271.06 595.49 C 267.95 595.62 267.77 592.45 268.11 590.18 Z" />
<path fill="#828387" opacity="1.00" d=" M 336.98 590.17 C 338.41 590.37 339.88 590.44 341.30 590.79 C 342.51 598.35 340.80 606.18 342.13 613.76 C 343.81 615.49 346.47 614.77 348.59 614.55 C 349.34 611.04 348.85 607.08 351.07 604.04 C 353.82 600.14 360.42 599.74 363.41 603.57 C 366.00 606.61 365.63 610.86 366.50 614.52 C 368.93 615.24 371.52 615.03 374.01 614.80 C 375.37 614.94 376.30 613.88 376.47 612.61 C 376.81 610.08 376.65 607.52 376.68 604.98 C 378.24 604.95 379.81 604.93 381.37 604.91 C 381.46 607.66 381.18 610.47 381.73 613.19 C 382.44 615.96 385.92 615.44 388.08 615.17 C 388.27 611.80 388.31 608.43 388.27 605.07 C 389.89 605.00 391.52 604.94 393.15 604.90 C 393.63 608.17 391.72 612.94 395.24 614.95 C 396.62 615.83 398.34 615.11 399.86 615.14 C 399.99 611.74 400.02 608.33 400.03 604.93 C 401.69 604.94 403.35 604.94 405.01 604.96 C 404.77 609.71 406.37 615.73 402.14 619.20 C 398.89 621.32 394.82 619.86 391.96 617.77 C 389.44 619.66 385.79 621.38 382.92 619.18 C 381.58 618.62 380.27 616.45 378.81 617.86 C 374.47 620.88 368.37 620.87 363.93 618.07 C 360.43 621.01 355.34 620.96 351.80 618.12 C 347.61 620.40 342.29 620.50 338.37 617.60 C 336.45 615.98 336.82 613.25 336.68 611.02 C 336.82 604.07 336.44 597.10 336.98 590.17 M 355.30 606.35 C 353.37 607.86 353.45 610.75 353.89 612.93 C 354.13 615.36 357.03 615.63 358.95 615.29 C 361.87 614.19 361.05 610.43 360.84 608.03 C 360.34 605.59 357.12 605.57 355.30 606.35 Z" />
<path fill="#828387" opacity="1.00" d=" M 387.10 590.13 C 389.02 590.10 390.96 590.11 392.89 590.17 C 392.77 591.60 393.24 593.19 392.56 594.54 C 390.96 595.85 388.92 595.11 387.13 594.80 C 387.10 593.24 387.09 591.68 387.10 590.13 Z" />
<path fill="#828387" opacity="1.00" d=" M 9.20 595.16 C 12.12 593.34 15.77 594.08 18.70 595.46 C 19.28 596.97 18.44 598.49 18.14 599.97 C 15.92 599.82 13.15 598.36 11.32 600.27 C 9.28 601.59 9.53 605.51 12.04 606.13 C 15.10 607.05 18.11 605.33 20.92 604.34 C 22.01 605.36 23.09 606.39 24.17 607.43 C 18.47 612.88 14.00 619.41 9.82 626.04 C 8.30 625.41 6.43 624.77 5.85 623.07 C 7.89 618.92 10.92 615.37 13.49 611.56 C 11.31 610.86 8.81 610.53 7.15 608.79 C 3.51 604.91 4.43 597.71 9.20 595.16 Z" />
<path fill="#828387" opacity="1.00" d=" M 75.16 594.00 C 76.42 593.99 77.68 594.00 78.94 594.01 C 80.01 598.78 80.90 603.64 82.70 608.21 C 84.60 613.34 87.68 617.89 90.20 622.72 C 88.76 623.42 87.33 624.13 85.90 624.85 C 83.46 620.60 80.96 616.32 79.50 611.62 C 78.72 608.94 78.19 606.18 77.02 603.65 C 74.93 611.06 72.61 618.46 68.17 624.86 C 66.72 624.14 65.27 623.43 63.82 622.72 C 69.08 613.81 73.77 604.38 75.16 594.00 Z" />
<path fill="#828387" opacity="1.00" d=" M 106.46 595.83 C 107.96 595.25 109.46 594.69 110.97 594.13 C 111.75 597.54 111.79 601.07 112.53 604.49 C 114.28 605.46 117.21 605.31 117.83 603.06 C 118.11 600.62 117.42 598.21 117.03 595.83 C 118.63 595.46 120.23 595.07 121.84 594.73 C 122.02 598.90 124.46 604.28 120.44 607.40 C 117.61 610.03 113.48 609.02 110.76 606.79 C 108.28 609.81 104.36 609.20 101.00 608.42 C 101.02 613.95 101.00 619.48 101.01 625.02 C 99.34 625.02 97.67 625.03 96.01 625.05 C 95.82 615.29 96.88 605.29 93.77 595.85 C 95.44 595.48 97.10 595.05 98.79 594.73 C 99.41 597.53 99.78 600.42 100.80 603.12 C 101.60 605.82 106.14 605.63 106.90 603.00 C 107.14 600.60 106.71 598.20 106.46 595.83 Z" />
<path fill="#828387" opacity="1.00" d=" M 135.97 594.70 C 140.58 592.60 146.50 595.96 147.20 600.97 C 148.85 608.86 147.77 617.01 148.06 625.02 C 146.37 625.02 144.68 625.03 143.00 625.05 C 143.01 619.84 143.01 614.64 142.97 609.43 C 139.60 609.94 135.49 610.92 132.78 608.19 C 129.02 604.19 130.87 596.67 135.97 594.70 M 137.13 599.12 C 135.69 599.69 135.11 601.55 135.11 603.00 C 135.15 607.81 145.08 605.54 142.02 601.07 C 141.79 598.58 138.94 598.74 137.13 599.12 Z" />
<path fill="#828387" opacity="1.00" d=" M 168.78 593.96 C 170.08 594.00 171.38 594.05 172.69 594.11 C 174.08 604.46 178.37 614.10 184.06 622.78 C 182.48 623.45 180.90 624.14 179.32 624.84 C 177.82 621.89 176.20 619.01 174.81 616.02 C 172.91 612.02 172.23 607.59 170.51 603.52 C 168.79 611.14 165.98 618.44 161.80 625.06 C 160.42 624.27 159.03 623.49 157.65 622.72 C 159.72 617.92 162.84 613.64 164.69 608.74 C 166.72 604.01 167.76 598.97 168.78 593.96 Z" />
<path fill="#828387" opacity="1.00" d=" M 843.83 595.77 C 847.32 592.80 853.50 592.76 856.26 596.74 C 859.44 600.97 860.66 607.67 856.96 611.95 C 854.23 615.02 849.78 614.98 846.01 615.03 C 840.76 614.84 835.17 615.82 830.31 613.32 C 829.92 618.32 827.75 623.48 823.43 626.29 C 819.11 628.88 813.83 627.91 809.04 628.00 C 803.15 628.19 798.06 623.52 796.58 618.02 C 795.44 613.09 796.14 607.97 796.00 602.96 C 797.89 603.00 799.80 603.04 801.71 603.10 C 801.67 607.05 801.46 611.01 801.70 614.96 C 801.68 619.18 805.98 622.52 810.07 622.03 C 815.06 622.09 822.04 623.14 824.25 617.28 C 825.43 610.95 824.43 604.39 824.79 597.97 C 826.64 597.97 828.50 597.97 830.38 597.99 C 830.43 601.07 830.12 604.19 830.65 607.25 C 831.43 608.83 833.39 608.77 834.85 609.32 C 837.10 604.39 839.50 599.23 843.83 595.77 M 847.46 600.51 C 844.64 602.77 842.78 605.93 840.86 608.93 C 844.80 608.95 848.80 609.33 852.73 608.69 C 854.57 605.79 853.95 601.77 851.70 599.28 C 850.17 598.68 848.62 599.59 847.46 600.51 Z" />
<path fill="#828387" opacity="1.00" d=" M 961.21 597.29 C 963.48 593.38 968.82 593.00 972.71 594.26 C 979.73 598.09 980.12 610.01 973.46 614.37 C 969.85 616.65 965.80 614.65 962.06 614.02 C 958.59 614.25 955.17 614.99 951.70 615.13 C 952.56 621.50 947.54 627.73 941.07 627.94 C 934.91 627.96 927.37 629.35 922.75 624.21 C 917.41 618.47 919.08 610.11 918.90 603.00 C 920.70 602.99 922.51 602.99 924.34 602.99 C 924.43 607.28 924.16 611.58 924.49 615.86 C 924.75 619.65 928.49 622.38 932.15 622.33 C 935.94 622.46 939.96 622.93 943.59 621.55 C 945.82 620.49 945.88 617.83 946.33 615.75 C 942.62 614.91 938.80 614.88 935.03 615.00 C 934.97 612.99 934.92 611.00 934.87 609.01 C 942.92 608.94 950.97 609.11 959.02 608.90 C 959.58 605.03 959.18 600.78 961.21 597.29 M 967.10 599.24 C 964.17 600.42 964.08 604.43 964.75 607.05 C 965.42 610.71 971.29 611.02 972.67 607.72 C 973.21 605.62 973.22 603.35 972.67 601.27 C 971.82 599.07 969.12 598.56 967.10 599.24 Z" />
<path fill="#828387" opacity="1.00" d=" M 211.89 595.11 C 214.23 594.91 218.94 593.91 218.16 597.81 C 217.67 600.79 214.29 599.83 212.16 599.90 C 212.06 598.30 211.97 596.70 211.89 595.11 Z" />
<path fill="#828387" opacity="1.00" d=" M 220.92 594.92 C 222.96 594.97 225.01 595.08 227.05 595.22 C 226.81 596.77 227.63 599.04 225.80 599.87 C 224.22 600.53 222.25 600.13 220.88 599.15 C 220.83 597.73 220.85 596.32 220.92 594.92 Z" />
<path fill="#828387" opacity="1.00" d=" M 265.40 596.42 C 267.28 595.82 270.35 596.50 270.08 599.04 C 270.32 601.82 266.58 602.93 264.69 601.41 C 262.89 600.26 263.06 596.81 265.40 596.42 Z" />
<path fill="#828387" opacity="1.00" d=" M 274.38 596.38 C 276.27 595.86 279.19 596.61 279.09 599.03 C 279.12 602.08 274.71 603.14 273.03 600.84 C 271.67 599.42 272.40 596.73 274.38 596.38 Z" />
<path fill="#828387" opacity="1.00" d=" M 384.20 596.59 C 386.05 596.40 389.01 596.52 388.94 599.05 C 388.75 601.97 384.72 603.22 383.00 600.86 C 381.63 599.55 382.19 596.84 384.20 596.59 Z" />
<path fill="#828387" opacity="1.00" d=" M 393.38 596.44 C 395.17 595.98 397.93 596.77 397.85 599.02 C 397.92 601.93 393.81 603.17 392.02 600.99 C 390.08 599.74 391.24 596.63 393.38 596.44 Z" />
<path fill="#828387" opacity="1.00" d=" M 299.23 597.09 C 302.55 600.70 306.43 603.87 309.18 607.97 C 312.30 613.47 307.17 620.76 301.01 620.24 C 296.26 620.82 292.04 616.71 291.91 612.06 C 291.52 608.02 294.51 604.92 296.88 602.05 C 296.65 601.57 296.20 600.62 295.97 600.15 C 297.06 599.12 298.14 598.11 299.23 597.09 M 300.53 605.65 C 298.86 607.76 296.20 609.91 297.06 612.98 C 298.09 616.26 303.89 616.51 304.88 612.93 C 305.86 609.62 302.46 607.69 300.53 605.65 Z" />
<path fill="#828387" opacity="1.00" d=" M 43.22 603.34 C 49.63 600.78 56.48 608.48 53.55 614.59 C 50.83 620.21 42.01 620.80 38.67 615.47 C 35.45 611.18 38.53 604.96 43.22 603.34 M 41.14 613.06 C 43.21 614.71 46.16 616.82 48.64 614.58 C 52.00 612.03 49.12 606.03 45.00 607.01 C 41.96 607.31 41.55 610.66 41.14 613.06 Z" />
<path fill="#828387" opacity="1.00" d=" M 199.98 604.95 C 201.71 604.94 203.43 604.93 205.16 604.93 C 205.33 607.98 204.64 611.27 205.87 614.15 C 207.95 615.40 210.63 614.75 212.96 614.94 C 219.47 614.65 226.04 615.40 232.50 614.54 C 233.85 611.59 233.19 608.23 233.28 605.10 C 234.96 605.03 236.65 604.95 238.35 604.89 C 238.62 607.78 237.63 611.14 239.25 613.72 C 242.08 615.57 245.79 614.78 249.00 614.87 C 250.42 615.08 251.11 613.74 251.30 612.57 C 251.70 610.02 251.57 607.44 251.63 604.88 C 253.30 604.95 254.98 605.03 256.66 605.11 C 257.05 608.11 255.31 612.69 258.39 614.50 C 262.33 615.16 266.55 615.43 270.46 614.46 C 272.34 611.87 271.23 608.19 271.41 605.16 C 273.07 605.05 274.74 604.95 276.41 604.87 C 276.29 609.79 277.78 616.74 272.26 619.32 C 266.29 620.78 259.90 620.17 253.98 618.67 C 248.17 620.80 241.77 620.34 235.95 618.46 C 233.45 619.61 230.74 620.20 227.98 620.04 C 220.95 619.88 213.92 620.20 206.91 619.90 C 203.88 619.84 201.39 617.42 200.60 614.61 C 199.75 611.46 200.02 608.17 199.98 604.95 Z" />
<path fill="#828387" opacity="1.00" d=" M 325.95 604.94 C 327.64 604.94 329.33 604.94 331.03 604.96 C 330.38 612.70 333.31 622.02 327.35 628.29 C 323.71 632.48 317.73 630.56 312.92 630.99 C 312.60 629.46 312.30 627.95 312.00 626.43 C 316.70 626.33 323.64 627.30 325.66 621.77 C 326.32 616.19 325.75 610.54 325.95 604.94 Z" />
<path fill="#828387" opacity="1.00" d=" M 245.35 625.41 C 247.69 624.11 251.67 625.89 250.84 628.86 C 250.11 631.70 246.63 631.62 244.45 630.61 C 243.45 629.05 243.22 626.10 245.35 625.41 Z" />
</g>
<g id="#7c51a1ff">
<path fill="#7c51a1" opacity="1.00" d=" M 81.01 18.62 C 115.84 8.86 152.13 4.96 188.24 4.95 C 188.24 56.03 188.26 107.10 188.22 158.18 C 162.52 158.30 136.80 156.12 111.50 151.54 C 84.89 146.31 58.21 139.01 34.60 125.32 C 22.00 117.42 9.25 107.89 2.97 93.96 C 0.32 88.74 1.09 82.78 1.03 77.14 C 1.04 73.05 2.70 69.19 4.47 65.58 C 9.35 56.18 17.47 48.95 26.00 42.90 C 42.62 31.44 61.71 24.16 81.01 18.62 Z" />
<path fill="#7c51a1" opacity="1.00" d=" M 893.28 151.94 C 906.79 152.21 920.25 153.76 933.76 154.15 C 934.93 155.23 935.19 156.85 935.66 158.30 C 938.24 167.95 940.82 177.60 943.44 187.25 C 901.67 244.13 859.05 300.38 816.87 356.95 C 802.48 376.49 787.82 395.83 773.14 415.14 C 769.90 419.49 764.09 420.64 758.98 420.54 C 754.43 420.38 749.38 419.29 746.33 415.63 C 734.93 401.34 723.87 386.76 712.23 372.66 C 688.67 404.61 664.93 436.43 641.34 468.36 C 640.23 469.75 639.14 471.65 637.04 471.16 C 612.41 471.13 587.78 471.23 563.15 471.10 C 606.79 411.76 650.93 352.77 694.70 293.53 C 696.85 290.42 699.24 287.07 703.05 285.92 C 708.41 284.20 714.49 284.18 719.75 286.29 C 723.17 287.60 725.30 290.71 727.46 293.49 C 737.79 306.69 748.16 319.87 758.58 333.00 C 803.41 272.59 848.33 212.25 893.28 151.94 Z" />
</g>
</svg>
