<svg xmlns="http://www.w3.org/2000/svg" xmlns:xlink="http://www.w3.org/1999/xlink" viewBox="0 0 500 500" width="500" height="500" preserveAspectRatio="xMidYMid meet" style="width: 100%; height: 100%; transform: translate3d(0px, 0px, 0px); content-visibility: visible;"><defs><clipPath id="__lottie_element_1436"><rect width="500" height="500" x="0" y="0"></rect></clipPath><linearGradient id="__lottie_element_1440" spreadMethod="pad" gradientUnits="userSpaceOnUse" x1="-49" y1="358" x2="50.57400131225586" y2="-358.9360046386719"><stop offset="3%" stop-color="rgb(255,203,70)"></stop><stop offset="28%" stop-color="rgb(248,158,112)"></stop><stop offset="53%" stop-color="rgb(240,112,155)"></stop><stop offset="74%" stop-color="rgb(239,101,143)"></stop><stop offset="96%" stop-color="rgb(239,90,130)"></stop></linearGradient><clipPath id="__lottie_element_1442"><path d="M0,0 L500,0 L500,500 L0,500z"></path></clipPath></defs><g clip-path="url(#__lottie_element_1436)"><g transform="matrix(1,0,0,1,250,250)" opacity="1" style="display: block;"><g opacity="1" transform="matrix(1,0,0,1,0,0)"><path fill="url(#__lottie_element_1440)" fill-opacity="1" d=" M-0.15299999713897705,192 C-105.83300018310547,192 -192.1529998779297,106.31999969482422 -192.1529998779297,0 C-192.1529998779297,-106 -106.15299987792969,-192 -0.15299999713897705,-192 C89.76699829101562,-192 165.28700256347656,-130.0800018310547 186.08700561523438,-46.63999938964844 C216.8979949951172,71.02999877929688 126.61799621582031,192 -0.15299999713897705,192z"></path></g></g><g clip-path="url(#__lottie_element_1442)" transform="matrix(1,0,0,1,0,0)" opacity="1" style="display: block;"><g transform="matrix(1,0,0,1,281.7799987792969,289.9119873046875)" opacity="0.1" style="display: block;"><g opacity="1" transform="matrix(1,0,0,1,0,0)"><path fill="rgb(44,47,51)" fill-opacity="1" d=" M5.710000038146973,148.39999389648438 C5.710000038146973,148.39999389648438 -93.56999969482422,89.68000030517578 -93.56999969482422,89.68000030517578 C-93.56999969482422,89.68000030517578 -160.3699951171875,43.439998626708984 -160.3699951171875,43.439998626708984 C-160.3699951171875,43.439998626708984 96.2699966430664,-148.39999389648438 96.2699966430664,-148.39999389648438 C96.2699966430664,-148.39999389648438 141.7899932861328,-121.5199966430664 141.7899932861328,-121.5199966430664 C147.07000732421875,-110.39900207519531 151.22999572753906,-98.72000122070312 154.27000427246094,-86.55999755859375 C182.02999877929688,19.038999557495117 112.02999877929688,127.36100006103516 5.710000038146973,148.39999389648438z"></path></g></g><g transform="matrix(1,0,0,1,0,0)" opacity="1" style="display: block;"><g opacity="1" transform="matrix(1,0,0,1,249.75399780273438,237.4720001220703)"><path fill="rgb(107,127,190)" fill-opacity="1" d=" M133.18299865722656,-84.5009994506836 C133.18299865722656,-84.5009994506836 133.18299865722656,84.5009994506836 133.18299865722656,84.5009994506836 C133.18299865722656,93.31099700927734 126.03399658203125,100.45999908447266 117.2239990234375,100.45999908447266 C117.2239990234375,100.45999908447266 -117.2239990234375,100.45999908447266 -117.2239990234375,100.45999908447266 C-126.08499908447266,100.45999908447266 -133.18299865722656,93.31099700927734 -133.18299865722656,84.5009994506836 C-133.18299865722656,84.5009994506836 -133.18299865722656,-84.5009994506836 -133.18299865722656,-84.5009994506836 C-133.18299865722656,-93.31099700927734 -126.08499908447266,-100.45999908447266 -117.2239990234375,-100.45999908447266 C-117.2239990234375,-100.45999908447266 117.2239990234375,-100.45999908447266 117.2239990234375,-100.45999908447266 C126.03399658203125,-100.45999908447266 133.18299865722656,-93.31099700927734 133.18299865722656,-84.5009994506836z"></path></g><g opacity="1" transform="matrix(1,0,0,1,249.75399780273438,316.7090148925781)"><path fill="rgb(255,255,255)" fill-opacity="1" d=" M-133.18299865722656,-21.71500015258789 C-133.18299865722656,-21.71500015258789 -133.18299865722656,5.75600004196167 -133.18299865722656,5.75600004196167 C-133.18299865722656,14.565999984741211 -126.08499908447266,21.71500015258789 -117.2239990234375,21.71500015258789 C-117.2239990234375,21.71500015258789 117.2239990234375,21.71500015258789 117.2239990234375,21.71500015258789 C126.03399658203125,21.71500015258789 133.18299865722656,14.565999984741211 133.18299865722656,5.75600004196167 C133.18299865722656,5.75600004196167 133.18299865722656,-21.71500015258789 133.18299865722656,-21.71500015258789 C133.18299865722656,-21.71500015258789 -133.18299865722656,-21.71500015258789 -133.18299865722656,-21.71500015258789z"></path></g><g opacity="1" transform="matrix(1,0,0,1,250.24600219726562,352.5950012207031)"><path fill="rgb(236,236,236)" fill-opacity="1" d=" M38.202999114990234,-14.170999526977539 C38.202999114990234,-14.170999526977539 38.202999114990234,14.170999526977539 38.202999114990234,14.170999526977539 C38.202999114990234,14.170999526977539 -38.202999114990234,14.170999526977539 -38.202999114990234,14.170999526977539 C-38.202999114990234,14.170999526977539 -38.202999114990234,-14.170999526977539 -38.202999114990234,-14.170999526977539 C-38.202999114990234,-14.170999526977539 38.202999114990234,-14.170999526977539 38.202999114990234,-14.170999526977539z"></path></g><g opacity="1" transform="matrix(1,0,0,1,250.23300170898438,374.2659912109375)"><path fill="rgb(255,255,255)" fill-opacity="1" d=" M64.24700164794922,0 C64.24700164794922,4.123000144958496 60.90299987792969,7.499000072479248 56.74800109863281,7.499000072479248 C56.74800109863281,7.499000072479248 -56.74800109863281,7.499000072479248 -56.74800109863281,7.499000072479248 C-58.79399871826172,7.499000072479248 -60.67599868774414,6.65500020980835 -62.040000915527344,5.291999816894531 C-63.40299987792969,3.928999900817871 -64.24700164794922,2.078000068664551 -64.24700164794922,0 C-64.24700164794922,-4.15500020980835 -60.869998931884766,-7.499000072479248 -56.74800109863281,-7.499000072479248 C-56.74800109863281,-7.499000072479248 56.74800109863281,-7.499000072479248 56.74800109863281,-7.499000072479248 C60.90299987792969,-7.499000072479248 64.24700164794922,-4.15500020980835 64.24700164794922,0z"></path></g><g opacity="1" transform="matrix(1,0,0,1,248.7969970703125,315.8059997558594)"><path fill="rgb(236,236,236)" fill-opacity="1" d=" M9.33899974822998,0.026000000536441803 C9.33899974822998,5.160999774932861 5.159999847412109,9.338000297546387 0.02500000037252903,9.338000297546387 C-5.159999847412109,9.338000297546387 -9.33899974822998,5.160999774932861 -9.33899974822998,0.026000000536441803 C-9.33899974822998,-5.159999847412109 -5.160999774932861,-9.338000297546387 0.02500000037252903,-9.338000297546387 C5.159999847412109,-9.338000297546387 9.33899974822998,-5.159999847412109 9.33899974822998,0.026000000536441803z"></path></g></g><g transform="matrix(-0.3628076910972595,0.9318640232086182,-0.9318640232086182,-0.3628076910972595,204.70596313476562,184.4732666015625)" opacity="1" style="display: block;"><g opacity="1" transform="matrix(1,0,0,1,0,0)"><path fill="rgb(255,255,255)" fill-opacity="1" d=" M46.25199890136719,-42.573001861572266 C46.25199890136719,-42.573001861572266 46.25199890136719,-53.92599868774414 46.25199890136719,-53.92599868774414 C46.25199890136719,-53.92599868774414 36.6150016784668,-54.69599914550781 36.6150016784668,-54.69599914550781 C35.6510009765625,-60.23400115966797 33.47700119018555,-65.3479995727539 30.367000579833984,-69.76100158691406 C30.367000579833984,-69.76100158691406 36.64899826049805,-77.11599731445312 36.64899826049805,-77.11599731445312 C36.64899826049805,-77.11599731445312 28.618000030517578,-85.14700317382812 28.618000030517578,-85.14700317382812 C28.618000030517578,-85.14700317382812 21.26300048828125,-78.86599731445312 21.26300048828125,-78.86599731445312 C16.850000381469727,-81.97699737548828 11.734999656677246,-84.1500015258789 6.197999954223633,-85.1050033569336 C6.197999954223633,-85.1050033569336 5.436999797821045,-94.74199676513672 5.436999797821045,-94.74199676513672 C5.436999797821045,-94.74199676513672 -5.925000190734863,-94.74199676513672 -5.925000190734863,-94.74199676513672 C-5.925000190734863,-94.74199676513672 -6.685999870300293,-85.1050033569336 -6.685999870300293,-85.1050033569336 C-12.223999977111816,-84.1500015258789 -17.33799934387207,-81.97699737548828 -21.750999450683594,-78.86599731445312 C-21.750999450683594,-78.86599731445312 -29.106000900268555,-85.14700317382812 -29.106000900268555,-85.14700317382812 C-29.106000900268555,-85.14700317382812 -37.137001037597656,-77.11599731445312 -37.137001037597656,-77.11599731445312 C-37.137001037597656,-77.11599731445312 -30.856000900268555,-69.76100158691406 -30.856000900268555,-69.76100158691406 C-33.96699905395508,-65.3479995727539 -36.13999938964844,-60.233001708984375 -37.10300064086914,-54.69599914550781 C-37.10300064086914,-54.69599914550781 -46.74100112915039,-53.92599868774414 -46.74100112915039,-53.92599868774414 C-46.74100112915039,-53.92599868774414 -46.74100112915039,-42.573001861572266 -46.74100112915039,-42.573001861572266 C-46.74100112915039,-42.573001861572266 -37.09400177001953,-41.8120002746582 -37.09400177001953,-41.8120002746582 C-36.138999938964844,-36.27399826049805 -33.965999603271484,-31.15999984741211 -30.854999542236328,-26.746000289916992 C-30.854999542236328,-26.746000289916992 -37.137001037597656,-19.391000747680664 -37.137001037597656,-19.391000747680664 C-37.137001037597656,-19.391000747680664 -29.104999542236328,-11.359999656677246 -29.104999542236328,-11.359999656677246 C-29.104999542236328,-11.359999656677246 -21.75,-17.632999420166016 -21.75,-17.632999420166016 C-17.336999893188477,-14.531000137329102 -12.222000122070312,-12.357000350952148 -6.684999942779541,-11.402000427246094 C-6.684999942779541,-11.402000427246094 -5.925000190734863,-1.75600004196167 -5.925000190734863,-1.75600004196167 C-5.925000190734863,-1.75600004196167 5.438000202178955,-1.75600004196167 5.438000202178955,-1.75600004196167 C5.438000202178955,-1.75600004196167 6.198999881744385,-11.402000427246094 6.198999881744385,-11.402000427246094 C11.737000465393066,-12.357000350952148 16.850000381469727,-14.531000137329102 21.26300048828125,-17.632999420166016 C21.26300048828125,-17.632999420166016 28.615999221801758,-11.359999656677246 28.615999221801758,-11.359999656677246 C28.615999221801758,-11.359999656677246 36.64699935913086,-19.391000747680664 36.64699935913086,-19.391000747680664 C36.64699935913086,-19.391000747680664 30.365999221801758,-26.746000289916992 30.365999221801758,-26.746000289916992 C33.47700119018555,-31.159000396728516 35.650001525878906,-36.27399826049805 36.60499954223633,-41.8120002746582 C36.60499954223633,-41.8120002746582 46.25199890136719,-42.573001861572266 46.25199890136719,-42.573001861572266z M-0.24500000476837158,-30.266000747680664 C-10.175999641418457,-30.266000747680664 -18.23200035095215,-38.314998626708984 -18.23200035095215,-48.24599838256836 C-18.23200035095215,-58.183998107910156 -10.175999641418457,-66.23300170898438 -0.24500000476837158,-66.23300170898438 C9.685999870300293,-66.23300170898438 17.740999221801758,-58.183998107910156 17.740999221801758,-48.24599838256836 C17.740999221801758,-38.314998626708984 9.6850004196167,-30.266000747680664 -0.24500000476837158,-30.266000747680664z"></path></g></g><g transform="matrix(1,0,0,1,249.7449951171875,270.72698974609375)" opacity="1" style="display: block;"><g opacity="1" transform="matrix(1,0,0,1,0,0)"><path stroke-linecap="round" stroke-linejoin="round" fill-opacity="0" stroke="rgb(255,255,255)" stroke-opacity="1" stroke-width="13.6" d=" M-71.5739974975586,0 C-71.5739974975586,0 71.5739974975586,0 71.5739974975586,0"></path></g></g><g transform="matrix(1,0,0,1,249.7449951171875,270.72698974609375)" opacity="1" style="display: block;"><g opacity="1" transform="matrix(1,0,0,1,0,0)"><path stroke-linecap="round" stroke-linejoin="round" fill-opacity="0" stroke="rgb(255,203,70)" stroke-opacity="1" stroke-width="13.6" d=" M-71.5739974975586,0 C-71.5739974975586,0 -44.229000091552734,0 -13.442000389099121,0"></path></g></g></g></g></svg>