<?xml version="1.0" encoding="UTF-8"?><svg id="Layer_1" xmlns="http://www.w3.org/2000/svg" viewBox="0 0 226.76 104.76"><defs><style>.cls-1{fill:#fff;}</style></defs><path class="cls-1" d="M142.54,22.75c.57,2.05,.87,4.18,.9,6.39s-.11,4.35-.41,6.43c-.3,2.08-.69,4.01-1.17,5.81s-.91,3.31-1.29,4.52c-.38,1.21-.66,2.08-.84,2.58-.18,.5-.11,.48,.18-.06-7.72,13.69-20.12,25.04-37.2,34.05-17.54,9.22-36.05,13.83-55.53,13.83-12.71,0-23.37-1.82-31.96-5.44-7.01-2.95-11.76-6.59-14.24-10.93-.65-1.15-.98-2.1-.98-2.86,0-.98,.57-1.47,1.72-1.47,.65,0,1.46,.16,2.41,.49,14.84,4.99,29.87,7.49,45.1,7.49s30.89-2.56,44.89-7.69c10.97-3.99,20.73-9.34,29.3-16.08,6.47-5.05,11.02-9.74,13.67-14.08,2.26-3.74,3.4-6.58,3.4-8.51s-.63-3.98-1.88-6.39c.41-1.39,1.31-3.51,2.7-6.34,.52-1.15,.93-1.72,1.23-1.72h0Zm-18.62,4.45c.13,.74,.09,1.51-.14,2.31-.23,.8-.65,1.7-1.25,2.68-.38,.6-.74,1.12-1.06,1.56-.33,.44-.65,.83-.96,1.19-.31,.35-.64,.68-.98,.98-.34,.3-.72,.61-1.13,.94-.13,.13-.26,.22-.37,.24-.11,.03-.19,.04-.24,.04-.44,0-.71-.12-.82-.37-.24-.3-.61-.68-1.1-1.15-.49-.46-1.09-.98-1.8-1.56l-3.4-2.74c-.24-.22-.32-.43-.22-.63s.17-.36,.22-.47c.87-1.56,1.81-3.16,2.8-4.81,1-1.65,1.92-3.17,2.76-4.56,.13-.24,.24-.41,.33-.51,.08-.09,.16-.14,.24-.14s.18,.03,.28,.1c.11,.07,.27,.16,.49,.26,.52,.38,1.11,.81,1.78,1.29,.67,.48,1.36,1.03,2.07,1.66,1.36,1.2,2.2,2.43,2.49,3.68h0Z"/><path class="cls-1" d="M153.96,44.52c-.19,2.7-.8,5.02-1.84,6.96-1.01,1.91-2.16,2.86-3.44,2.86,0-1.04,.33-4.26,.98-9.66,.35-2.73,.65-5.05,.9-6.96,.24-1.91,.45-3.45,.61-4.62,.19-1.17,.38-2.38,.57-3.62s.39-2.51,.61-3.83c.22-1.31,.43-2.49,.63-3.56s.41-1.99,.63-2.78c.46-1.34,.96-2.69,1.49-4.05,.53-1.36,1.08-2.71,1.66-4.05,.35-.6,.6-.5,.74,.28-.35,2.29-.68,4.6-.98,6.93-.3,2.33-.6,4.72-.9,7.18-.3,2.45-.54,4.55-.74,6.28-.19,1.73-.34,3.12-.45,4.16-.11,1.04-.18,1.86-.22,2.47s-.06,1.02-.06,1.21c-.05,1.15-.1,2.12-.14,2.9-.04,.79-.06,1.42-.06,1.88h0Z"/><path class="cls-1" d="M150.01,49.76c.48-1.31,.96-2.39,1.43-3.25,.48-.86,.93-1.52,1.37-1.99s.82-.74,1.15-.82v2.7c0,3.47,.91,5.87,2.74,7.2,.57,.38,1.15,.63,1.72,.74,.57,.11,1.12,.11,1.64,0s.99-.31,1.41-.59c.42-.28,.78-.66,1.08-1.13,.57-.84,1.08-1.9,1.52-3.15,.41-1.23,.8-1.84,1.19-1.84,.43,0,.61,.44,.53,1.31-.02,.74-.15,1.71-.37,2.9-.22,1.2-.56,2.63-1.02,4.3-.85,3.25-2.05,5.96-3.6,8.14-1.5,2.13-3.33,3.25-5.48,3.36-2.21-.08-3.93-1.32-5.16-3.72-1.12-2.37-1.61-5.44-1.47-9.21v-.37c.41-1.75,.85-3.27,1.33-4.58h-.01Zm13.16,46.66c0,2.64-1.41,5.07-4.22,7.28-.96,.71-1.54,1.06-1.76,1.06-.13,0-.38-.15-.74-.45-1.61-1.56-3.81-2.8-6.59-3.72,.87-1.64,1.86-3.29,2.97-4.97s2.35-3.42,3.75-5.22c2.54,.9,4.27,1.77,5.2,2.62,.93,.82,1.39,1.95,1.39,3.4h0Z"/><path class="cls-1" d="M187.11,44.85c1.42-1.88,2.82-3.53,4.2-4.95,1.38-1.42,2.73-2.64,4.05-3.68,1.32-1.04,2.61-1.9,3.87-2.58,1.25-.68,2.45-1.23,3.6-1.64,.76,1.04,1.27,2.12,1.52,3.23,.24,1.12,.32,2.21,.22,3.29-.09,1.08-.31,2.11-.63,3.09s-.69,1.88-1.1,2.7c-2.26,.35-4.53,1.05-6.81,2.09-2.28,1.04-4.56,2.65-6.85,4.83-2.29,2.21-4.69,4.99-7.2,8.35-2.45,3.36-4.85,6.18-7.2,8.47-1.15,1.15-2.38,2.24-3.7,3.29-1.32,1.05-2.76,2.05-4.32,3.01-3.03,1.91-5.59,3.34-7.69,4.3-1.04,.46-1.88,.83-2.54,1.1-.65,.27-1.13,.46-1.43,.57-.95,.38-1.53,.43-1.72,.16-.13-.11,.11-.35,.74-.74l4.83-3.15c1.23-.76,2.37-1.53,3.42-2.29,1.05-.76,2.06-1.54,3.01-2.33,.96-.76,1.95-1.67,2.99-2.7,1.04-1.04,2.14-2.21,3.31-3.52,1.17-1.31,2.49-2.91,3.95-4.81,1.46-1.9,3.08-4.11,4.85-6.65,1.77-2.54,3.21-4.59,4.32-6.16,1.1-1.57,1.89-2.66,2.35-3.29h0Zm10.97-38.82c0,2.65-1.41,5.07-4.22,7.28-.96,.71-1.54,1.06-1.76,1.06-.13,0-.38-.15-.74-.45-1.61-1.56-3.81-2.79-6.59-3.72,.87-1.64,1.86-3.29,2.97-4.97s2.35-3.42,3.75-5.22c2.54,.9,4.27,1.78,5.2,2.62,.93,.82,1.39,1.95,1.39,3.4h0Z"/><path class="cls-1" d="M197.42,76.77c0,.08,.01,.15,.04,.2,0,.05,0,.11,.02,.18s.02,.13,.02,.18v.57c0,.05,0,.11-.02,.18s-.02,.13-.02,.18l-.12,.49c0,.05,0,.09-.02,.12-.01,.02-.02,.07-.02,.12l-.16,.49c-.05,.11-.1,.22-.14,.33-.04,.11-.09,.22-.14,.33,0,.02,0,.04-.02,.06s-.02,.03-.02,.06l-.2,.37c-.05,.13-.12,.25-.2,.35-.08,.09-.15,.2-.2,.31-.05,.05-.08,.09-.08,.12l-.49,.74-.2,.28c-.05,.05-.1,.12-.14,.2s-.09,.15-.14,.2c-.11,.16-.2,.28-.28,.37l-.65,.82c-.05,.05-.08,.09-.08,.12-.05,.05-.11,.12-.18,.2-.07,.08-.14,.15-.22,.2l-.24,.24c-.08,.13-.19,.24-.33,.33l-.41,.41-.2,.16c-.3,.24-.56,.41-.78,.49l-.24,.08h-.28c-.22,0-.41-.08-.57-.24-.6-.46-1.18-.94-1.74-1.43s-1.15-.97-1.78-1.43c-.19-.16-.38-.31-.57-.45-.57-.44-1.13-.83-1.68-1.19-.02,0-.04-.01-.04-.04-.13-.13-.2-.26-.2-.37s.07-.27,.2-.49l6.26-9.53s.01-.05,.04-.08c.19-.24,.39-.34,.61-.28l.08,.04s.05,.01,.08,.04l.28,.12c.05,.05,.11,.09,.16,.1,.05,.01,.11,.04,.16,.1,.05,.02,.11,.05,.16,.08s.11,.07,.16,.12c.11,.05,.22,.12,.33,.2,.16,.11,.33,.21,.49,.31,.16,.09,.33,.21,.49,.35l.16,.12c.24,.19,.48,.38,.69,.57,.22,.19,.44,.39,.65,.61l.49,.57,.37,.49c.19,.27,.34,.54,.45,.82,.05,.08,.11,.2,.16,.37l.12,.37s.04,.05,.04,.08,.01,.07,.04,.12c0,.08,.01,.13,.04,.16,0,.11,.01,.19,.04,.24v-.03Zm12.47,1.35c-.23,.82-.63,1.66-1.21,2.54-.46,.71-.93,1.37-1.41,1.99s-1,1.19-1.58,1.74c-.35,.38-.67,.65-.94,.82-.27,.16-.5,.26-.69,.31-.19,.04-.35,.03-.49-.02-.13-.05-.26-.12-.37-.2-.95-.76-1.89-1.54-2.8-2.31-.91-.78-1.92-1.51-3.01-2.19-.13-.19-.2-.33-.2-.43s.07-.25,.2-.47l6.22-9.58c.19-.24,.37-.36,.55-.35s.37,.09,.59,.22c.54,.33,1.1,.67,1.66,1.04,.56,.37,1.07,.78,1.54,1.25s.87,.96,1.23,1.49c.35,.53,.6,1.13,.74,1.78,.22,.76,.21,1.56-.02,2.37h0Zm-1.27-34.42c.91-.33,2.05-1.21,3.4-2.64s2.6-2.93,3.75-4.48c.68-.95,1.03-1.98,1.04-3.07s-.33-1.95-1.04-2.58c-.49,.57-2.13,.76-4.91,.55s-5.46-.03-8.02,.51c-.49,.49-.88,1.13-1.17,1.9s-.48,1.62-.59,2.51-.14,1.82-.1,2.74c.04,.93,.15,1.77,.33,2.51,.18,.75,.39,1.37,.65,1.86s.55,.75,.88,.78c.43,.08,.98,.13,1.64,.16,.65,.02,1.38-.04,2.17-.2,.41-.05,1.07-.24,1.99-.57h0Z"/><path class="cls-1" d="M226.6,74.28c.43,1.5,0,3.21-1.31,5.11-.38,.63-.78,1.19-1.21,1.7s-.87,.99-1.33,1.45c-.13,.16-.35,.37-.65,.61-.3,.24-.61,.48-.94,.69-.33,.22-.64,.37-.94,.47s-.52,.06-.65-.1c-.98-.79-1.95-1.6-2.9-2.41s-2.01-1.58-3.15-2.29c-.19-.13-.28-.26-.26-.39s.09-.31,.22-.55l6.55-9.99c.19-.27,.38-.4,.57-.39s.39,.09,.61,.22c.57,.33,1.15,.69,1.72,1.08,.57,.39,1.1,.84,1.6,1.33s.92,1.02,1.29,1.6,.63,1.19,.8,1.84h0Zm-7-43.45c-.57,1.04-1.18,2.03-1.82,2.97-.64,.94-1.32,1.88-2.03,2.8-.35-.95-.52-1.9-.49-2.82,.02-.93,.19-1.87,.49-2.82,.19-.16,.37-.38,.53-.65l4.05-5.89,.61-.86c.46-.49,.9-.65,1.31-.49,.19,.11,.24,.45,.16,1.02-.08,.65-.33,1.49-.74,2.51s-1.1,2.43-2.09,4.24h0Z"/></svg>