<?xml version="1.0" encoding="UTF-8"?><svg id="Layer_1" xmlns="http://www.w3.org/2000/svg" viewBox="0 0 472 232"><defs><style>.cls-1{fill:#07313a;}.cls-2{fill:none;stroke:#006837;stroke-miterlimit:10;}</style></defs><rect class="cls-2" x=".5" y=".5" width="471" height="231" rx="7.76" ry="7.76"/><path class="cls-1" d="M291.53,53.31c1.15,4.1,1.75,8.37,1.8,12.8s-.22,8.72-.82,12.88c-.6,4.16-1.38,8.04-2.34,11.65s-1.82,6.63-2.58,9.06c-.77,2.43-1.33,4.16-1.68,5.17-.36,1.01-.23,.97,.37-.12-15.48,27.45-40.33,50.2-74.57,68.25-35.16,18.48-72.27,27.73-111.32,27.73-25.48,0-46.84-3.64-64.07-10.91-14.05-5.91-23.57-13.21-28.55-21.9-1.31-2.3-1.97-4.21-1.97-5.74,0-1.97,1.15-2.95,3.45-2.95,1.31,0,2.93,.33,4.84,.98,29.75,10.01,59.88,15.01,90.4,15.01s61.93-5.14,89.99-15.42c21.98-7.99,41.56-18.73,58.73-32.24,12.96-10.12,22.09-19.52,27.4-28.22,4.54-7.49,6.81-13.18,6.81-17.06s-1.26-7.98-3.77-12.8c.82-2.79,2.62-7.03,5.41-12.71,1.04-2.3,1.86-3.45,2.46-3.45h.01Zm-37.32,8.93c.27,1.48,.18,3.02-.29,4.63-.46,1.61-1.3,3.4-2.5,5.37-.77,1.2-1.48,2.24-2.13,3.12-.66,.88-1.3,1.67-1.93,2.38-.63,.71-1.29,1.37-1.97,1.97-.68,.6-1.44,1.23-2.26,1.89-.27,.27-.52,.44-.74,.49-.22,.06-.38,.08-.49,.08-.88,0-1.42-.25-1.64-.74-.49-.6-1.23-1.37-2.21-2.3-.98-.93-2.19-1.97-3.61-3.12l-6.81-5.5c-.49-.44-.64-.86-.45-1.27s.34-.72,.45-.94c1.75-3.12,3.62-6.33,5.62-9.64,2-3.31,3.84-6.36,5.54-9.15,.27-.49,.49-.83,.66-1.03,.16-.19,.33-.29,.49-.29s.36,.07,.57,.21c.22,.14,.55,.32,.98,.53,1.04,.77,2.23,1.63,3.57,2.58,1.34,.96,2.72,2.06,4.14,3.32,2.73,2.41,4.4,4.87,5,7.38v.03Z"/><path class="cls-1" d="M314.42,96.95c-.38,5.41-1.61,10.06-3.69,13.95-2.02,3.83-4.32,5.74-6.89,5.74,0-2.08,.66-8.53,1.97-19.36,.71-5.47,1.31-10.12,1.8-13.95,.49-3.83,.9-6.92,1.23-9.27,.38-2.35,.77-4.77,1.15-7.26s.79-5.04,1.23-7.67c.44-2.62,.86-5,1.27-7.14s.83-3.99,1.27-5.58c.93-2.68,1.93-5.39,2.99-8.12,1.07-2.73,2.17-5.44,3.32-8.12,.71-1.2,1.2-1.01,1.48,.57-.71,4.59-1.37,9.23-1.97,13.9-.6,4.68-1.2,9.47-1.8,14.4-.6,4.92-1.09,9.12-1.48,12.59-.38,3.47-.68,6.25-.9,8.33-.22,2.08-.37,3.73-.45,4.96s-.12,2.04-.12,2.42c-.11,2.3-.21,4.24-.29,5.82-.08,1.59-.12,2.84-.12,3.77v.02Z"/><path class="cls-1" d="M306.51,107.45c.96-2.62,1.92-4.8,2.87-6.52,.96-1.72,1.87-3.05,2.75-3.98s1.64-1.48,2.3-1.64v5.41c0,6.95,1.83,11.76,5.5,14.44,1.15,.77,2.3,1.26,3.45,1.48,1.15,.22,2.24,.22,3.28,0s1.98-.62,2.83-1.19c.85-.57,1.57-1.33,2.17-2.26,1.15-1.69,2.16-3.8,3.04-6.32,.82-2.46,1.61-3.69,2.38-3.69,.87,0,1.23,.88,1.07,2.62-.05,1.48-.3,3.42-.74,5.82-.44,2.41-1.12,5.28-2.05,8.61-1.7,6.51-4.1,11.95-7.22,16.32-3.01,4.27-6.67,6.51-10.99,6.73-4.43-.16-7.88-2.65-10.34-7.46-2.24-4.76-3.23-10.91-2.95-18.46v-.74c.82-3.5,1.71-6.56,2.67-9.19l-.02,.02Zm26.37,93.52c0,5.3-2.82,10.17-8.45,14.6-1.92,1.42-3.09,2.13-3.53,2.13-.27,0-.77-.3-1.48-.9-3.23-3.12-7.63-5.61-13.21-7.46,1.75-3.28,3.73-6.6,5.95-9.97s4.72-6.85,7.51-10.46c5.09,1.8,8.56,3.55,10.42,5.25,1.86,1.64,2.79,3.91,2.79,6.81h0Z"/><path class="cls-1" d="M380.87,97.61c2.84-3.77,5.65-7.08,8.41-9.93,2.76-2.84,5.47-5.3,8.12-7.38,2.65-2.08,5.24-3.8,7.75-5.17,2.51-1.37,4.92-2.46,7.22-3.28,1.53,2.08,2.54,4.24,3.04,6.48,.49,2.24,.64,4.44,.45,6.6-.19,2.16-.62,4.22-1.27,6.19s-1.39,3.77-2.21,5.41c-4.54,.71-9.09,2.11-13.66,4.18-4.57,2.08-9.15,5.31-13.74,9.68-4.59,4.43-9.41,10.01-14.44,16.73-4.92,6.73-9.73,12.39-14.44,16.98-2.3,2.3-4.77,4.5-7.42,6.6-2.65,2.1-5.54,4.11-8.65,6.03-6.07,3.83-11.21,6.7-15.42,8.61-2.08,.93-3.77,1.67-5.09,2.21-1.31,.55-2.27,.93-2.87,1.15-1.91,.77-3.06,.87-3.45,.33-.27-.22,.22-.71,1.48-1.48l9.68-6.32c2.46-1.53,4.75-3.06,6.85-4.59,2.11-1.53,4.12-3.09,6.03-4.68,1.92-1.53,3.91-3.34,5.99-5.41,2.08-2.08,4.29-4.43,6.64-7.05,2.35-2.62,4.99-5.84,7.92-9.64,2.92-3.8,6.17-8.24,9.72-13.33,3.55-5.09,6.44-9.2,8.65-12.35,2.21-3.14,3.79-5.34,4.72-6.6v.03Zm21.97-77.85c0,5.31-2.82,10.17-8.45,14.6-1.92,1.42-3.09,2.13-3.53,2.13-.27,0-.77-.3-1.48-.9-3.23-3.12-7.63-5.6-13.21-7.46,1.75-3.28,3.73-6.6,5.95-9.97s4.72-6.85,7.51-10.46c5.09,1.8,8.56,3.56,10.42,5.25,1.86,1.64,2.79,3.91,2.79,6.81h0Z"/><path class="cls-1" d="M401.54,161.59c0,.16,.03,.3,.08,.41,0,.11,.01,.23,.04,.37s.04,.26,.04,.37v1.15c0,.11-.01,.23-.04,.37s-.04,.26-.04,.37l-.25,.98c0,.11-.01,.19-.04,.25-.03,.05-.04,.14-.04,.25l-.33,.98c-.11,.22-.21,.44-.29,.66-.08,.22-.18,.44-.29,.66,0,.05-.01,.09-.04,.12s-.04,.07-.04,.12l-.41,.74c-.11,.27-.25,.5-.41,.7-.16,.19-.3,.4-.41,.62-.11,.11-.16,.19-.16,.25l-.98,1.48-.41,.57c-.11,.11-.21,.25-.29,.41s-.18,.3-.29,.41c-.22,.33-.41,.57-.57,.74l-1.31,1.64c-.11,.11-.16,.19-.16,.25-.11,.11-.23,.25-.37,.41-.14,.16-.29,.3-.45,.41l-.49,.49c-.16,.27-.38,.49-.66,.66l-.82,.82-.41,.33c-.6,.49-1.12,.82-1.56,.98l-.49,.16h-.57c-.44,0-.82-.16-1.15-.49-1.2-.93-2.37-1.89-3.49-2.87s-2.31-1.94-3.57-2.87c-.38-.33-.77-.63-1.15-.9-1.15-.88-2.27-1.67-3.36-2.38-.05,0-.08-.03-.08-.08-.27-.27-.41-.52-.41-.74s.14-.55,.41-.98l12.55-19.11c0-.06,.03-.11,.08-.16,.38-.49,.79-.68,1.23-.57l.16,.08s.11,.03,.16,.08l.57,.25c.11,.11,.22,.18,.33,.21,.11,.03,.22,.09,.33,.21,.11,.05,.22,.11,.33,.16s.22,.14,.33,.25c.22,.11,.44,.25,.66,.41,.33,.22,.66,.42,.98,.62,.33,.19,.66,.42,.98,.7l.33,.25c.49,.38,.96,.77,1.39,1.15,.44,.38,.88,.79,1.31,1.23l.98,1.15,.74,.98c.38,.55,.68,1.09,.9,1.64,.11,.16,.22,.41,.33,.74l.25,.74c.05,.05,.08,.11,.08,.16s.03,.14,.08,.25c0,.16,.03,.27,.08,.33,0,.22,.03,.38,.08,.49l.02-.06Zm24.98,2.71c-.46,1.64-1.27,3.33-2.42,5.09-.93,1.42-1.87,2.75-2.83,3.98s-2.01,2.39-3.16,3.49c-.71,.77-1.34,1.31-1.89,1.64-.55,.33-1.01,.53-1.39,.62-.38,.08-.71,.07-.98-.04-.27-.11-.52-.25-.74-.41-1.91-1.53-3.79-3.08-5.62-4.63-1.83-1.56-3.84-3.02-6.03-4.39-.27-.38-.41-.67-.41-.86s.14-.51,.41-.94l12.47-19.2c.38-.49,.75-.73,1.11-.7s.75,.18,1.19,.45c1.09,.66,2.2,1.35,3.32,2.09,1.12,.74,2.15,1.57,3.08,2.5s1.75,1.93,2.46,2.99c.71,1.07,1.2,2.26,1.48,3.57,.44,1.53,.42,3.12-.04,4.76h0Zm-2.54-69c1.83-.66,4.1-2.42,6.81-5.29s5.21-5.87,7.51-8.98c1.37-1.91,2.06-3.96,2.09-6.15s-.67-3.91-2.09-5.17c-.98,1.15-4.27,1.52-9.84,1.11s-10.94-.07-16.08,1.03c-.98,.98-1.76,2.26-2.34,3.81s-.97,3.24-1.19,5.04-.29,3.64-.21,5.5c.08,1.86,.3,3.54,.66,5.04,.36,1.5,.79,2.75,1.31,3.73s1.11,1.5,1.76,1.56c.87,.16,1.97,.27,3.28,.33,1.31,.05,2.76-.08,4.35-.41,.82-.11,2.15-.49,3.98-1.15h0Z"/><path class="cls-1" d="M460.03,156.59c.87,3.01,0,6.43-2.62,10.25-.77,1.26-1.57,2.39-2.42,3.4s-1.74,1.98-2.67,2.91c-.27,.33-.71,.74-1.31,1.23-.6,.49-1.23,.96-1.89,1.39-.66,.44-1.29,.75-1.89,.94s-1.04,.12-1.31-.21c-1.97-1.59-3.91-3.2-5.82-4.84s-4.02-3.17-6.32-4.59c-.38-.27-.56-.53-.53-.78s.18-.62,.45-1.11l13.12-20.02c.38-.55,.77-.81,1.15-.78s.79,.18,1.23,.45c1.15,.66,2.3,1.38,3.45,2.17,1.15,.79,2.21,1.68,3.2,2.67s1.85,2.05,2.58,3.2,1.27,2.38,1.6,3.69v.03Zm-14.03-87.12c-1.15,2.08-2.37,4.06-3.65,5.95-1.29,1.89-2.64,3.76-4.06,5.62-.71-1.91-1.04-3.8-.98-5.66,.05-1.86,.38-3.75,.98-5.66,.38-.33,.74-.77,1.07-1.31l8.12-11.81,1.23-1.72c.93-.98,1.8-1.31,2.62-.98,.38,.22,.49,.9,.33,2.05-.16,1.31-.66,2.99-1.48,5.04s-2.21,4.88-4.18,8.49h0Z"/></svg>