<svg xmlns="http://www.w3.org/2000/svg" version="1.1" xmlns:xlink="http://www.w3.org/1999/xlink" xmlns:svgjs="http://svgjs.dev/svgjs" viewBox="0 0 800 800"><defs><radialGradient id="cccircular-grad" r="50%" cx="50%" cy="50%">
       <stop offset="0%" stop-color="#0a0020" stop-opacity="0.5"></stop>
       <stop offset="50%" stop-color="hsl(272, 97%, 14%)" stop-opacity="0"></stop>
        <stop offset="100%" stop-color="#532a72" stop-opacity="0.5"></stop>
      </radialGradient></defs><g fill="url(#cccircular-grad)"><circle r="2332" cx="400" cy="400" opacity="0.05"></circle><circle r="2305.5" cx="400" cy="400" opacity="0.06"></circle><circle r="2279" cx="400" cy="400" opacity="0.07"></circle><circle r="2252.5" cx="400" cy="400" opacity="0.08"></circle><circle r="2226" cx="400" cy="400" opacity="0.09"></circle><circle r="2199.5" cx="400" cy="400" opacity="0.10"></circle><circle r="2173" cx="400" cy="400" opacity="0.12"></circle><circle r="2146.5" cx="400" cy="400" opacity="0.13"></circle><circle r="2120" cx="400" cy="400" opacity="0.14"></circle><circle r="2093.5" cx="400" cy="400" opacity="0.15"></circle><circle r="2067" cx="400" cy="400" opacity="0.16"></circle><circle r="2040.5" cx="400" cy="400" opacity="0.17"></circle><circle r="2014" cx="400" cy="400" opacity="0.18"></circle><circle r="1987.5" cx="400" cy="400" opacity="0.19"></circle><circle r="1961" cx="400" cy="400" opacity="0.20"></circle><circle r="1934.5" cx="400" cy="400" opacity="0.21"></circle><circle r="1908" cx="400" cy="400" opacity="0.22"></circle><circle r="1881.5" cx="400" cy="400" opacity="0.24"></circle><circle r="1855" cx="400" cy="400" opacity="0.25"></circle><circle r="1828.5" cx="400" cy="400" opacity="0.26"></circle><circle r="1802" cx="400" cy="400" opacity="0.27"></circle><circle r="1775.5" cx="400" cy="400" opacity="0.28"></circle><circle r="1749" cx="400" cy="400" opacity="0.29"></circle><circle r="1722.5" cx="400" cy="400" opacity="0.30"></circle><circle r="1696" cx="400" cy="400" opacity="0.31"></circle><circle r="1669.5" cx="400" cy="400" opacity="0.32"></circle><circle r="1643" cx="400" cy="400" opacity="0.33"></circle><circle r="1616.5" cx="400" cy="400" opacity="0.34"></circle><circle r="1590" cx="400" cy="400" opacity="0.36"></circle><circle r="1563.5" cx="400" cy="400" opacity="0.37"></circle><circle r="1537" cx="400" cy="400" opacity="0.38"></circle><circle r="1510.5" cx="400" cy="400" opacity="0.39"></circle><circle r="1484" cx="400" cy="400" opacity="0.40"></circle><circle r="1457.5" cx="400" cy="400" opacity="0.41"></circle><circle r="1431" cx="400" cy="400" opacity="0.42"></circle><circle r="1404.5" cx="400" cy="400" opacity="0.43"></circle><circle r="1378" cx="400" cy="400" opacity="0.44"></circle><circle r="1351.5" cx="400" cy="400" opacity="0.45"></circle><circle r="1325" cx="400" cy="400" opacity="0.46"></circle><circle r="1298.5" cx="400" cy="400" opacity="0.48"></circle><circle r="1272" cx="400" cy="400" opacity="0.49"></circle><circle r="1245.5" cx="400" cy="400" opacity="0.50"></circle><circle r="1219" cx="400" cy="400" opacity="0.51"></circle><circle r="1192.5" cx="400" cy="400" opacity="0.52"></circle><circle r="1166" cx="400" cy="400" opacity="0.53"></circle><circle r="1139.5" cx="400" cy="400" opacity="0.54"></circle><circle r="1113" cx="400" cy="400" opacity="0.55"></circle><circle r="1086.5" cx="400" cy="400" opacity="0.56"></circle><circle r="1060" cx="400" cy="400" opacity="0.57"></circle><circle r="1033.5" cx="400" cy="400" opacity="0.59"></circle><circle r="1007" cx="400" cy="400" opacity="0.60"></circle><circle r="980.5" cx="400" cy="400" opacity="0.61"></circle><circle r="954" cx="400" cy="400" opacity="0.62"></circle><circle r="927.5" cx="400" cy="400" opacity="0.63"></circle><circle r="901" cx="400" cy="400" opacity="0.64"></circle><circle r="874.5" cx="400" cy="400" opacity="0.65"></circle><circle r="848" cx="400" cy="400" opacity="0.66"></circle><circle r="821.5" cx="400" cy="400" opacity="0.67"></circle><circle r="795" cx="400" cy="400" opacity="0.68"></circle><circle r="768.5" cx="400" cy="400" opacity="0.69"></circle><circle r="742" cx="400" cy="400" opacity="0.71"></circle><circle r="715.5" cx="400" cy="400" opacity="0.72"></circle><circle r="689" cx="400" cy="400" opacity="0.73"></circle><circle r="662.5" cx="400" cy="400" opacity="0.74"></circle><circle r="636" cx="400" cy="400" opacity="0.75"></circle><circle r="609.5" cx="400" cy="400" opacity="0.76"></circle><circle r="583" cx="400" cy="400" opacity="0.77"></circle><circle r="556.5" cx="400" cy="400" opacity="0.78"></circle><circle r="530" cx="400" cy="400" opacity="0.79"></circle><circle r="503.5" cx="400" cy="400" opacity="0.80"></circle><circle r="477" cx="400" cy="400" opacity="0.81"></circle><circle r="450.5" cx="400" cy="400" opacity="0.83"></circle><circle r="424" cx="400" cy="400" opacity="0.84"></circle><circle r="397.5" cx="400" cy="400" opacity="0.85"></circle><circle r="371" cx="400" cy="400" opacity="0.86"></circle><circle r="344.5" cx="400" cy="400" opacity="0.87"></circle><circle r="318" cx="400" cy="400" opacity="0.88"></circle><circle r="291.5" cx="400" cy="400" opacity="0.89"></circle><circle r="265" cx="400" cy="400" opacity="0.90"></circle><circle r="238.5" cx="400" cy="400" opacity="0.91"></circle><circle r="212" cx="400" cy="400" opacity="0.92"></circle><circle r="185.5" cx="400" cy="400" opacity="0.93"></circle><circle r="159" cx="400" cy="400" opacity="0.95"></circle><circle r="132.5" cx="400" cy="400" opacity="0.96"></circle><circle r="106" cx="400" cy="400" opacity="0.97"></circle><circle r="79.5" cx="400" cy="400" opacity="0.98"></circle><circle r="53" cx="400" cy="400" opacity="0.99"></circle></g></svg>