
<svg xmlns="http://www.w3.org/2000/svg" version="1.1" xmlns:xlink="http://www.w3.org/1999/xlink"
    xmlns:svgjs="http://svgjs.dev/svgjs" class="float" viewBox="0 0 800 800" opacity="0.52">
    <style>
  .float {  
    animation-name: ani-float;
    animation-duration: 50s;
    animation-iteration-count: infinite;
    animation-timing-function: linear; 
  }
 
  @keyframes ani-float {

    to{
        transform: rotate(360deg);
    }
  }
</style>
    <defs>
        <linearGradient x1="50%" y1="0%" x2="50%" y2="100%" id="ccchaos-grad">
            <stop stop-color="hsl(265, 49%, 37%)" stop-opacity="1" offset="0%"></stop>
            <stop stop-color="hsl(268, 29%, 85%)" stop-opacity="1" offset="100%"></stop>
        </linearGradient>
    </defs>
    <g stroke-width="1.5" stroke="url(#ccchaos-grad)" fill="none" stroke-linecap="round">
        <path
            d="M389.78 5.06Q399.86 14.69 409.87 25.18 420.5 37.48 431.93 50.95 438.29 58.34 445.13 66.06 452.51 74.06 460.5 82.29 469.14 90.66 478.48 99.11 488.56 107.55 499.42 115.9 511.07 124.08 523.54 132 536.81 139.6 550.9 146.81 565.78 153.59 581.42 159.88 597.8 165.69 614.86 170.99 632.55 175.8 650.81 180.16 669.55 184.12 688.71 187.73 708.18 191.07 727.89 194.24 747.72 197.33 767.58 200.43 784.56 212.43 799.5 224.42 811.77 236.42 820.85 248.42 826.36 260.41 828.07 272.41 825.9 284.4 819.95 296.4 810.46 308.39 797.85 320.39 782.63 332.39 765.44 344.38 747.02 356.38 728.14 368.37 709.58 380.37 692.14 392.36 676.54 404.36 663.44 416.36 653.4 428.35 646.83 440.35 644.02 452.34 645.07 464.34 649.95 476.33 658.45 488.33 670.21 500.32 684.75 512.32 701.43 524.31 719.58 536.31 738.41 548.31 757.14 560.3 774.98 572.3 791.18 584.29 787.07 595.41 782.11 606.75 776.27 618.14 769.52 629.4 761.84 640.34 753.22 650.8 743.68 660.61 733.22 669.65 721.88 677.8 709.69 684.97 696.7 691.12 682.95 696.24 668.52 700.33 653.47 703.46 637.86 705.72 621.78 707.22 605.31 708.11 588.53 708.56 571.53 708.76 554.38 708.9 537.17 709.19 519.99 709.82 502.91 710.98 486 712.86 469.34 715.59 452.98 719.31 437 724.1 421.44 730.02 406.34 737.09 391.74 745.28 377.67 754.54 364.16 764.76 344.08 763.83 329.66 763.73 317.17 761.37 303.85 756.63 296.61 752.57 288.99 747.43 280.97 741.19 272.53 733.88 263.68 725.54 254.41 716.27 244.73 706.19 234.65 695.43 224.19 684.18 213.38 672.6 202.24 660.89 190.8 649.25 179.11 637.85 167.2 626.88 155.12 616.5 142.91 606.84 130.61 598.02 118.27 590.12 105.93 583.19 93.64 577.25 81.43 572.28 69.34 568.23 67.77 556.45 66.04 544.67 64.23 532.88 62.4 521.1 60.65 509.32 59.03 497.54 57.62 485.76 56.48 473.97 55.66 462.19 55.19 450.41 55.08 438.63 55.36 426.84 55.99 415.06 56.97 403.28 58.24 391.5 59.75 379.71 61.44 367.93 63.23 356.15 65.06 344.37 66.85 332.58 68.51 320.8 69.99 309.02 71.21 297.23 72.13 285.45 72.7 273.67 72.91 261.89 72.75 250.1 72.22 238.32 71.34 226.54 70.15 214.75 68.7 202.97 67.05 191.19 77 184.26 86.65 177.87 96.03 172.03 105.14 166.72 113.98 161.9 122.59 157.52 130.99 153.5 139.21 149.77 155.23 142.83 171.06 135.96 178.98 132.33 186.98 128.46 195.11 124.28 203.42 119.74 211.95 114.8 220.77 109.43 229.9 103.61 239.4 97.35 249.3 90.67 259.63 83.61 270.42 76.21 281.7 68.52 293.48 60.62 305.77 52.56 318.56 44.43 331.87 36.29 345.67 28.22 359.94 20.29 382.21 8.81 389.78 5.06"
            stroke-dasharray="16 14" transform="rotate(0, 400, 400)" opacity="0.05"></path>
        <path
            d="M379.9 16.93Q390.09 26.15 400.56 36.22 412.15 48.03 424.8 60.97 431.88 68.08 439.5 75.52 447.68 83.24 456.49 91.2 465.95 99.33 476.1 107.56 486.97 115.82 498.56 124.03 510.9 132.1 523.98 139.98 537.79 147.57 552.31 154.82 567.53 161.68 583.4 168.11 599.89 174.06 616.94 179.54 634.49 184.54 652.48 189.08 670.84 193.18 689.49 196.91 708.34 200.31 727.31 203.47 746.29 206.47 765.21 209.39 780.57 221.07 793.75 232.76 804.24 244.45 811.62 256.13 815.59 267.82 816.01 279.51 812.85 291.19 806.24 302.88 796.44 314.57 783.84 326.25 768.93 337.94 752.31 349.63 734.63 361.31 716.59 373 698.9 384.68 682.26 396.37 667.33 408.06 654.69 419.74 644.85 431.43 638.2 443.11 635 454.8 635.37 466.49 639.3 478.17 646.63 489.86 657.08 501.55 670.24 513.23 685.57 524.92 702.48 536.6 720.3 548.29 738.33 559.98 755.85 571.66 772.17 583.35 768.75 594.27 764.6 605.24 759.69 616.09 753.96 626.67 747.4 636.83 739.99 646.41 731.73 655.29 722.62 663.36 712.68 670.56 701.92 676.81 690.38 682.11 678.1 686.44 665.11 689.87 651.49 692.44 637.27 694.26 622.53 695.45 607.33 696.14 591.74 696.51 575.83 696.72 559.68 696.96 543.37 697.4 526.96 698.22 510.53 699.58 494.15 701.65 477.89 704.54 461.81 708.37 445.98 713.21 430.44 719.1 415.25 726.05 400.45 734.04 386.08 743.02 372.17 752.9 353.48 751.75 339.55 751.55 326.99 749.45 313.45 745.24 306.04 741.6 298.23 736.99 290.02 731.36 281.4 724.71 272.37 717.1 262.94 708.57 253.12 699.23 242.93 689.2 232.4 678.61 221.54 667.63 210.4 656.41 199.01 645.13 187.39 633.97 175.6 623.09 163.68 612.64 151.65 602.77 139.58 593.59 127.48 585.2 115.42 577.67 103.42 571.05 91.52 565.34 79.75 560.52 77.91 549.13 75.94 537.74 73.91 526.35 71.9 514.96 70 503.57 68.27 492.18 66.79 480.79 65.62 469.4 64.79 458.01 64.35 446.62 64.31 435.23 64.67 423.83 65.42 412.44 66.52 401.05 67.95 389.66 69.63 378.27 71.5 366.88 73.49 355.49 75.52 344.1 77.51 332.71 79.38 321.32 81.06 309.92 82.48 298.53 83.58 287.14 84.33 275.75 84.68 264.36 84.64 252.97 84.19 241.58 83.36 230.19 82.18 218.8 80.7 207.4 78.97 196.01 88.64 189.81 98.04 184.13 107.16 178.96 116.02 174.26 124.61 169.99 132.97 166.09 148.95 159.15 164.44 152.59 179.44 145.85 194.4 138.5 201.97 134.32 209.66 129.77 217.52 124.81 225.59 119.43 233.92 113.62 242.56 107.39 251.53 100.77 260.89 93.78 270.65 86.48 280.86 78.93 291.53 71.17 302.68 63.28 314.32 55.33 326.46 47.39 339.1 39.52 352.23 31.78 372.87 20.58 379.9 16.93"
            stroke-dasharray="12 5" transform="rotate(4.967741935483871, 400, 400)" opacity="0.08"></path>
        <path
            d="M370.88 28.79Q381.54 37.63 392.78 47.27 398.88 52.66 405.33 58.4 412.2 64.51 419.53 70.99 427.37 77.82 435.75 84.97 444.72 92.41 454.3 100.1 464.51 107.97 475.39 115.97 486.93 124.02 499.15 132.06 512.03 140.01 525.58 147.81 539.77 155.37 554.58 162.64 569.97 169.56 585.91 176.09 602.34 182.19 619.23 187.84 636.5 193.03 654.09 197.76 671.93 202.05 689.95 205.93 708.07 209.46 726.21 212.68 744.27 215.67 762.19 218.5 775.87 229.88 787.3 241.25 796.06 252.63 801.81 264 804.36 275.37 803.59 286.75 799.55 298.12 792.38 309.5 782.35 320.87 769.83 332.25 755.27 343.62 739.23 355 722.29 366.37 705.08 377.74 688.24 389.12 672.38 400.49 658.11 411.87 645.93 423.24 636.32 434.62 629.61 445.99 626.07 457.37 625.81 468.74 628.86 480.12 635.09 491.49 644.28 502.87 656.08 514.24 670.07 525.62 685.71 536.99 702.44 548.36 719.64 559.74 736.66 571.11 752.89 582.49 750.04 593.04 746.58 603.49 742.46 613.68 737.63 623.49 732.07 632.79 725.75 641.45 718.65 649.38 710.79 656.51 702.14 662.78 692.74 668.17 682.59 672.67 671.71 676.3 660.15 679.12 647.94 681.21 635.12 682.66 621.75 683.6 607.87 684.16 593.55 684.48 578.84 684.74 563.81 685.09 548.53 685.69 533.05 686.7 517.45 688.27 501.79 690.51 486.13 693.55 470.53 697.47 455.06 702.34 439.76 708.19 424.7 715.01 409.92 722.81 395.45 731.5 381.35 741.03 363.36 739.68 349.5 739.37 336.65 737.5 322.72 733.76 315.08 730.53 307.05 726.4 298.61 721.34 289.78 715.34 280.56 708.41 270.96 700.61 261.01 692.02 250.72 682.71 240.13 672.82 229.25 662.47 218.13 651.81 206.79 640.98 195.28 630.15 183.62 619.46 171.87 609.06 160.05 599.1 148.21 589.68 136.38 580.93 124.6 572.91 112.9 565.69 101.32 559.3 89.87 553.76 87.78 542.75 85.59 531.74 83.38 520.72 81.23 509.71 79.21 498.7 77.41 487.68 75.89 476.67 74.71 465.66 73.91 454.65 73.51 443.63 73.55 432.62 74 421.61 74.87 410.6 76.1 399.58 77.67 388.57 79.51 377.56 81.55 366.55 83.72 355.53 85.93 344.52 88.11 333.51 90.18 322.5 92.05 311.48 93.67 300.47 94.96 289.46 95.88 278.45 96.4 267.44 96.5 256.42 96.17 245.41 95.43 234.4 94.3 223.39 92.83 212.37 91.07 201.36 100.48 195.88 109.64 190.88 118.52 186.33 127.15 182.2 143.52 175.06 159.21 168.57 173.97 162.4 188.35 155.94 202.46 148.34 216.64 139.73 223.88 134.75 231.28 129.36 238.87 123.56 246.7 117.37 254.81 110.8 263.24 103.9 272.02 96.72 281.19 89.29 290.77 81.7 300.79 73.98 311.27 66.22 322.23 58.47 333.66 50.8 345.59 43.27 364.43 32.35 370.88 28.79"
            stroke-dasharray="5 7" transform="rotate(9.935483870967742, 400, 400)" opacity="0.11"></path>
        <path
            d="M363.07 40.67Q374.5 49.11 386.75 58.33 393.46 63.48 400.58 68.98 408.15 74.82 416.2 81.02 424.77 87.56 433.89 94.42 443.57 101.57 453.85 108.98 464.73 116.58 476.21 124.32 488.3 132.15 501 140 514.29 147.8 528.15 155.49 542.56 162.99 557.49 170.25 572.9 177.22 588.74 183.83 604.98 190.05 621.55 195.86 638.4 201.23 655.46 206.16 672.67 210.65 689.96 214.73 707.26 218.42 724.49 221.77 741.57 224.84 758.44 227.68 770.42 238.73 780.12 249.79 787.21 260.85 791.44 271.91 792.66 282.97 790.83 294.02 786.02 305.08 778.39 316.14 768.2 327.2 755.81 338.26 741.64 349.31 726.19 360.37 709.99 371.43 693.6 382.49 677.58 393.55 662.5 404.61 648.87 415.66 637.16 426.72 627.78 437.78 621.06 448.84 617.22 459.9 616.39 470.96 618.62 482.01 623.81 493.07 631.8 504.13 642.3 515.19 654.95 526.25 669.31 537.31 684.89 548.37 701.15 559.42 717.52 570.48 733.45 581.54 731.06 591.57 728.17 601.37 724.71 610.81 720.65 619.77 715.96 628.17 710.6 635.9 704.56 642.89 697.81 649.1 690.37 654.5 682.22 659.07 673.37 662.84 663.84 665.84 653.64 668.14 642.81 669.81 631.37 670.97 619.37 671.71 606.84 672.18 593.82 672.51 580.38 672.84 566.56 673.32 552.41 674.09 537.99 675.29 523.36 677.04 508.57 679.45 493.69 682.62 478.77 686.62 463.86 691.5 449.02 697.28 434.3 703.98 419.75 711.56 405.41 719.98 391.32 729.15 373.4 727.62 359.26 727.2 345.93 725.53 331.48 722.22 323.57 719.35 315.28 715.68 306.6 711.15 297.55 705.75 288.14 699.49 278.39 692.4 268.32 684.53 257.95 675.96 247.32 666.78 236.44 657.1 225.36 647.04 214.11 636.73 202.72 626.31 191.23 615.92 179.67 605.69 168.08 595.76 156.49 586.23 144.94 577.23 133.46 568.84 122.08 561.13 110.82 554.16 99.7 547.95 97.39 537.31 95.01 526.66 92.65 516.01 90.38 505.37 88.29 494.72 86.45 484.07 84.93 473.43 83.77 462.78 83.01 452.14 82.69 441.49 82.81 430.84 83.37 420.2 84.34 409.55 85.71 398.9 87.41 388.26 89.39 377.61 91.58 366.96 93.91 356.32 96.29 345.67 98.65 335.03 100.89 324.38 102.95 313.73 104.75 303.09 106.24 292.44 107.35 281.79 108.05 271.15 108.31 260.5 108.13 249.86 107.52 239.21 106.49 228.56 108.79 210.2 121.43 198.11 130.09 194.14 138.5 190.52 154.45 184.14 169.69 178.2 183.95 172.26 197.74 165.91 211.08 158.27 224.35 149.6 231.04 144.6 237.83 139.21 244.76 133.42 251.86 127.27 259.17 120.77 266.74 113.97 274.6 106.9 282.79 99.62 291.33 92.19 300.26 84.66 309.6 77.09 319.38 69.55 329.6 62.08 340.29 54.75 357.25 44.13 363.07 40.67"
            stroke-dasharray="11 3" transform="rotate(14.903225806451612, 400, 400)" opacity="0.14"></path>
        <path
            d="M356.82 52.54Q369.24 60.6 382.64 69.4 390 74.31 397.8 79.56 406.06 85.14 414.8 91.06 424.05 97.31 433.83 103.87 444.15 110.73 455.02 117.83 466.44 125.15 478.4 132.63 490.91 140.22 503.93 147.86 517.47 155.49 531.49 163.04 545.96 170.45 560.85 177.67 576.12 184.64 591.73 191.31 607.61 197.64 623.74 203.58 640.04 209.13 656.46 214.25 672.94 218.96 689.41 223.25 705.81 227.14 722.07 230.67 738.12 233.87 753.91 236.8 764.2 247.53 772.22 258.27 777.72 269 780.52 279.74 780.53 290.48 777.75 301.21 772.27 311.95 764.26 322.68 753.99 333.42 741.79 344.15 728.04 354.89 713.2 365.62 697.73 376.36 682.15 387.1 666.94 397.83 652.61 408.57 639.62 419.3 628.38 430.04 619.25 440.77 612.53 451.51 608.44 462.24 607.11 472.98 608.58 483.71 612.81 494.45 619.65 505.18 628.89 515.92 640.23 526.65 653.3 537.39 667.69 548.12 682.92 558.86 698.51 569.59 713.96 580.33 711.92 589.71 709.47 598.75 702.88 615.14 694.68 629.71 683.5 640.75 670.44 649.53 662.8 652.65 654.52 655.1 645.62 656.95 636.11 658.28 626.01 659.2 615.35 659.81 604.15 660.23 592.46 660.59 580.31 661.02 567.75 661.65 554.8 662.59 541.53 663.97 527.99 665.9 514.21 668.46 500.25 671.75 486.16 675.81 471.99 680.69 457.8 686.41 443.62 692.96 429.51 700.33 415.5 708.46 401.65 717.29 383.25 715.57 368.52 715.06 354.59 713.55 339.53 710.62 331.34 708.09 322.78 704.83 313.87 700.79 304.61 695.97 295.03 690.34 285.14 683.93 274.98 676.77 264.56 668.92 253.91 660.46 243.07 651.47 232.07 642.06 220.93 632.32 209.69 622.39 198.39 612.39 187.05 602.43 175.72 592.64 164.4 583.14 153.15 574.02 141.98 565.38 130.93 557.3 120.01 549.85 109.24 543.08 106.73 532.79 104.2 522.5 101.72 512.21 99.38 501.92 97.26 491.63 95.42 481.34 93.92 471.05 92.8 460.75 92.12 450.46 91.88 440.17 92.09 429.88 92.76 419.59 93.85 409.3 95.33 399.01 97.16 388.72 99.27 378.42 101.6 368.13 104.07 357.84 106.6 347.55 109.11 337.26 111.53 326.97 113.76 316.68 115.74 306.39 117.41 296.09 118.71 285.8 119.6 275.51 120.06 265.22 120.05 254.93 119.6 244.64 118.71 234.35 121.03 216.83 133.37 205.83 149.91 199.3 165.72 193.4 180.36 187.9 194.36 182.23 207.51 175.68 220.28 168.29 232.74 159.19 245.22 148.96 251.56 143.2 258.01 137.09 264.62 130.67 271.41 123.97 278.43 117.03 285.72 109.91 293.29 102.64 301.19 95.3 309.45 87.94 318.08 80.6 327.12 73.34 336.58 66.22 351.64 55.9 356.82 52.54"
            stroke-dasharray="1 13" transform="rotate(19.870967741935484, 400, 400)" opacity="0.17"></path>
        <path
            d="M352.38 64.41Q365.93 72.09 380.55 80.48 388.56 85.16 397 90.16 405.9 95.47 415.27 101.11 425.13 107.07 435.48 113.34 446.32 119.89 457.65 126.69 469.47 133.72 481.77 140.92 494.54 148.25 507.74 155.65 521.37 163.08 535.39 170.47 549.76 177.77 564.46 184.91 579.45 191.86 594.67 198.55 610.08 204.95 625.64 211.01 641.28 216.71 656.96 222.02 672.62 226.93 688.2 231.44 703.64 235.56 718.89 239.3 733.88 242.69 748.57 245.77 757.18 256.17 763.59 266.58 767.59 276.98 769.07 287.38 767.99 297.79 764.37 308.19 758.32 318.59 750.04 329 739.76 339.4 727.79 349.81 714.49 360.21 700.26 370.61 685.53 381.02 670.74 391.42 656.33 401.82 642.74 412.23 630.37 422.63 619.59 433.03 610.73 443.44 604.05 453.84 599.75 464.24 597.96 474.65 598.74 485.05 602.06 495.46 607.82 505.86 615.85 516.26 625.91 526.67 637.7 537.07 650.86 547.47 665 557.88 679.69 568.28 694.5 578.69 690.42 595.29 685.25 610.43 677.84 622.53 668.91 632.6 657.24 639.28 643.85 644.1 627.6 646.48 609.68 647.9 599.8 648.32 589.41 648.75 578.56 649.29 567.27 650.07 555.57 651.19 543.51 652.75 531.13 654.84 518.45 657.54 505.53 660.92 492.41 665.03 479.14 669.9 465.75 675.53 452.29 681.93 438.8 689.08 425.33 696.93 411.92 705.41 392.59 703.53 377.05 702.91 362.44 701.55 346.73 698.95 338.26 696.72 329.44 693.84 320.31 690.27 310.87 685.97 301.14 680.94 291.15 675.18 280.93 668.71 270.49 661.58 259.88 653.83 249.11 645.55 238.21 636.8 227.23 627.69 216.18 618.32 205.1 608.78 194.01 599.19 182.95 589.66 171.94 580.29 161 571.18 150.17 562.43 139.46 554.11 128.89 546.31 118.48 539.08 115.81 529.14 113.16 519.19 110.62 509.25 108.25 499.3 106.12 489.36 104.31 479.41 102.86 469.47 101.83 459.52 101.23 449.58 101.09 439.63 101.41 429.68 102.18 419.74 103.39 409.79 104.98 399.85 106.92 389.9 109.15 379.96 111.6 370.01 114.2 360.07 116.86 350.12 119.52 340.18 122.08 330.23 124.47 320.29 126.63 310.34 128.48 300.4 129.97 290.45 131.06 280.51 131.72 270.56 131.91 260.62 131.64 250.67 130.92 240.73 133.35 224.03 145.43 214 161.6 208.25 177.06 202.92 191.36 197.68 205.01 192.12 217.72 185.53 229.98 178.05 241.75 168.88 253.41 158.63 265.18 146.71 277.24 133.92 283.51 127.12 289.98 120.16 296.67 113.08 303.63 105.93 310.88 98.77 318.44 91.64 326.36 84.6 334.63 77.69 347.84 67.68 352.38 64.41"
            stroke-dasharray="5 8" transform="rotate(24.838709677419356, 400, 400)" opacity="0.20"></path>
        <path
            d="M349.95 76.28Q364.66 83.59 380.49 91.57 389.1 96.02 398.13 100.76 407.59 105.81 417.5 111.17 427.84 116.84 438.63 122.81 449.86 129.05 461.52 135.54 473.6 142.26 486.08 149.17 498.95 156.22 512.17 163.38 525.73 170.58 539.6 177.78 553.73 184.93 568.09 191.97 582.65 198.85 597.36 205.53 612.18 211.97 627.06 218.11 641.95 223.93 656.81 229.41 671.57 234.52 686.21 239.25 700.65 243.6 714.85 247.58 728.77 251.19 742.35 254.47 749.35 264.54 754.22 274.6 756.83 284.66 757.11 294.72 755.05 304.79 750.71 314.85 744.2 324.91 735.72 334.98 725.49 345.04 713.8 355.1 700.98 365.16 687.38 375.23 673.38 385.29 659.37 395.35 645.73 405.41 632.86 415.48 621.1 425.54 610.78 435.6 602.2 445.67 595.58 455.73 591.12 465.79 588.93 475.86 589.09 485.92 591.57 495.98 596.32 506.04 603.21 516.11 612.03 526.17 622.55 536.23 634.47 546.3 647.47 556.36 661.17 566.42 675.21 576.49 671.57 591.37 667.09 604.72 654.74 620.9 643.61 629.29 631.68 632.71 618.21 634.93 602.18 636.02 584.66 637 575.07 637.68 565.04 638.61 554.61 639.9 543.78 641.63 532.6 643.88 521.09 646.71 509.29 650.17 497.24 654.3 484.97 659.14 472.52 664.68 459.93 670.92 447.23 677.84 434.47 685.4 421.68 693.55 410.52 692 398.34 691.23 384.42 690.71 369.44 689.72 352.77 686.99 335.16 682.75 325.83 679.6 316.25 675.8 306.42 671.33 296.37 666.18 286.14 660.38 275.73 653.93 265.19 646.9 254.53 639.32 243.79 631.27 233 622.81 222.17 614.04 211.34 605.04 200.54 595.9 189.78 586.72 179.09 577.6 168.5 568.62 158.02 559.89 147.67 551.47 137.47 543.45 127.43 535.89 124.65 526.29 121.93 516.68 119.35 507.07 116.99 497.46 114.9 487.86 113.15 478.25 111.79 468.64 110.85 459.03 110.35 449.43 110.32 439.82 110.76 430.21 111.64 420.6 112.95 411 114.66 401.39 116.7 391.78 119.03 382.18 121.59 372.57 124.29 362.96 127.07 353.35 129.85 343.75 132.55 334.14 135.09 324.53 137.41 314.93 139.44 305.32 141.12 295.71 142.41 286.1 143.27 276.5 143.68 266.89 143.62 257.28 143.1 247.68 145.7 231.73 157.56 222.57 173.39 217.46 188.53 212.56 202.54 207.47 215.89 201.95 228.25 195.26 240.11 187.68 251.33 178.45 262.31 168.19 273.18 156.39 284.15 143.81 289.78 137.16 295.54 130.36 301.46 123.47 307.58 116.52 313.92 109.57 320.51 102.66 327.39 95.84 334.57 89.15 346.02 79.45 349.95 76.28"
            stroke-dasharray="5 12" transform="rotate(29.806451612903224, 400, 400)" opacity="0.23"></path>
        <path
            d="M349.62 88.15Q357.27 91.48 365.28 94.99 373.65 98.71 382.4 102.67 391.53 106.89 401.06 111.39 410.98 116.18 421.3 121.26 432.01 126.63 443.11 132.29 454.58 138.22 466.41 144.4 478.59 150.81 491.1 157.41 503.91 164.17 517 171.05 530.34 178 543.9 184.99 557.65 191.96 571.55 198.86 585.56 205.65 599.65 212.28 613.77 218.71 627.88 224.9 641.94 230.82 655.9 236.42 669.73 241.71 683.37 246.64 696.79 251.22 709.94 255.43 722.77 259.3 735.26 262.82 740.7 272.53 744.13 282.24 745.46 291.95 744.66 301.67 741.74 311.38 736.79 321.09 729.92 330.8 721.32 340.51 711.21 350.23 699.84 359.94 687.52 369.65 674.55 379.36 661.27 389.07 648.02 398.79 635.14 408.5 622.97 418.21 611.81 427.92 601.96 437.63 593.67 447.35 587.14 457.06 582.55 466.77 580.02 476.48 579.61 486.19 581.33 495.9 585.14 505.62 590.94 515.33 598.58 525.04 607.86 534.75 618.55 544.46 630.37 554.17 643.01 563.89 656.16 573.6 652.78 586.72 648.8 598.28 638.27 611.81 628.83 618.67 618.71 621.39 607.22 623.19 593.41 624.24 578.23 625.36 569.86 626.18 561.06 627.27 551.85 628.73 542.25 630.62 532.28 633 521.97 635.94 511.34 639.46 500.42 643.61 489.24 648.4 477.83 653.83 466.22 659.91 454.45 666.6 442.54 673.87 430.53 681.67 418.52 680.07 405.5 679.19 390.8 678.62 375.11 677.68 366.71 676.77 358.03 675.49 349.07 673.77 339.84 671.55 330.38 668.79 320.7 665.44 310.82 661.49 300.77 656.93 290.57 651.75 280.25 645.97 269.83 639.63 259.34 632.75 248.8 625.4 238.23 617.62 227.67 609.49 217.13 601.07 206.64 592.46 196.22 583.72 185.88 574.95 175.65 566.23 165.55 557.64 155.58 549.25 145.77 541.15 136.12 533.4 133.26 524.12 130.52 514.85 127.95 505.57 125.63 496.3 123.62 487.02 121.96 477.75 120.7 468.47 119.88 459.2 119.5 449.92 119.59 440.65 120.14 431.37 121.14 422.1 122.55 412.82 124.35 403.55 126.49 394.27 128.91 385 131.56 375.72 134.35 366.45 137.23 357.17 140.11 347.9 142.93 338.62 145.6 329.35 148.07 320.07 150.27 310.8 152.13 301.52 153.62 292.25 154.7 282.97 155.33 273.7 155.51 264.42 155.22 255.15 158.04 239.92 169.71 231.5 185.22 226.87 200.08 222.28 213.84 217.25 226.94 211.69 239.04 204.88 250.58 197.19 261.38 187.89 271.84 177.65 281.98 165.99 292.07 153.64 302.38 140.49 312.99 127.09 318.54 120.36 324.27 113.68 330.23 107.08 336.42 100.6 346.25 91.22 349.62 88.15"
            stroke-dasharray="9 2" transform="rotate(34.774193548387096, 400, 400)" opacity="0.26"></path>
        <path
            d="M351.42 100.02Q359.59 103.17 368.09 106.5 376.94 110.03 386.15 113.78 395.7 117.77 405.6 122.03 415.86 126.55 426.45 131.36 437.38 136.44 448.64 141.79 460.2 147.41 472.05 153.27 484.18 159.36 496.56 165.65 509.16 172.1 521.97 178.69 534.95 185.37 548.07 192.12 561.31 198.87 574.63 205.6 587.99 212.26 601.35 218.8 614.69 225.19 627.96 231.39 641.13 237.35 654.16 243.06 667 248.48 679.63 253.59 692.01 258.38 704.1 262.83 715.86 266.94 727.27 270.71 731.25 280.06 733.35 289.41 733.52 298.76 731.75 308.11 728.1 317.46 722.64 326.81 715.51 336.16 706.87 345.51 696.93 354.86 685.93 364.21 674.12 373.56 661.79 382.91 649.22 392.26 636.72 401.61 624.58 410.96 613.1 420.32 602.53 429.67 593.14 439.02 585.14 448.37 578.73 457.72 574.05 467.07 571.22 476.42 570.31 485.77 571.33 495.12 574.27 504.47 579.05 513.82 585.56 523.17 593.64 532.52 603.11 541.87 613.74 551.22 625.27 560.57 637.44 569.92 631.26 588.2 625.93 598.61 607.47 608.65 595.03 611.44 583.24 612.53 570.21 613.83 555.14 616.24 538.9 619.71 530.13 622.22 521 625.24 511.55 628.81 501.79 632.95 491.74 637.69 481.43 643 470.89 648.9 460.13 655.36 449.19 662.34 438.1 669.8 425.17 668.15 411.28 667.18 395.82 666.55 379.49 665.64 370.84 664.83 361.94 663.7 352.8 662.2 343.46 660.26 333.91 657.84 324.2 654.91 314.33 651.44 304.34 647.42 294.24 642.83 284.05 637.69 273.81 632.02 263.53 625.83 253.23 619.17 242.94 612.08 232.68 604.61 222.47 596.83 212.33 588.79 202.27 580.57 192.31 572.24 182.47 563.87 172.77 555.54 163.2 547.32 153.79 539.27 144.54 531.46 141.67 522.51 138.94 513.56 136.43 504.62 134.19 495.67 132.28 486.73 130.74 477.78 129.61 468.83 128.91 459.89 128.67 450.94 128.89 441.99 129.56 433.05 130.66 424.1 132.18 415.16 134.07 406.21 136.29 397.26 138.79 388.32 141.5 379.37 144.37 370.43 147.33 361.48 150.3 352.53 153.22 343.59 156.01 334.64 158.61 325.7 160.96 316.75 163 307.8 164.69 298.86 165.98 289.91 166.84 280.97 167.26 272.02 167.22 263.08 170.31 248.51 181.83 240.71 197.03 236.42 211.63 232 225.18 226.96 238.09 221.3 249.99 214.36 261.31 206.55 271.8 197.22 281.88 187.01 291.46 175.52 300.88 163.41 310.25 150.62 319.75 137.63 329.72 124.71 340.13 112.04 348.54 102.98 351.42 100.02"
            stroke-dasharray="5 13" transform="rotate(39.74193548387097, 400, 400)" opacity="0.30"></path>
        <path
            d="M355.26 111.9Q372.78 118.03 391.54 124.9 411.53 132.69 432.7 141.48 454.95 151.32 478.16 162.16 502.19 173.88 526.84 186.3 551.9 199.17 577.14 212.21 602.33 225.12 627.19 237.58 651.48 249.32 674.94 260.09 697.32 269.72 718.39 278.1 721.88 296.06 718.41 314.01 708.28 331.97 692.37 349.92 672.04 367.87 649.07 385.83 625.45 403.78 603.21 421.74 584.29 439.69 570.33 457.65 562.53 475.6 561.57 493.56 567.53 511.51 579.91 529.47 597.61 547.42 619.12 565.38 612.05 582.31 603.28 593.74 589.58 598.19 571.99 600.86 560.71 602.44 547.96 604.97 533.75 608.9 518.15 614.61 501.25 622.33 483.17 632.18 464.05 644.11 444.06 657.93 430.37 656.13 415.5 655.18 399.51 654.53 382.51 653.6 364.62 651.88 345.98 648.87 326.75 644.22 307.09 637.66 287.16 629.09 267.13 618.54 247.16 606.15 227.4 592.24 207.97 577.18 189 561.44 170.57 545.52 152.75 529.93 147.23 512.69 142.69 495.45 139.52 478.22 137.99 460.98 138.24 443.75 140.24 426.51 143.82 409.27 148.67 392.04 154.37 374.8 160.43 357.57 166.32 340.33 171.53 323.1 175.61 305.86 178.21 288.63 179.1 271.39 178.2 254.16 193.88 250.13 208.89 246.09 223.15 241.7 236.61 236.67 249.26 230.77 261.11 223.82 272.19 215.75 282.55 206.53 292.3 196.25 301.54 185.05 310.42 173.13 319.08 160.74 327.71 148.15 336.49 135.65 350.43 117.69 355.26 111.9"
            stroke-dasharray="16 8" transform="rotate(44.70967741935484, 400, 400)" opacity="0.33"></path>
        <path
            d="M360.98 123.76Q379.11 129.55 398.32 136.03 418.55 143.36 439.73 151.63 461.74 160.87 484.46 171.07 507.72 182.13 531.35 193.9 555.16 206.17 578.92 218.71 602.43 231.24 625.47 243.5 647.81 255.21 669.24 266.13 689.57 276.07 708.61 284.91 709.77 302.1 704.68 319.29 693.74 336.48 677.83 353.67 658.2 370.86 636.42 388.05 614.21 405.24 593.33 422.43 575.43 439.62 561.94 456.81 553.93 474 552.03 491.19 556.39 508.38 566.67 525.57 582.05 542.76 601.31 559.95 594.24 573.9 586.15 583.07 574.37 586.73 559.45 589.35 549.89 591.19 539.04 594.01 526.89 598.2 513.45 604.05 498.77 611.75 482.93 621.37 466.02 632.87 448.17 646.06 433.62 644.24 418.03 643.21 401.5 642.49 384.13 641.59 366.06 640.03 347.43 637.41 328.37 633.38 309.05 627.68 289.6 620.19 270.18 610.87 250.93 599.83 231.95 587.26 213.36 573.48 195.26 558.83 177.71 543.75 160.76 528.66 155.42 512.08 151.16 495.51 148.32 478.93 147.11 462.35 147.63 445.77 149.85 429.19 153.59 412.61 158.55 396.03 164.33 379.45 170.49 362.88 176.52 346.3 181.96 329.72 186.37 313.14 189.4 296.56 190.81 279.98 190.49 263.4 205.81 259.67 220.51 255.72 234.54 251.28 247.83 246.11 260.36 240.04 272.1 232.94 283.09 224.78 293.35 215.56 302.94 205.38 311.96 194.39 320.5 182.78 328.69 170.78 336.67 158.64 344.61 146.61 356.81 129.34 360.98 123.76"
            stroke-dasharray="14 17" transform="rotate(49.67741935483871, 400, 400)" opacity="0.36"></path>
        <path
            d="M368.34 135.63Q386.82 141.08 406.18 147.18 426.35 154.05 447.23 161.8 468.71 170.46 490.66 180.01 512.91 190.4 535.31 201.5 557.67 213.14 579.82 225.13 601.56 237.22 622.71 249.17 643.1 260.75 662.53 271.72 680.87 281.89 697.96 291.1 697.04 307.5 690.58 323.91 679.05 340.32 663.29 356.72 644.43 373.13 623.84 389.54 603.02 405.94 583.45 422.35 566.57 438.76 553.58 455.17 545.43 471.57 542.71 487.98 545.61 504.39 553.93 520.8 567.06 537.21 584.06 553.61 570.62 569.44 559.16 575.33 545.49 578.3 528.75 583.19 518.44 587.61 506.98 593.56 494.39 601.21 480.69 610.58 465.95 621.63 450.25 634.2 434.98 632.36 418.84 631.26 401.94 630.47 384.38 629.57 366.31 628.17 347.85 625.88 329.13 622.4 310.28 617.48 291.45 610.97 272.75 602.83 254.29 593.07 236.17 581.85 218.48 569.37 201.3 555.92 184.66 541.84 168.61 527.49 163.54 511.57 159.62 495.66 157.14 479.74 156.27 463.82 157.09 447.9 159.52 431.99 163.39 416.07 168.43 400.15 174.27 384.24 180.48 368.32 186.63 352.4 192.25 336.49 196.96 320.57 200.4 304.65 202.33 288.74 202.6 272.82 217.55 269.23 231.96 265.27 245.76 260.71 258.88 255.36 271.29 249.11 282.97 241.87 293.92 233.63 304.14 224.44 313.68 214.4 322.59 203.65 330.95 192.38 338.86 180.79 346.42 169.11 353.76 157.56 364.68 140.98 368.34 135.63"
            stroke-dasharray="3 2" transform="rotate(54.645161290322584, 400, 400)" opacity="0.39"></path>
        <path
            d="M377.04 147.51Q395.57 152.62 414.77 158.34 434.58 164.77 454.88 172 475.55 180.08 496.47 189 517.5 198.71 538.48 209.12 559.27 220.1 579.7 231.47 599.61 243.05 618.87 254.62 637.31 265.97 654.8 276.88 671.23 287.16 686.48 296.65 683.73 312.26 676.15 327.87 664.22 343.48 648.74 359.09 630.71 374.7 611.33 390.31 591.85 405.91 573.57 421.52 557.68 437.13 545.22 452.74 537.01 468.35 533.59 483.96 535.19 499.57 541.69 515.18 552.68 530.79 567.43 546.4 553.85 558.95 543.22 563.81 531.47 567.11 517.28 572.51 508.58 577.11 498.89 583.14 488.19 590.69 476.49 599.78 463.82 610.37 450.21 622.32 434.41 620.48 417.92 619.32 400.85 618.47 383.31 617.57 365.42 616.29 347.31 614.29 329.09 611.29 310.87 607.07 292.77 601.47 274.88 594.41 257.31 585.88 240.12 575.97 223.38 564.82 207.15 552.63 191.47 539.67 176.34 526.24 171.62 510.99 168.1 495.75 166.01 480.5 165.5 465.26 166.6 450.01 169.23 434.76 173.22 419.52 178.31 404.27 184.17 389.03 190.41 373.78 196.62 358.53 202.4 343.29 207.36 328.04 211.18 312.8 213.61 297.55 214.49 282.31 229.07 278.73 243.17 274.66 256.72 269.91 269.67 264.37 281.98 257.93 293.6 250.57 304.53 242.3 314.77 233.17 324.32 223.3 333.23 212.83 341.54 201.92 349.33 190.76 356.67 179.56 363.66 168.5 373.72 152.63 377.04 147.51"
            stroke-dasharray="10 5" transform="rotate(59.61290322580645, 400, 400)" opacity="0.42"></path>
        <path
            d="M386.7 159.37Q404.97 164.17 423.73 169.51 442.88 175.5 462.32 182.23 481.95 189.73 501.63 198.02 521.26 207.05 540.69 216.77 559.8 227.06 578.45 237.79 596.52 248.79 613.89 259.9 630.43 270.91 646.06 281.65 660.67 291.93 674.19 301.59 669.89 316.38 661.42 331.18 649.29 345.98 634.2 360.78 617.05 375.58 598.87 390.37 580.72 405.17 563.68 419.97 548.77 434.77 536.86 449.57 528.67 464.36 524.67 479.16 525.1 493.96 529.95 508.75 538.91 523.55 551.47 538.35 537.45 548.23 527.26 552.38 516.99 556.09 504.87 561.97 497.53 566.73 489.37 572.78 480.35 580.2 470.46 589.01 459.69 599.13 448.06 610.45 431.95 608.62 415.34 607.4 398.32 606.5 381.01 605.6 363.51 604.41 345.93 602.66 328.36 600.08 310.9 596.48 293.64 591.69 276.67 585.63 260.06 578.25 243.85 569.6 228.12 559.75 212.88 548.86 198.17 537.12 184 524.75 179.69 510.19 176.61 495.63 174.95 481.07 174.8 466.5 176.17 451.94 178.98 437.38 183.07 422.81 188.19 408.25 194.04 393.69 200.27 379.12 206.51 364.56 212.4 350 217.58 335.43 221.74 320.87 224.65 306.31 226.13 291.74 240.31 288.07 254.08 283.81 267.38 278.85 280.14 273.1 292.33 266.5 303.9 259.04 314.82 250.77 325.1 241.75 334.71 232.09 343.69 221.92 352.06 211.4 359.86 200.69 367.14 189.98 373.99 179.42 383.59 164.27 386.7 159.37"
            stroke-dasharray="8 12" transform="rotate(64.58064516129032, 400, 400)" opacity="0.45"></path>
        <path
            d="M396.92 171.25Q414.65 175.73 432.67 180.7 450.91 186.27 469.26 192.5 487.63 199.44 505.92 207.1 524 215.46 541.78 224.47 559.15 234.06 576.01 244.1 592.24 254.48 607.76 265.05 622.48 275.64 636.33 286.09 649.23 296.23 661.14 305.93 655.56 319.9 646.44 333.88 634.27 347.85 619.69 361.83 603.47 375.8 586.48 389.78 569.63 403.76 553.81 417.73 539.86 431.71 528.52 445.68 520.4 459.66 515.93 473.63 515.35 487.61 518.69 501.59 528.7 524.17 527.4 535.23 513.31 540.57 502.49 544.86 491.46 552.09 478.66 562.48 471.08 569.74 462.77 578.23 453.71 587.87 443.89 598.58 427.73 596.76 411.23 595.5 394.5 594.54 377.63 593.64 360.71 592.53 343.82 590.97 327.05 588.76 310.48 585.7 294.17 581.64 278.2 576.48 262.61 570.17 247.45 562.71 232.75 554.13 218.54 544.54 204.83 534.06 191.62 522.87 187.79 509 185.19 495.13 183.96 481.27 184.18 467.4 185.82 453.54 188.8 439.67 192.96 425.8 198.07 411.94 203.88 398.07 210.06 384.21 216.3 370.34 222.25 356.48 227.6 342.61 232.06 328.75 235.41 314.88 237.45 301.02 251.22 297.16 264.64 292.68 277.66 287.49 290.21 281.53 302.26 274.79 313.76 267.29 324.68 259.06 334.99 250.19 344.7 240.77 353.79 230.94 362.28 220.83 370.19 210.6 377.56 200.38 384.43 190.33 393.89 175.91 396.92 171.25"
            stroke-dasharray="14 13" transform="rotate(69.54838709677419, 400, 400)" opacity="0.48"></path>
        <path
            d="M407.27 183.11Q424.17 187.28 441.21 191.9 458.31 197.05 475.38 202.8 492.33 209.19 509.08 216.23 525.54 223.92 541.62 232.23 557.23 241.09 572.3 250.43 586.74 260.13 600.48 270.09 613.47 280.17 625.65 290.22 636.96 300.12 647.39 309.71 640.8 322.86 631.25 336.01 619.2 349.15 605.22 362.3 589.96 375.45 574.17 388.6 558.57 401.75 543.93 414.9 530.92 428.05 520.17 441.19 512.2 454.34 507.37 467.49 505.92 480.64 507.91 493.79 511.53 520.36 503.99 527.26 489.57 533.74 478.22 541.29 472.87 546.25 467.03 552.24 460.65 559.32 453.68 567.46 446.1 576.62 437.88 586.71 421.93 584.92 405.8 583.63 389.59 582.63 373.36 581.71 357.19 580.66 341.16 579.27 325.32 577.37 309.75 574.77 294.48 571.35 279.58 567.01 265.07 561.67 250.99 555.31 237.36 547.94 224.19 539.62 211.49 530.42 199.26 520.47 195.95 507.31 193.86 494.16 193.08 481 193.65 467.85 195.54 454.69 198.66 441.54 202.87 428.38 207.96 415.23 213.69 402.07 219.79 388.92 225.97 375.77 231.94 362.61 237.42 349.46 242.13 336.3 245.87 323.15 248.45 309.99 261.77 305.9 274.81 301.17 287.5 295.75 299.81 289.63 311.69 282.79 323.08 275.28 333.97 267.14 344.31 258.46 354.1 249.34 363.32 239.88 371.97 230.21 380.06 220.46 387.6 210.76 394.62 201.22 404.22 187.54 407.27 183.11"
            stroke-dasharray="7 14" transform="rotate(74.51612903225806, 400, 400)" opacity="0.51"></path>
        <path
            d="M417.32 194.99Q433.16 198.85 449 203.12 464.77 207.86 480.41 213.14 495.83 218.99 510.97 225.43 525.75 232.46 540.11 240.07 553.98 248.2 567.31 256.8 580.02 265.8 592.08 275.09 603.44 284.57 614.06 294.13 623.92 303.65 633 313.01 625.65 325.33 615.88 337.65 604.1 349.97 590.8 362.29 576.53 374.61 561.91 386.92 547.55 399.24 534.04 411.56 521.96 423.88 511.82 436.2 504.05 448.52 498.96 460.84 496.78 473.16 497.6 485.48 497.75 509.87 489.21 516.1 475.05 523.17 464.53 531.17 454.59 542.53 443.48 556.7 437.12 565.37 430.26 574.84 414.79 573.08 399.27 571.77 383.79 570.73 368.4 569.8 353.15 568.8 338.11 567.55 323.32 565.9 308.84 563.71 294.69 560.85 280.91 557.22 267.53 552.75 254.56 547.41 242.02 541.17 229.91 534.05 218.23 526.12 206.97 517.43 204.22 505 202.65 492.57 202.31 480.15 203.22 467.72 205.34 455.29 208.58 442.86 212.8 430.44 217.83 418.01 223.46 405.58 229.45 393.15 235.54 380.72 241.49 368.3 247.03 355.87 251.94 343.44 256.01 331.01 259.07 318.58 271.91 314.22 284.53 309.25 296.87 303.63 308.89 297.37 320.54 290.49 331.79 283.02 342.6 275.03 352.94 266.6 362.79 257.8 372.13 248.75 380.95 239.54 389.23 230.29 397 221.12 404.26 212.11 414.17 199.18 417.32 194.99"
            stroke-dasharray="8 1" transform="rotate(79.48387096774194, 400, 400)" opacity="0.54"></path>
        <path
            d="M426.63 206.86Q441.21 210.42 455.7 214.35 470.02 218.7 484.11 223.52 497.94 228.84 511.43 234.7 524.53 241.09 537.2 248 549.38 255.4 561.03 263.26 572.11 271.52 582.59 280.1 592.45 288.92 601.64 297.89 610.17 306.92 618.03 315.9 610.18 327.4 600.38 338.89 589 350.38 576.45 361.87 563.2 373.36 549.74 384.85 536.56 396.34 524.16 407.83 513 419.32 503.48 430.81 495.95 442.3 490.71 453.79 487.94 465.28 487.74 476.77 484.75 499.28 475.25 505.09 461.02 512.81 450.95 521.18 442.11 532.35 432.5 545.95 427.13 554.11 421.38 562.97 406.63 561.26 391.94 559.94 377.38 558.87 362.98 557.93 348.8 556.95 334.87 555.82 321.23 554.38 307.9 552.53 294.92 550.14 282.31 547.14 270.08 543.44 258.24 539.01 246.79 533.8 235.74 527.82 225.08 521.09 214.8 513.65 212.64 501.97 211.58 490.28 211.67 478.59 212.9 466.91 215.22 455.22 218.55 443.54 222.77 431.85 227.72 420.17 233.21 408.48 239.05 396.8 245.01 385.11 250.88 373.43 256.44 361.74 261.49 350.06 265.83 338.37 269.3 326.69 281.63 322.06 293.78 316.87 305.71 311.1 317.39 304.76 328.77 297.89 339.81 290.53 350.49 282.74 360.78 274.59 370.64 266.16 380.05 257.54 389.01 248.82 397.48 240.1 405.48 231.45 413 222.98 423.34 210.81 426.63 206.86"
            stroke-dasharray="11 2" transform="rotate(84.4516129032258, 400, 400)" opacity="0.57"></path>
        <path
            d="M434.82 218.72Q448.01 222 461.01 225.59 473.79 229.56 486.31 233.93 498.51 238.75 510.36 244.04 521.82 249.8 532.85 256.03 543.42 262.72 553.49 269.83 563.06 277.33 572.08 285.16 580.55 293.27 588.46 301.58 595.79 310.02 602.55 318.51 594.44 329.17 584.79 339.84 573.92 350.5 562.18 361.17 549.96 371.83 537.63 382.5 525.61 393.17 514.28 403.83 504.01 414.5 495.12 425.16 487.9 435.83 482.59 446.5 479.36 457.16 478.3 467.83 472.56 488.69 462.18 494.32 447.67 502.66 437.76 511.33 429.66 522.22 421.11 535.2 416.49 542.86 411.6 551.1 397.79 549.44 384.12 548.13 370.64 547.04 357.38 546.09 344.37 545.14 331.64 544.09 319.21 542.83 307.1 541.26 295.32 539.27 283.9 536.8 272.83 533.78 262.12 530.14 251.77 525.86 241.77 520.93 232.12 515.33 222.8 509.08 221.22 498.15 220.68 487.22 221.17 476.29 222.69 465.36 225.19 454.43 228.59 443.51 232.77 432.58 237.6 421.65 242.93 410.72 248.58 399.79 254.38 388.86 260.13 377.93 265.65 367.01 270.76 356.08 275.3 345.15 279.12 334.22 290.88 329.37 302.52 324 313.99 318.13 325.27 311.78 336.31 304.99 347.09 297.79 357.57 290.26 367.72 282.45 377.53 274.43 386.95 266.27 395.99 258.06 404.61 249.87 412.81 241.77 420.58 233.84 431.37 222.43 434.82 218.72"
            stroke-dasharray="14 16" transform="rotate(89.41935483870968, 400, 400)" opacity="0.60"></path>
        <path
            d="M441.55 230.6Q453.25 233.59 464.72 236.86 475.93 240.45 486.86 244.4 497.46 248.73 507.71 253.46 517.59 258.61 527.07 264.18 536.13 270.16 544.75 276.53 552.91 283.27 560.61 290.34 567.84 297.69 574.58 305.28 580.85 313.05 586.65 320.93 578.47 330.78 569.12 340.63 558.87 350.48 547.99 360.32 536.79 370.17 525.59 380.02 514.69 389.86 504.4 399.71 495 409.56 486.75 419.4 479.88 429.25 474.6 439.1 471.03 448.94 469.28 458.79 461.19 478.2 450.07 483.82 435.15 492.74 425.21 501.6 417.52 512.15 409.68 524.46 405.58 531.59 401.32 539.23 388.63 537.63 376.14 536.33 363.88 535.24 351.85 534.28 340.09 533.35 328.62 532.37 317.44 531.25 306.57 529.9 296.02 528.25 285.78 526.23 275.87 523.78 266.29 520.84 257.02 517.37 248.06 513.36 239.39 508.79 231.02 503.66 230.03 493.5 229.97 483.34 230.84 473.19 232.62 463.03 235.25 452.87 238.68 442.72 242.79 432.56 247.48 422.4 252.61 412.24 258.05 402.09 263.63 391.93 269.22 381.77 274.64 371.61 279.75 361.46 284.42 351.3 288.49 341.14 299.65 336.11 310.72 330.63 321.68 324.73 332.49 318.44 343.13 311.79 353.56 304.83 363.76 297.61 373.71 290.18 383.37 282.6 392.73 274.94 401.77 267.26 410.46 259.62 418.8 252.07 426.76 244.69 437.95 234.06 441.55 230.6"
            stroke-dasharray="2 2" transform="rotate(94.38709677419355, 400, 400)" opacity="0.63"></path>
        <path
            d="M446.53 242.46Q456.7 245.18 466.63 248.14 476.29 251.37 485.67 254.9 494.74 258.77 503.48 262.97 511.88 267.54 519.91 272.47 527.58 277.76 534.87 283.4 541.77 289.38 548.28 295.67 554.4 302.24 560.12 309.07 563.9 324.21 553.45 341.37 543.89 350.4 533.92 359.44 523.75 368.48 513.64 377.52 503.82 386.55 494.52 395.59 485.97 404.63 478.37 413.67 471.9 422.7 466.71 431.74 462.93 440.78 460.64 449.82 450.65 467.94 438.95 473.66 423.61 483.06 413.52 492.01 406.02 502.12 398.58 513.72 387.19 523.08 368.36 524.56 357.38 523.47 346.66 522.51 336.2 521.6 326.01 520.68 316.11 519.67 306.48 518.5 297.14 517.12 288.09 515.47 270.97 510.93 254.67 505.18 243.02 494.77 239.47 478.64 240.68 469.27 242.68 459.89 245.42 450.52 248.83 441.14 252.85 431.76 257.36 422.39 262.27 413.01 267.46 403.64 272.8 394.26 278.17 384.88 283.44 375.51 288.48 366.13 293.19 356.76 297.43 347.38 307.94 342.24 318.39 336.74 328.77 330.9 339.04 324.74 349.2 318.31 359.2 311.65 369.04 304.79 378.68 297.79 388.11 290.7 397.3 283.56 406.24 276.42 414.9 269.34 423.28 262.36 431.35 255.53 442.82 245.67 446.53 242.46"
            stroke-dasharray="10 1" transform="rotate(99.35483870967742, 400, 400)" opacity="0.66"></path>
        <path
            d="M449.56 254.34Q466.65 259.44 482.73 265.46 497.69 272.57 511.45 280.89 523.96 290.45 535.19 301.21 545.15 313.03 553.87 325.71 537.79 342.19 519.95 358.67 501.75 375.15 484.64 391.62 469.98 408.1 458.93 424.58 452.36 441.06 450.8 457.54 439.27 460.29 428.87 463.88 419.46 468.62 410.86 474.79 402.9 482.54 395.4 491.95 388.18 502.98 381.04 515.48 361.1 512.8 342.07 510.78 324.03 509.01 306.98 507.07 290.92 504.55 275.84 501.1 261.67 496.42 248.34 490.31 249.21 473.14 252.87 455.96 259.05 438.79 267.24 421.62 276.8 404.45 286.97 387.28 296.94 370.1 305.93 352.93 325.51 342.34 344.92 330.7 364.01 318.26 382.63 305.3 400.62 292.12 417.85 279.04 434.2 266.36 449.56 254.34 449.56 254.34 449.56 254.34"
            stroke-dasharray="11 7" transform="rotate(104.32258064516128, 400, 400)" opacity="0.69"></path>
        <path
            d="M450.49 266.21Q464.73 270.75 478.06 276.06 490.43 282.26 501.79 289.47 512.13 297.72 521.46 307 529.78 317.24 537.16 328.33 522.19 343.23 506.1 358.13 489.94 373.04 474.76 387.94 461.57 402.84 451.22 417.74 444.41 432.65 441.57 447.55 430.21 450.6 419.82 454.51 410.32 459.48 401.6 465.67 393.52 473.19 385.97 482.07 378.8 492.25 371.89 503.62 354.69 501.08 338.33 499.1 322.84 497.39 308.19 495.63 294.39 493.52 281.38 490.77 269.11 487.14 257.52 482.44 259.2 466.86 263.22 451.28 269.33 435.7 277.12 420.12 286.09 404.54 295.64 388.96 305.14 373.38 313.98 357.8 332.09 347.46 350.13 336.35 367.99 324.69 385.54 312.71 402.68 300.63 419.29 288.71 435.26 277.17 450.49 266.21 450.49 266.21 450.49 266.21"
            stroke-dasharray="10 8" transform="rotate(109.29032258064517, 400, 400)" opacity="0.72"></path>
        <path
            d="M449.3 278.08Q460.91 282.09 471.75 286.71 481.8 292.06 491.05 298.21 499.51 305.22 507.18 313.09 514.11 321.8 520.32 331.27 506.68 344.62 492.38 357.97 478.19 371.31 464.88 384.66 453.13 398.01 443.59 411.36 436.76 424.71 433 438.06 421.99 441.41 411.8 445.57 402.37 450.65 393.63 456.77 385.5 463.96 377.9 472.22 370.74 481.51 363.92 491.74 349.42 489.36 335.65 487.45 322.6 485.81 310.25 484.19 298.57 482.39 287.52 480.19 277.05 477.4 267.11 473.86 269.46 459.88 273.73 445.9 279.68 431.92 287.01 417.94 295.31 403.96 304.16 389.98 313.08 376 321.6 362.03 338.13 352.13 354.68 341.72 371.15 330.97 387.45 320.04 403.51 309.12 419.23 298.38 434.52 287.99 449.3 278.08 449.3 278.08 449.3 278.08"
            stroke-dasharray="12 11" transform="rotate(114.25806451612904, 400, 400)" opacity="0.75"></path>
        <path
            d="M446.04 289.95Q455.29 293.43 463.94 297.41 471.98 301.95 479.41 307.12 486.25 312.96 492.52 319.5 498.25 326.74 503.47 334.63 491.29 346.45 478.8 358.27 466.53 370.09 454.99 381.91 444.68 393.73 436.02 405.55 429.37 417.36 425.03 429.18 414.57 432.78 404.76 437.09 395.59 442.18 387 448.08 378.94 454.83 371.38 462.41 364.24 470.78 357.47 479.88 345.56 477.67 334.23 475.86 323.47 474.29 313.25 472.8 303.55 471.24 294.33 469.46 282.78 459.8 284.39 439.91 290.09 427.53 296.88 415.16 304.48 402.78 312.56 390.4 320.79 378.02 328.81 365.64 343.68 356.4 358.61 346.84 373.55 337.1 388.42 327.3 403.17 317.56 417.73 308.02 439.04 294.36 446.04 289.95"
            stroke-dasharray="13 8" transform="rotate(119.2258064516129, 400, 400)" opacity="0.79"></path>
        <path
            d="M440.84 301.81Q454.6 308.37 467.03 316.2 477.4 326.55 486.67 338.52 476.06 348.83 465.37 359.14 454.94 369.45 445.11 379.76 436.2 390.07 428.49 400.38 422.23 410.69 417.62 421 407.89 424.75 398.68 429.08 389.95 434.03 381.7 439.6 373.89 445.81 366.49 452.64 351.38 463.03 334.21 464.32 317.47 461.46 301.85 458.61 292.74 450.57 295.22 433.42 300.57 422.63 306.77 411.85 313.6 401.07 320.84 390.28 328.27 379.5 335.64 368.72 348.76 360.32 361.98 351.76 375.24 343.12 388.52 334.5 401.76 325.98 414.92 317.65 434.4 305.69 440.84 301.81"
            stroke-dasharray="13 3" transform="rotate(124.19354838709677, 400, 400)" opacity="0.82"></path>
        <path
            d="M433.92 313.69Q451.43 324.19 462.5 333.45 463.68 344.93 452.09 360.66 443.43 369.48 435.23 378.3 427.69 387.12 420.99 395.94 415.28 404.76 410.7 413.58 401.91 417.33 393.48 421.54 385.41 426.19 377.71 431.31 370.34 436.88 363.3 442.89 349.66 451.84 335.69 452.81 322.53 450.2 310.13 447.72 303.17 441.07 306.21 426.54 311.13 417.34 316.65 408.15 322.66 398.95 329 389.75 335.53 380.56 342.1 371.36 353.42 363.97 364.83 356.52 376.31 349.07 387.84 341.68 399.4 334.39 410.95 327.27 428.19 317.02 433.92 313.69"
            stroke-dasharray="10 3" transform="rotate(129.16129032258064, 400, 400)" opacity="0.85"></path>
        <path
            d="M425.57 325.56Q433.55 329.82 440.8 334.92 447.42 341.01 453.49 348.2 438.97 362.89 425.35 377.57 413.5 392.26 404.22 406.94 389.09 414.45 374.96 423.21 361.79 433.18 349.55 444.27 338.74 441.37 328.65 438.99 318.28 428.14 326.53 404.17 337.05 388.93 348.25 373.68 367.24 361.18 386.53 348.82 406.02 336.88 425.57 325.56 425.57 325.56 425.57 325.56"
            stroke-dasharray="8 0" transform="rotate(134.1290322580645, 400, 400)" opacity="0.88"></path>
        <path
            d="M416.15 337.43Q427.19 344.86 437.24 354.11 426.02 365.85 415.47 377.6 406.04 389.34 398.11 401.09 385.43 407.79 373.37 415.27 361.93 423.49 351.1 432.39 336.19 428.02 322.29 424.3 328.74 412.17 336.41 400.05 344.99 387.92 354.12 375.8 369.29 365.79 384.73 355.98 400.36 346.49 416.15 337.43 416.15 337.43 416.15 337.43"
            stroke-dasharray="15 7" transform="rotate(139.09677419354838, 400, 400)" opacity="0.91"></path>
        <path
            d="M406.05 349.3Q413.56 362.05 405.59 378.39 398.55 387.21 392.3 396.03 382.39 401.55 372.82 407.48 356.55 416.22 344.5 416.94 339.95 410.2 346.29 395.93 352.85 386.88 359.77 377.85 371.08 370.41 382.58 363.14 400.15 352.7 406.05 349.3"
            stroke-dasharray="16 12" transform="rotate(144.06451612903226, 400, 400)" opacity="0.94"></path>
        <path
            d="M395.68 361.18Q398.25 372.14 386.71 391.7 373.17 399.84 360.21 408.65 355.1 399.03 365.25 379.95 380.28 370.34 395.68 361.18 395.68 361.18 395.68 361.18"
            stroke-dasharray="17 7" transform="rotate(149.03225806451613, 400, 400)" opacity="0.97"></path>
    </g>
</svg>