<svg xmlns="http://www.w3.org/2000/svg" xmlns:xlink="http://www.w3.org/1999/xlink" id="visual" viewBox="0 0 900 45"
    width="900" height="45" version="1.1" style="fill: transparent;">
    <path
        d="M0 39L21.5 35.2C43 31.3 86 23.7 128.8 18C171.7 12.3 214.3 8.7 257.2 10.8C300 13 343 21 385.8 20.8C428.7 20.7 471.3 12.3 514.2 12.3C557 12.3 600 20.7 642.8 23.8C685.7 27 728.3 25 771.2 25.3C814 25.7 857 28.3 878.5 29.7L900 31L900 0L878.5 0C857 0 814 0 771.2 0C728.3 0 685.7 0 642.8 0C600 0 557 0 514.2 0C471.3 0 428.7 0 385.8 0C343 0 300 0 257.2 0C214.3 0 171.7 0 128.8 0C86 0 43 0 21.5 0L0 0Z"
        fill="#ffa200" stroke-linecap="round" stroke-linejoin="miter" />
</svg>